; NON-PLATED HOLES START AT T1
; THROUGH (PLATED) HOLES START AT T100
M48
INCH
T1C0.125984
T100C0.048000
T101C0.043307
T102C0.038000
T103C0.051181
%
T1
X019513Y038360
X038017Y019856
X019513Y001352
X001009Y019856
T100
X016057Y019681
X016557Y018815
X014832Y020130
X015333Y019263
X015833Y018397
X015557Y020548
T101
X012825Y030850
X013591Y031493
X015889Y033421
X018000Y006370
X018984Y006370
X014357Y032136
X014233Y030727
X015123Y032778
X016532Y032655
X004015Y025370
X017015Y006370
X015766Y032012
X004999Y025370
X015000Y031370
X013467Y030084
T102
X011679Y019370
X025071Y020174
X029866Y029870
X021205Y024870
X014543Y015493
X009947Y018370
X017141Y016993
X016875Y022370
X017741Y022870
X027669Y021674
X016009Y021870
X032000Y024174
X018143Y016174
X026803Y021174
X020339Y024370
X013813Y013674
X025536Y027370
X028536Y022174
X010813Y018870
X022938Y025870
X023804Y026370
X025938Y020674
X032866Y024674
X028036Y023040
X015143Y021370
X026402Y027870
X014679Y014174
X021607Y018174
X019875Y017174
X017277Y015674
X014277Y020870
X029402Y022674
X019473Y023870
X022473Y018674
X029000Y029370
X016275Y016493
X023339Y019174
X012545Y019870
X030268Y023174
X026036Y026504
X027036Y024772
X015545Y014674
X020741Y017674
X031134Y023674
X024670Y026870
X018007Y017494
X015409Y015993
X019009Y016674
X018607Y023370
X028134Y028870
X027536Y023906
X024205Y019674
X011325Y017983
X016411Y015174
X022072Y025370
X027268Y028370
X026536Y025638
X012947Y013174
X013411Y020370
T103
X032000Y010370
X024126Y010370
T00
M30
