G04 MADE WITH FRITZING*
G04 WWW.FRITZING.ORG*
G04 DOUBLE SIDED*
G04 HOLES PLATED*
G04 CONTOUR ON CENTER OF CONTOUR VECTOR*
%ASAXBY*%
%FSLAX23Y23*%
%MOIN*%
%OFA0B0*%
%SFA1.0B1.0*%
%ADD10C,0.071181*%
%ADD11C,0.078000*%
%ADD12C,0.068000*%
%ADD13C,0.083307*%
%ADD14C,0.024000*%
%ADD15C,0.020000*%
%LNCOPPER1*%
G90*
G70*
G54D10*
X3200Y1037D03*
X2413Y1037D03*
X3200Y1037D03*
X2413Y1037D03*
G54D11*
X1133Y1798D03*
G54D12*
X1483Y2013D03*
X1533Y1926D03*
X1583Y1840D03*
X1556Y2055D03*
X1606Y1968D03*
X1656Y1882D03*
G54D11*
X1454Y1549D03*
X1541Y1599D03*
X1628Y1649D03*
X1714Y1699D03*
X1801Y1749D03*
X1295Y1317D03*
X1381Y1367D03*
X1468Y1417D03*
X1555Y1467D03*
X1641Y1517D03*
X1728Y1567D03*
X1814Y1617D03*
X1901Y1667D03*
X1988Y1717D03*
X2074Y1767D03*
X2161Y1817D03*
X2247Y1867D03*
X2334Y1917D03*
X2421Y1967D03*
X2507Y2017D03*
X2594Y2067D03*
X2680Y2117D03*
X2767Y2167D03*
X2854Y2217D03*
X2940Y2267D03*
X3027Y2317D03*
X3113Y2367D03*
X3200Y2417D03*
X3287Y2467D03*
X2804Y2304D03*
X2754Y2391D03*
X2704Y2477D03*
X2654Y2564D03*
X2604Y2650D03*
X2987Y2987D03*
X2900Y2937D03*
X2813Y2887D03*
X2727Y2837D03*
X2640Y2787D03*
X2554Y2737D03*
X2467Y2687D03*
X2380Y2637D03*
X2294Y2587D03*
X2207Y2537D03*
X2121Y2487D03*
X2034Y2437D03*
X1947Y2387D03*
X1861Y2337D03*
X1774Y2287D03*
X1688Y2237D03*
X1601Y2187D03*
X1514Y2137D03*
X1428Y2087D03*
X1341Y2037D03*
X1255Y1987D03*
X1168Y1937D03*
X1081Y1887D03*
X995Y1837D03*
G54D13*
X1283Y3085D03*
X1359Y3149D03*
X1436Y3214D03*
X1512Y3278D03*
X1589Y3342D03*
X1347Y3008D03*
X1423Y3073D03*
X1500Y3137D03*
X1577Y3201D03*
X1653Y3266D03*
X1898Y637D03*
X1800Y637D03*
X1702Y637D03*
X402Y2537D03*
X500Y2537D03*
G54D14*
X3401Y2639D02*
X3001Y2535D01*
D02*
X3500Y2338D02*
X3401Y2639D01*
D02*
X3598Y2436D02*
X3401Y2836D01*
D02*
X3500Y1735D02*
X3598Y2436D01*
D02*
X2903Y2639D02*
X2718Y2489D01*
D02*
X3001Y2535D02*
X2816Y2318D01*
D02*
X3302Y1538D02*
X3500Y2338D01*
D02*
X2799Y1138D02*
X3302Y1538D01*
D02*
X3401Y2836D02*
X2903Y2639D01*
D02*
X1698Y837D02*
X1307Y1303D01*
D02*
X1701Y659D02*
X1698Y837D01*
D02*
X2437Y1044D02*
X2799Y1138D01*
D02*
X3210Y1061D02*
X3500Y1735D01*
D02*
X2601Y1839D02*
X2516Y2001D01*
D02*
X2497Y1637D02*
X2601Y1839D01*
D02*
X1802Y1034D02*
X2497Y1637D01*
D02*
X1402Y2738D02*
X1599Y2436D01*
D02*
X1698Y2535D02*
X1769Y2305D01*
D02*
X1599Y2436D02*
X1680Y2254D01*
D02*
X1802Y3439D02*
X2202Y3236D01*
D02*
X1402Y3537D02*
X1999Y3636D01*
D02*
X1351Y2987D02*
X1402Y2738D01*
D02*
X898Y2836D02*
X1587Y2200D01*
D02*
X1002Y3137D02*
X898Y2836D01*
D02*
X1261Y3089D02*
X1002Y3137D01*
D02*
X1600Y2937D02*
X1853Y2354D01*
D02*
X1510Y3118D02*
X1600Y2937D01*
D02*
X1433Y3053D02*
X1698Y2535D01*
D02*
X2202Y2738D02*
X2284Y2603D01*
D02*
X2399Y3335D02*
X2202Y2738D01*
D02*
X1999Y3636D02*
X2399Y3335D01*
D02*
X2098Y2738D02*
X2198Y2554D01*
D02*
X2202Y3236D02*
X2098Y2738D01*
D02*
X1609Y3351D02*
X1802Y3439D01*
D02*
X1504Y3298D02*
X1402Y3537D01*
D02*
X1800Y659D02*
X1802Y1034D01*
D02*
X1002Y2037D02*
X1072Y1904D01*
D02*
X498Y2239D02*
X1002Y2037D01*
D02*
X408Y2516D02*
X498Y2239D01*
D02*
X602Y2338D02*
X510Y2518D01*
D02*
X1199Y2135D02*
X602Y2338D01*
D02*
X1248Y2005D02*
X1199Y2135D01*
D02*
X3100Y2037D02*
X2399Y1440D01*
D02*
X2399Y1440D02*
X1900Y837D01*
D02*
X1900Y837D02*
X1899Y659D01*
D02*
X3032Y2299D02*
X3100Y2037D01*
G54D15*
X1302Y3012D02*
X1351Y3053D01*
X1391Y3005D01*
X1343Y2964D01*
X1302Y3012D01*
D02*
G04 End of Copper1*
M02*