%TF.GenerationSoftware,KiCad,Pcbnew,9.0.5*%
%TF.CreationDate,2025-11-21T15:22:48-05:00*%
%TF.ProjectId,Pump PCB 2.0 without Current Sensor,50756d70-2050-4434-9220-322e30207769,rev?*%
%TF.SameCoordinates,Original*%
%TF.FileFunction,Copper,L2,Bot*%
%TF.FilePolarity,Positive*%
%FSLAX46Y46*%
G04 Gerber Fmt 4.6, Leading zero omitted, Abs format (unit mm)*
G04 Created by KiCad (PCBNEW 9.0.5) date 2025-11-21 15:22:48*
%MOMM*%
%LPD*%
G01*
G04 APERTURE LIST*
G04 Aperture macros list*
%AMRoundRect*
0 Rectangle with rounded corners*
0 $1 Rounding radius*
0 $2 $3 $4 $5 $6 $7 $8 $9 X,Y pos of 4 corners*
0 Add a 4 corners polygon primitive as box body*
4,1,4,$2,$3,$4,$5,$6,$7,$8,$9,$2,$3,0*
0 Add four circle primitives for the rounded corners*
1,1,$1+$1,$2,$3*
1,1,$1+$1,$4,$5*
1,1,$1+$1,$6,$7*
1,1,$1+$1,$8,$9*
0 Add four rect primitives between the rounded corners*
20,1,$1+$1,$2,$3,$4,$5,0*
20,1,$1+$1,$4,$5,$6,$7,0*
20,1,$1+$1,$6,$7,$8,$9,0*
20,1,$1+$1,$8,$9,$2,$3,0*%
G04 Aperture macros list end*
%TA.AperFunction,ComponentPad*%
%ADD10RoundRect,0.250000X-0.600000X-0.750000X0.600000X-0.750000X0.600000X0.750000X-0.600000X0.750000X0*%
%TD*%
%TA.AperFunction,ComponentPad*%
%ADD11O,1.700000X2.000000*%
%TD*%
%TA.AperFunction,ComponentPad*%
%ADD12O,3.800000X1.400000*%
%TD*%
%TA.AperFunction,ComponentPad*%
%ADD13RoundRect,0.250001X1.149999X-1.149999X1.149999X1.149999X-1.149999X1.149999X-1.149999X-1.149999X0*%
%TD*%
%TA.AperFunction,ComponentPad*%
%ADD14C,2.800000*%
%TD*%
%TA.AperFunction,ComponentPad*%
%ADD15R,1.600000X1.600000*%
%TD*%
%TA.AperFunction,ComponentPad*%
%ADD16C,1.600000*%
%TD*%
%TA.AperFunction,ComponentPad*%
%ADD17C,3.000000*%
%TD*%
%TA.AperFunction,ComponentPad*%
%ADD18R,1.300000X1.300000*%
%TD*%
%TA.AperFunction,ComponentPad*%
%ADD19C,1.300000*%
%TD*%
%TA.AperFunction,ComponentPad*%
%ADD20R,2.540000X2.540000*%
%TD*%
%TA.AperFunction,ComponentPad*%
%ADD21C,2.540000*%
%TD*%
%TA.AperFunction,ComponentPad*%
%ADD22C,3.200000*%
%TD*%
%TA.AperFunction,ComponentPad*%
%ADD23R,2.000000X2.000000*%
%TD*%
%TA.AperFunction,ComponentPad*%
%ADD24C,2.000000*%
%TD*%
%TA.AperFunction,ComponentPad*%
%ADD25RoundRect,0.250000X-0.600000X-0.725000X0.600000X-0.725000X0.600000X0.725000X-0.600000X0.725000X0*%
%TD*%
%TA.AperFunction,ComponentPad*%
%ADD26O,1.700000X1.950000*%
%TD*%
%TA.AperFunction,ComponentPad*%
%ADD27RoundRect,0.250000X0.725000X-0.600000X0.725000X0.600000X-0.725000X0.600000X-0.725000X-0.600000X0*%
%TD*%
%TA.AperFunction,ComponentPad*%
%ADD28O,1.950000X1.700000*%
%TD*%
%TA.AperFunction,ViaPad*%
%ADD29C,0.600000*%
%TD*%
%TA.AperFunction,Conductor*%
%ADD30C,0.200000*%
%TD*%
%TA.AperFunction,Conductor*%
%ADD31C,0.500000*%
%TD*%
G04 APERTURE END LIST*
D10*
%TO.P,LED2,1*%
%TO.N,N/C*%
X79500000Y-78000000D03*
D11*
%TO.P,LED2,2*%
X82000000Y-78000000D03*
%TD*%
D10*
%TO.P,Switch,1*%
%TO.N,N/C*%
X118000000Y-82500000D03*
D11*
%TO.P,Switch,2*%
X120500000Y-82500000D03*
%TD*%
D12*
%TO.P,REF\u002A\u002A,5*%
%TO.N,N/C*%
X96700000Y-125150000D03*
X96700000Y-136850000D03*
%TD*%
D13*
%TO.P,Battery,1*%
%TO.N,N/C*%
X119500000Y-96500000D03*
D14*
%TO.P,Battery,2*%
X119500000Y-91500000D03*
%TD*%
D15*
%TO.P,USB A,1*%
%TO.N,N/C*%
X95010000Y-113500000D03*
D16*
%TO.P,USB A,2*%
X95010000Y-111000000D03*
%TO.P,USB A,3*%
X95010000Y-109000000D03*
%TO.P,USB A,4*%
X95010000Y-106500000D03*
D17*
%TO.P,USB A,5*%
X97720000Y-116570000D03*
X97720000Y-103430000D03*
%TD*%
D13*
%TO.P,Motor,1*%
%TO.N,N/C*%
X119467500Y-73750000D03*
D14*
%TO.P,Motor,2*%
X119467500Y-68750000D03*
%TD*%
D15*
%TO.P,Teensy4.1,1*%
%TO.N,N/C*%
X39760000Y-55880000D03*
D16*
%TO.P,Teensy4.1,2*%
X39760000Y-58420000D03*
%TO.P,Teensy4.1,3*%
X39760000Y-60960000D03*
%TO.P,Teensy4.1,4*%
X39760000Y-63500000D03*
%TO.P,Teensy4.1,5*%
X39760000Y-66040000D03*
%TO.P,Teensy4.1,6*%
X39760000Y-68580000D03*
%TO.P,Teensy4.1,7*%
X39760000Y-71120000D03*
%TO.P,Teensy4.1,8*%
X39760000Y-73660000D03*
%TO.P,Teensy4.1,9*%
X39760000Y-76200000D03*
%TO.P,Teensy4.1,10*%
X39760000Y-78740000D03*
%TO.P,Teensy4.1,11*%
X39760000Y-81280000D03*
%TO.P,Teensy4.1,12*%
X39760000Y-83820000D03*
%TO.P,Teensy4.1,13*%
X39760000Y-86360000D03*
%TO.P,Teensy4.1,14*%
X39760000Y-88900000D03*
%TO.P,Teensy4.1,15*%
X39760000Y-91440000D03*
%TO.P,Teensy4.1,16*%
X39760000Y-93980000D03*
%TO.P,Teensy4.1,17*%
X39760000Y-96520000D03*
%TO.P,Teensy4.1,18*%
X39760000Y-99060000D03*
%TO.P,Teensy4.1,19*%
X39760000Y-101600000D03*
%TO.P,Teensy4.1,20*%
X39760000Y-104140000D03*
%TO.P,Teensy4.1,21*%
X39760000Y-106680000D03*
%TO.P,Teensy4.1,22*%
X39760000Y-109220000D03*
%TO.P,Teensy4.1,23*%
X39760000Y-111760000D03*
%TO.P,Teensy4.1,24*%
X39760000Y-114300000D03*
%TO.P,Teensy4.1,25*%
X55000000Y-114300000D03*
%TO.P,Teensy4.1,26*%
X55000000Y-111760000D03*
%TO.P,Teensy4.1,27*%
X55000000Y-109220000D03*
%TO.P,Teensy4.1,28*%
X55000000Y-106680000D03*
%TO.P,Teensy4.1,29*%
X55000000Y-104140000D03*
%TO.P,Teensy4.1,30*%
X55000000Y-101600000D03*
%TO.P,Teensy4.1,31*%
X55000000Y-99060000D03*
%TO.P,Teensy4.1,32*%
X55000000Y-96520000D03*
%TO.P,Teensy4.1,33*%
X55000000Y-93980000D03*
%TO.P,Teensy4.1,34*%
X55000000Y-91440000D03*
%TO.P,Teensy4.1,35*%
X55000000Y-88900000D03*
%TO.P,Teensy4.1,36*%
X55000000Y-86360000D03*
%TO.P,Teensy4.1,37*%
X55000000Y-83820000D03*
%TO.P,Teensy4.1,38*%
X55000000Y-81280000D03*
%TO.P,Teensy4.1,39*%
X55000000Y-78740000D03*
%TO.P,Teensy4.1,40*%
X55000000Y-76200000D03*
%TO.P,Teensy4.1,41*%
X55000000Y-73660000D03*
%TO.P,Teensy4.1,42*%
X55000000Y-71120000D03*
%TO.P,Teensy4.1,43*%
X55000000Y-68580000D03*
%TO.P,Teensy4.1,44*%
X55000000Y-66040000D03*
%TO.P,Teensy4.1,45*%
X55000000Y-63500000D03*
%TO.P,Teensy4.1,46*%
X55000000Y-60960000D03*
%TO.P,Teensy4.1,47*%
X55000000Y-58420000D03*
%TO.P,Teensy4.1,48*%
X55000000Y-55880000D03*
%TO.P,Teensy4.1,49*%
X52460000Y-58420000D03*
%TO.P,Teensy4.1,50*%
X42300000Y-101600000D03*
%TO.P,Teensy4.1,51*%
X44840000Y-101600000D03*
%TO.P,Teensy4.1,52*%
X47380000Y-101600000D03*
%TO.P,Teensy4.1,53*%
X49920000Y-101600000D03*
%TO.P,Teensy4.1,54*%
X52460000Y-101600000D03*
D15*
%TO.P,Teensy4.1,55*%
X42810800Y-62179200D03*
D16*
%TO.P,Teensy4.1,56*%
X42810800Y-64719200D03*
%TO.P,Teensy4.1,57*%
X42810800Y-67259200D03*
%TO.P,Teensy4.1,58*%
X42810800Y-69799200D03*
%TO.P,Teensy4.1,59*%
X42810800Y-72339200D03*
D18*
%TO.P,Teensy4.1,60*%
X52561600Y-68850000D03*
D19*
%TO.P,Teensy4.1,61*%
X50561600Y-68850000D03*
%TO.P,Teensy4.1,62*%
X48561600Y-68850000D03*
%TO.P,Teensy4.1,63*%
X48561600Y-70850000D03*
%TO.P,Teensy4.1,64*%
X50561600Y-70850000D03*
%TO.P,Teensy4.1,65*%
X52561600Y-70850000D03*
%TD*%
D20*
%TO.P,Regulator,1*%
%TO.N,N/C*%
X121000000Y-61280000D03*
D21*
%TO.P,Regulator,2*%
X121000000Y-43500000D03*
%TO.P,Regulator,3*%
X80360000Y-43500000D03*
%TO.P,Regulator,4*%
X80360000Y-61280000D03*
D22*
%TO.P,Regulator,SH1*%
X115920000Y-60645000D03*
%TO.P,Regulator,SH2*%
X85440000Y-44135000D03*
%TD*%
D10*
%TO.P,ESC,1*%
%TO.N,N/C*%
X66000000Y-61000000D03*
D11*
%TO.P,ESC,2*%
X68500000Y-61000000D03*
%TD*%
D10*
%TO.P,T_Switch,1*%
%TO.N,N/C*%
X66000000Y-88000000D03*
D11*
%TO.P,T_Switch,2*%
X68500000Y-88000000D03*
%TD*%
D23*
%TO.P,BAT1,1*%
%TO.N,N/C*%
X62500000Y-106000000D03*
D24*
%TO.P,BAT1,2*%
X83300000Y-106000000D03*
%TD*%
D25*
%TO.P,Int2,1*%
%TO.N,N/C*%
X76500000Y-88000000D03*
D26*
%TO.P,Int2,2*%
X79000000Y-88000000D03*
%TO.P,Int2,3*%
X81500000Y-88000000D03*
%TD*%
D27*
%TO.P,Flow,1*%
%TO.N,N/C*%
X61000000Y-52000000D03*
D28*
%TO.P,Flow,2*%
X61000000Y-49500000D03*
%TO.P,Flow,3*%
X61000000Y-47000000D03*
%TD*%
D25*
%TO.P,Pressure,1*%
%TO.N,N/C*%
X66000000Y-70000000D03*
D26*
%TO.P,Pressure,2*%
X68500000Y-70000000D03*
%TO.P,Pressure,3*%
X71000000Y-70000000D03*
%TO.P,Pressure,4*%
X73500000Y-70000000D03*
%TD*%
D27*
%TO.P,USB In,1*%
%TO.N,N/C*%
X70500000Y-53500000D03*
D28*
%TO.P,USB In,2*%
X70500000Y-51000000D03*
%TO.P,USB In,3*%
X70500000Y-48500000D03*
%TO.P,USB In,4*%
X70500000Y-46000000D03*
%TD*%
D10*
%TO.P,LED1,1*%
%TO.N,N/C*%
X66000000Y-78000000D03*
D11*
%TO.P,LED1,2*%
X68500000Y-78000000D03*
%TD*%
D29*
%TO.N,*%
X78000000Y-84000000D03*
%TD*%
D30*
%TO.N,*%
X37500000Y-54000000D02*
X42000000Y-49500000D01*
X37500000Y-89180000D02*
X37500000Y-54000000D01*
X42000000Y-49500000D02*
X61000000Y-49500000D01*
X39760000Y-91440000D02*
X37500000Y-89180000D01*
X41500000Y-52000000D02*
X61000000Y-52000000D01*
X39760000Y-53740000D02*
X41500000Y-52000000D01*
X39760000Y-55880000D02*
X39760000Y-53740000D01*
D31*
X119467500Y-73750000D02*
X116500000Y-70782500D01*
D30*
X55000000Y-81280000D02*
X61780000Y-74500000D01*
D31*
X116500000Y-65500000D02*
X120720000Y-61280000D01*
D30*
X101000000Y-111000000D02*
X95010000Y-111000000D01*
X103000000Y-106500000D02*
X100500000Y-109000000D01*
X96000000Y-53500000D02*
X101500000Y-59000000D01*
X78000000Y-84000000D02*
X78500000Y-83500000D01*
X68500000Y-88000000D02*
X68500000Y-91000000D01*
X70500000Y-53500000D02*
X96000000Y-53500000D01*
X85500000Y-77000000D02*
X85500000Y-81000000D01*
X106000000Y-56500000D02*
X106000000Y-108500000D01*
X56960000Y-60960000D02*
X55000000Y-60960000D01*
X96500000Y-47000000D02*
X106000000Y-56500000D01*
X76500000Y-88000000D02*
X76500000Y-91500000D01*
X81500000Y-73000000D02*
X85500000Y-77000000D01*
X70500000Y-46000000D02*
X70250000Y-45750000D01*
X101500000Y-59000000D02*
X101500000Y-105000000D01*
D31*
X116500000Y-70782500D02*
X116500000Y-65500000D01*
D30*
X77500000Y-74500000D02*
X79500000Y-76500000D01*
X70500000Y-46000000D02*
X71500000Y-45000000D01*
X81500000Y-83500000D02*
X82000000Y-83000000D01*
X80500000Y-66000000D02*
X62000000Y-66000000D01*
X78500000Y-83500000D02*
X81500000Y-83500000D01*
X85500000Y-91000000D02*
X85500000Y-81000000D01*
X76500000Y-91500000D02*
X77500000Y-92500000D01*
X70500000Y-48500000D02*
X96000000Y-48500000D01*
X104500000Y-57000000D02*
X104500000Y-107500000D01*
X77500000Y-83500000D02*
X70000000Y-83500000D01*
X101500000Y-105000000D02*
X100000000Y-106500000D01*
X100500000Y-109000000D02*
X95010000Y-109000000D01*
X120720000Y-61280000D02*
X121000000Y-61280000D01*
X68500000Y-91000000D02*
X70000000Y-92500000D01*
X78000000Y-84000000D02*
X77500000Y-83500000D01*
X70500000Y-51000000D02*
X96000000Y-51000000D01*
X106000000Y-108500000D02*
X101000000Y-113500000D01*
X85500000Y-71000000D02*
X80500000Y-66000000D01*
X96000000Y-48500000D02*
X104500000Y-57000000D01*
X62000000Y-66000000D02*
X56960000Y-60960000D01*
X66000000Y-71000000D02*
X68000000Y-73000000D01*
X157780000Y-97780000D02*
X158000000Y-98000000D01*
X71500000Y-45000000D02*
X76500000Y-45000000D01*
X76500000Y-45000000D02*
X78500000Y-47000000D01*
X68500000Y-82000000D02*
X68500000Y-78000000D01*
X82000000Y-83000000D02*
X82000000Y-78000000D01*
X66000000Y-70000000D02*
X66000000Y-71000000D01*
X77500000Y-92500000D02*
X84000000Y-92500000D01*
X103000000Y-58000000D02*
X103000000Y-106500000D01*
X68000000Y-73000000D02*
X81500000Y-73000000D01*
X61780000Y-74500000D02*
X77500000Y-74500000D01*
X85500000Y-81000000D02*
X85500000Y-71000000D01*
X104500000Y-107500000D02*
X101000000Y-111000000D01*
X101000000Y-113500000D02*
X95010000Y-113500000D01*
X84000000Y-92500000D02*
X85500000Y-91000000D01*
X70000000Y-83500000D02*
X68500000Y-82000000D01*
X96000000Y-51000000D02*
X103000000Y-58000000D01*
X70000000Y-92500000D02*
X77500000Y-92500000D01*
X78500000Y-47000000D02*
X96500000Y-47000000D01*
X79500000Y-76500000D02*
X79500000Y-78000000D01*
X100000000Y-106500000D02*
X95010000Y-106500000D01*
%TD*%
M02*
