%TF.GenerationSoftware,KiCad,Pcbnew,9.0.5*%
%TF.CreationDate,2025-11-21T15:22:48-05:00*%
%TF.ProjectId,Pump PCB 2.0 without Current Sensor,50756d70-2050-4434-9220-322e30207769,rev?*%
%TF.SameCoordinates,Original*%
%TF.FileFunction,Soldermask,Bot*%
%TF.FilePolarity,Negative*%
%FSLAX46Y46*%
G04 Gerber Fmt 4.6, Leading zero omitted, Abs format (unit mm)*
G04 Created by KiCad (PCBNEW 9.0.5) date 2025-11-21 15:22:48*
%MOMM*%
%LPD*%
G01*
G04 APERTURE LIST*
G04 Aperture macros list*
%AMRoundRect*
0 Rectangle with rounded corners*
0 $1 Rounding radius*
0 $2 $3 $4 $5 $6 $7 $8 $9 X,Y pos of 4 corners*
0 Add a 4 corners polygon primitive as box body*
4,1,4,$2,$3,$4,$5,$6,$7,$8,$9,$2,$3,0*
0 Add four circle primitives for the rounded corners*
1,1,$1+$1,$2,$3*
1,1,$1+$1,$4,$5*
1,1,$1+$1,$6,$7*
1,1,$1+$1,$8,$9*
0 Add four rect primitives between the rounded corners*
20,1,$1+$1,$2,$3,$4,$5,0*
20,1,$1+$1,$4,$5,$6,$7,0*
20,1,$1+$1,$6,$7,$8,$9,0*
20,1,$1+$1,$8,$9,$2,$3,0*%
G04 Aperture macros list end*
%ADD10RoundRect,0.250000X-0.600000X-0.750000X0.600000X-0.750000X0.600000X0.750000X-0.600000X0.750000X0*%
%ADD11O,1.700000X2.000000*%
%ADD12C,1.200000*%
%ADD13O,3.800000X1.400000*%
%ADD14RoundRect,0.250001X1.149999X-1.149999X1.149999X1.149999X-1.149999X1.149999X-1.149999X-1.149999X0*%
%ADD15C,2.800000*%
%ADD16R,1.600000X1.600000*%
%ADD17C,1.600000*%
%ADD18C,3.000000*%
%ADD19R,1.300000X1.300000*%
%ADD20C,1.300000*%
%ADD21R,2.540000X2.540000*%
%ADD22C,2.540000*%
%ADD23C,3.404000*%
%ADD24R,2.000000X2.000000*%
%ADD25C,2.000000*%
%ADD26RoundRect,0.250000X-0.600000X-0.725000X0.600000X-0.725000X0.600000X0.725000X-0.600000X0.725000X0*%
%ADD27O,1.700000X1.950000*%
%ADD28RoundRect,0.250000X0.725000X-0.600000X0.725000X0.600000X-0.725000X0.600000X-0.725000X-0.600000X0*%
%ADD29O,1.950000X1.700000*%
G04 APERTURE END LIST*
D10*
%TO.C,LED2*%
X79500000Y-78000000D03*
D11*
X82000000Y-78000000D03*
%TD*%
D10*
%TO.C,Switch*%
X118000000Y-82500000D03*
D11*
X120500000Y-82500000D03*
%TD*%
D12*
%TO.C,REF\u002A\u002A*%
X96700000Y-128750000D03*
X96700000Y-133250000D03*
D13*
X96700000Y-125150000D03*
X96700000Y-136850000D03*
%TD*%
D14*
%TO.C,Battery*%
X119500000Y-96500000D03*
D15*
X119500000Y-91500000D03*
%TD*%
D16*
%TO.C,USB A*%
X95010000Y-113500000D03*
D17*
X95010000Y-111000000D03*
X95010000Y-109000000D03*
X95010000Y-106500000D03*
D18*
X97720000Y-116570000D03*
X97720000Y-103430000D03*
%TD*%
D14*
%TO.C,Motor*%
X119467500Y-73750000D03*
D15*
X119467500Y-68750000D03*
%TD*%
D16*
%TO.C,Teensy4.1*%
X39760000Y-55880000D03*
D17*
X39760000Y-58420000D03*
X39760000Y-60960000D03*
X39760000Y-63500000D03*
X39760000Y-66040000D03*
X39760000Y-68580000D03*
X39760000Y-71120000D03*
X39760000Y-73660000D03*
X39760000Y-76200000D03*
X39760000Y-78740000D03*
X39760000Y-81280000D03*
X39760000Y-83820000D03*
X39760000Y-86360000D03*
X39760000Y-88900000D03*
X39760000Y-91440000D03*
X39760000Y-93980000D03*
X39760000Y-96520000D03*
X39760000Y-99060000D03*
X39760000Y-101600000D03*
X39760000Y-104140000D03*
X39760000Y-106680000D03*
X39760000Y-109220000D03*
X39760000Y-111760000D03*
X39760000Y-114300000D03*
X55000000Y-114300000D03*
X55000000Y-111760000D03*
X55000000Y-109220000D03*
X55000000Y-106680000D03*
X55000000Y-104140000D03*
X55000000Y-101600000D03*
X55000000Y-99060000D03*
X55000000Y-96520000D03*
X55000000Y-93980000D03*
X55000000Y-91440000D03*
X55000000Y-88900000D03*
X55000000Y-86360000D03*
X55000000Y-83820000D03*
X55000000Y-81280000D03*
X55000000Y-78740000D03*
X55000000Y-76200000D03*
X55000000Y-73660000D03*
X55000000Y-71120000D03*
X55000000Y-68580000D03*
X55000000Y-66040000D03*
X55000000Y-63500000D03*
X55000000Y-60960000D03*
X55000000Y-58420000D03*
X55000000Y-55880000D03*
X52460000Y-58420000D03*
X42300000Y-101600000D03*
X44840000Y-101600000D03*
X47380000Y-101600000D03*
X49920000Y-101600000D03*
X52460000Y-101600000D03*
D16*
X42810800Y-62179200D03*
D17*
X42810800Y-64719200D03*
X42810800Y-67259200D03*
X42810800Y-69799200D03*
X42810800Y-72339200D03*
D19*
X52561600Y-68850000D03*
D20*
X50561600Y-68850000D03*
X48561600Y-68850000D03*
X48561600Y-70850000D03*
X50561600Y-70850000D03*
X52561600Y-70850000D03*
%TD*%
D21*
%TO.C,Regulator*%
X121000000Y-61280000D03*
D22*
X121000000Y-43500000D03*
X80360000Y-43500000D03*
X80360000Y-61280000D03*
D23*
X115920000Y-60645000D03*
X85440000Y-44135000D03*
%TD*%
D10*
%TO.C,ESC*%
X66000000Y-61000000D03*
D11*
X68500000Y-61000000D03*
%TD*%
D10*
%TO.C,T_Switch*%
X66000000Y-88000000D03*
D11*
X68500000Y-88000000D03*
%TD*%
D24*
%TO.C,BAT1*%
X62500000Y-106000000D03*
D25*
X83300000Y-106000000D03*
%TD*%
D26*
%TO.C,Int2*%
X76500000Y-88000000D03*
D27*
X79000000Y-88000000D03*
X81500000Y-88000000D03*
%TD*%
D28*
%TO.C,Flow*%
X61000000Y-52000000D03*
D29*
X61000000Y-49500000D03*
X61000000Y-47000000D03*
%TD*%
D26*
%TO.C,Pressure*%
X66000000Y-70000000D03*
D27*
X68500000Y-70000000D03*
X71000000Y-70000000D03*
X73500000Y-70000000D03*
%TD*%
D28*
%TO.C,USB In*%
X70500000Y-53500000D03*
D29*
X70500000Y-51000000D03*
X70500000Y-48500000D03*
X70500000Y-46000000D03*
%TD*%
D10*
%TO.C,LED1*%
X66000000Y-78000000D03*
D11*
X68500000Y-78000000D03*
%TD*%
M02*
