G04 MADE WITH FRITZING*
G04 WWW.FRITZING.ORG*
G04 DOUBLE SIDED*
G04 HOLES PLATED*
G04 CONTOUR ON CENTER OF CONTOUR VECTOR*
%ASAXBY*%
%FSLAX23Y23*%
%MOIN*%
%OFA0B0*%
%SFA1.0B1.0*%
%ADD10C,0.085433*%
%ADD11C,0.090000*%
%ADD12C,0.049370*%
%ADD13C,0.093307*%
%ADD14C,0.135984*%
%ADD15R,0.090000X0.090000*%
%ADD16R,0.093307X0.093307*%
%LNMASK1*%
G90*
G70*
G54D10*
X1281Y1231D03*
X1281Y562D03*
X2817Y1231D03*
X2817Y562D03*
G54D11*
X3017Y1831D03*
X3217Y1831D03*
G54D12*
X2117Y2331D03*
G54D13*
X618Y2231D03*
X717Y2231D03*
X815Y2231D03*
X914Y2231D03*
X618Y2231D03*
X717Y2231D03*
X815Y2231D03*
X914Y2231D03*
X747Y1162D03*
X817Y1231D03*
X886Y1301D03*
X956Y1371D03*
X2415Y3331D03*
X2317Y3331D03*
X2218Y3331D03*
X1218Y1831D03*
X1317Y1831D03*
X1415Y1831D03*
X1514Y1831D03*
X3217Y2330D03*
X3217Y2231D03*
X1915Y1831D03*
X1817Y1831D03*
X1416Y3132D03*
X1317Y3132D03*
X1916Y3332D03*
X1817Y3332D03*
G54D12*
X1917Y3031D03*
G54D13*
X1417Y2531D03*
X1517Y2531D03*
X1617Y2531D03*
X1717Y2531D03*
X1817Y2531D03*
X1417Y2631D03*
X1517Y2631D03*
X1617Y2631D03*
X1717Y2631D03*
X1817Y2631D03*
X1417Y2531D03*
X1517Y2531D03*
X1617Y2531D03*
X1717Y2531D03*
X1817Y2531D03*
X1417Y2631D03*
X1517Y2631D03*
X1617Y2631D03*
X1717Y2631D03*
X1817Y2631D03*
G54D11*
X2717Y2831D03*
X2917Y2831D03*
X2717Y2831D03*
X2917Y2831D03*
G54D14*
X1968Y3830D03*
X3818Y1980D03*
X1968Y130D03*
X118Y1980D03*
G54D15*
X3017Y1831D03*
G54D16*
X1417Y2631D03*
X1417Y2631D03*
G54D15*
X2717Y2831D03*
X2717Y2831D03*
G04 End of Mask1*
M02*