G04 MADE WITH FRITZING*
G04 WWW.FRITZING.ORG*
G04 DOUBLE SIDED*
G04 HOLES PLATED*
G04 CONTOUR ON CENTER OF CONTOUR VECTOR*
%ASAXBY*%
%FSLAX23Y23*%
%MOIN*%
%OFA0B0*%
%SFA1.0B1.0*%
%ADD10C,0.099055*%
%ADD11C,0.283464*%
%ADD12C,0.992127*%
%ADD13R,0.099055X0.099055*%
%ADD14C,0.030000*%
%LNCOPPER1*%
G90*
G70*
G54D10*
X2036Y201D03*
X1936Y201D03*
G54D11*
X2680Y1572D03*
X1351Y1572D03*
G54D12*
X2670Y3053D03*
X2010Y1927D03*
X692Y1927D03*
X3329Y1966D03*
X1341Y3053D03*
X1351Y761D03*
X2670Y761D03*
G54D13*
X2036Y201D03*
G54D14*
X1282Y3074D02*
X913Y3205D01*
D02*
X287Y2207D02*
X640Y1962D01*
D02*
X302Y2647D02*
X287Y2207D01*
D02*
X610Y3099D02*
X302Y2647D01*
D02*
X913Y3205D02*
X610Y3099D01*
D02*
X3354Y891D02*
X3598Y1225D01*
D02*
X3099Y647D02*
X3354Y891D01*
D02*
X2731Y745D02*
X3099Y647D01*
D02*
X3609Y1618D02*
X3369Y1917D01*
D02*
X3598Y1225D02*
X3609Y1618D01*
D02*
X1889Y2706D02*
X1719Y2435D01*
D02*
X2080Y2966D02*
X1889Y2706D01*
D02*
X2309Y3077D02*
X2080Y2966D01*
D02*
X1778Y2138D02*
X1964Y1969D01*
D02*
X2607Y3057D02*
X2309Y3077D01*
D02*
X1719Y2435D02*
X1778Y2138D01*
D02*
X1937Y231D02*
X1948Y795D01*
D02*
X1857Y1167D02*
X1560Y1092D01*
D02*
X1948Y795D02*
X1857Y1167D01*
D02*
X1560Y1092D02*
X1385Y814D01*
D02*
X2038Y231D02*
X2070Y944D01*
D02*
X2388Y1358D02*
X2629Y1535D01*
D02*
X2123Y1167D02*
X2388Y1358D01*
D02*
X2070Y944D02*
X2123Y1167D01*
D02*
X1351Y1509D02*
X1351Y824D01*
G04 End of Copper1*
M02*