G04 MADE WITH FRITZING*
G04 WWW.FRITZING.ORG*
G04 DOUBLE SIDED*
G04 HOLES PLATED*
G04 CONTOUR ON CENTER OF CONTOUR VECTOR*
%ASAXBY*%
%FSLAX23Y23*%
%MOIN*%
%OFA0B0*%
%SFA1.0B1.0*%
%ADD10C,0.005000*%
%ADD10C,0.008*%
%LNCONTOUR*%
G90*
G70*
G54D10*
G54D10*
X1925Y3937D02*
X1926Y3937D01*
X1927Y3937D01*
X1928Y3937D01*
X1929Y3937D01*
X1930Y3937D01*
X1931Y3937D01*
X1932Y3937D01*
X1933Y3937D01*
X1934Y3937D01*
X1935Y3937D01*
X1936Y3937D01*
X1937Y3937D01*
X1938Y3937D01*
X1939Y3937D01*
X1940Y3937D01*
X1941Y3937D01*
X1942Y3937D01*
X1943Y3937D01*
X1944Y3937D01*
X1945Y3937D01*
X1946Y3937D01*
X1947Y3937D01*
X1948Y3937D01*
X1949Y3937D01*
X1950Y3937D01*
X1951Y3937D01*
X1952Y3937D01*
X1953Y3937D01*
X1954Y3937D01*
X1955Y3937D01*
X1956Y3937D01*
X1957Y3937D01*
X1958Y3937D01*
X1959Y3937D01*
X1960Y3937D01*
X1961Y3937D01*
X1962Y3937D01*
X1963Y3937D01*
X1964Y3937D01*
X1965Y3937D01*
X1966Y3937D01*
X1967Y3937D01*
X1968Y3937D01*
X1969Y3937D01*
X1970Y3937D01*
X1971Y3937D01*
X1972Y3937D01*
X1973Y3937D01*
X1974Y3937D01*
X1975Y3937D01*
X1976Y3937D01*
X1977Y3937D01*
X1978Y3937D01*
X1979Y3937D01*
X1980Y3937D01*
X1981Y3937D01*
X1982Y3937D01*
X1983Y3937D01*
X1984Y3937D01*
X1985Y3937D01*
X1986Y3937D01*
X1987Y3937D01*
X1988Y3937D01*
X1989Y3937D01*
X1990Y3937D01*
X1991Y3937D01*
X1992Y3937D01*
X1993Y3937D01*
X1994Y3937D01*
X1995Y3937D01*
X1996Y3937D01*
X1997Y3937D01*
X1998Y3937D01*
X1999Y3937D01*
X2000Y3937D01*
X2001Y3937D01*
X2002Y3937D01*
X2003Y3937D01*
X2004Y3937D01*
X2005Y3937D01*
X2006Y3937D01*
X2007Y3937D01*
X2008Y3937D01*
X2009Y3937D01*
X2010Y3937D01*
X2011Y3937D01*
X2012Y3936D01*
X2013Y3936D01*
X2014Y3936D01*
X2015Y3936D01*
X2016Y3936D01*
X2017Y3936D01*
X2018Y3936D01*
X2019Y3936D01*
X2020Y3936D01*
X2021Y3936D01*
X2022Y3936D01*
X2023Y3936D01*
X2024Y3936D01*
X2025Y3936D01*
X2026Y3936D01*
X2027Y3936D01*
X2028Y3936D01*
X2029Y3936D01*
X2030Y3936D01*
X2031Y3936D01*
X2032Y3936D01*
X2033Y3936D01*
X2034Y3936D01*
X2035Y3936D01*
X2036Y3936D01*
X2037Y3936D01*
X2038Y3936D01*
X2039Y3936D01*
X2040Y3936D01*
X2041Y3936D01*
X2042Y3936D01*
X2043Y3936D01*
X2044Y3936D01*
X2045Y3936D01*
X2046Y3935D01*
X2047Y3935D01*
X2048Y3935D01*
X2049Y3935D01*
X2050Y3935D01*
X2051Y3935D01*
X2052Y3935D01*
X2053Y3935D01*
X2054Y3935D01*
X2055Y3935D01*
X2056Y3935D01*
X2057Y3935D01*
X2058Y3935D01*
X2059Y3935D01*
X2060Y3935D01*
X2061Y3935D01*
X2062Y3935D01*
X2063Y3935D01*
X2064Y3935D01*
X2065Y3935D01*
X2066Y3935D01*
X2067Y3935D01*
X2068Y3934D01*
X2069Y3934D01*
X2070Y3934D01*
X2071Y3934D01*
X2072Y3934D01*
X2073Y3934D01*
X2074Y3934D01*
X2075Y3934D01*
X2076Y3934D01*
X2077Y3934D01*
X2078Y3934D01*
X2079Y3934D01*
X2080Y3934D01*
X2081Y3934D01*
X2082Y3934D01*
X2083Y3934D01*
X2084Y3934D01*
X2085Y3934D01*
X2086Y3933D01*
X2087Y3933D01*
X2088Y3933D01*
X2089Y3933D01*
X2090Y3933D01*
X2091Y3933D01*
X2092Y3933D01*
X2093Y3933D01*
X2094Y3933D01*
X2095Y3933D01*
X2096Y3933D01*
X2097Y3933D01*
X2098Y3933D01*
X2099Y3933D01*
X2100Y3933D01*
X2101Y3933D01*
X2102Y3932D01*
X2103Y3932D01*
X2104Y3932D01*
X2105Y3932D01*
X2106Y3932D01*
X2107Y3932D01*
X2108Y3932D01*
X2109Y3932D01*
X2110Y3932D01*
X2111Y3932D01*
X2112Y3932D01*
X2113Y3932D01*
X2114Y3932D01*
X2115Y3932D01*
X2116Y3931D01*
X2117Y3931D01*
X2118Y3931D01*
X2119Y3931D01*
X2120Y3931D01*
X2121Y3931D01*
X2122Y3931D01*
X2123Y3931D01*
X2124Y3931D01*
X2125Y3931D01*
X2126Y3931D01*
X2127Y3931D01*
X2128Y3931D01*
X2129Y3930D01*
X2130Y3930D01*
X2131Y3930D01*
X2132Y3930D01*
X2133Y3930D01*
X2134Y3930D01*
X2135Y3930D01*
X2136Y3930D01*
X2137Y3930D01*
X2138Y3930D01*
X2139Y3930D01*
X2140Y3930D01*
X2141Y3929D01*
X2142Y3929D01*
X2143Y3929D01*
X2144Y3929D01*
X2145Y3929D01*
X2146Y3929D01*
X2147Y3929D01*
X2148Y3929D01*
X2149Y3929D01*
X2150Y3929D01*
X2151Y3929D01*
X2152Y3928D01*
X2153Y3928D01*
X2154Y3928D01*
X2155Y3928D01*
X2156Y3928D01*
X2157Y3928D01*
X2158Y3928D01*
X2159Y3928D01*
X2160Y3928D01*
X2161Y3928D01*
X2162Y3928D01*
X2163Y3927D01*
X2164Y3927D01*
X2165Y3927D01*
X2166Y3927D01*
X2167Y3927D01*
X2168Y3927D01*
X2169Y3927D01*
X2170Y3927D01*
X2171Y3927D01*
X2172Y3927D01*
X2173Y3926D01*
X2174Y3926D01*
X2175Y3926D01*
X2176Y3926D01*
X2177Y3926D01*
X2178Y3926D01*
X2179Y3926D01*
X2180Y3926D01*
X2181Y3926D01*
X2182Y3925D01*
X2183Y3925D01*
X2184Y3925D01*
X2185Y3925D01*
X2186Y3925D01*
X2187Y3925D01*
X2188Y3925D01*
X2189Y3925D01*
X2190Y3925D01*
X2191Y3924D01*
X2192Y3924D01*
X2193Y3924D01*
X2194Y3924D01*
X2195Y3924D01*
X2196Y3924D01*
X2197Y3924D01*
X2198Y3924D01*
X2199Y3924D01*
X2200Y3923D01*
X2201Y3923D01*
X2202Y3923D01*
X2203Y3923D01*
X2204Y3923D01*
X2205Y3923D01*
X2206Y3923D01*
X2207Y3923D01*
X2208Y3922D01*
X2209Y3922D01*
X2210Y3922D01*
X2211Y3922D01*
X2212Y3922D01*
X2213Y3922D01*
X2214Y3922D01*
X2215Y3922D01*
X2216Y3921D01*
X2217Y3921D01*
X2218Y3921D01*
X2219Y3921D01*
X2220Y3921D01*
X2221Y3921D01*
X2222Y3921D01*
X2223Y3921D01*
X2224Y3920D01*
X2225Y3920D01*
X2226Y3920D01*
X2227Y3920D01*
X2228Y3920D01*
X2229Y3920D01*
X2230Y3920D01*
X2231Y3920D01*
X2232Y3919D01*
X2233Y3919D01*
X2234Y3919D01*
X2235Y3919D01*
X2236Y3919D01*
X2237Y3919D01*
X2238Y3919D01*
X2239Y3918D01*
X2240Y3918D01*
X2241Y3918D01*
X2242Y3918D01*
X2243Y3918D01*
X2244Y3918D01*
X2245Y3918D01*
X2246Y3917D01*
X2247Y3917D01*
X2248Y3917D01*
X2249Y3917D01*
X2250Y3917D01*
X2251Y3917D01*
X2252Y3917D01*
X2253Y3916D01*
X2254Y3916D01*
X2255Y3916D01*
X2256Y3916D01*
X2257Y3916D01*
X2258Y3916D01*
X2259Y3916D01*
X2260Y3915D01*
X2261Y3915D01*
X2262Y3915D01*
X2263Y3915D01*
X2264Y3915D01*
X2265Y3915D01*
X2266Y3915D01*
X2267Y3914D01*
X2268Y3914D01*
X2269Y3914D01*
X2270Y3914D01*
X2271Y3914D01*
X2272Y3914D01*
X2273Y3913D01*
X2274Y3913D01*
X2275Y3913D01*
X2276Y3913D01*
X2277Y3913D01*
X2278Y3913D01*
X2279Y3913D01*
X2280Y3912D01*
X2281Y3912D01*
X2282Y3912D01*
X2283Y3912D01*
X2284Y3912D01*
X2285Y3912D01*
X2286Y3911D01*
X2287Y3911D01*
X2288Y3911D01*
X2289Y3911D01*
X2290Y3911D01*
X2291Y3911D01*
X2292Y3910D01*
X2293Y3910D01*
X2294Y3910D01*
X2295Y3910D01*
X2296Y3910D01*
X2297Y3910D01*
X2298Y3909D01*
X2299Y3909D01*
X2300Y3909D01*
X2301Y3909D01*
X2302Y3909D01*
X2303Y3909D01*
X2304Y3908D01*
X2305Y3908D01*
X2306Y3908D01*
X2307Y3908D01*
X2308Y3908D01*
X2309Y3908D01*
X2310Y3907D01*
X2311Y3907D01*
X2312Y3907D01*
X2313Y3907D01*
X2314Y3907D01*
X2315Y3906D01*
X2316Y3906D01*
X2317Y3906D01*
X2318Y3906D01*
X2319Y3906D01*
X2320Y3906D01*
X2321Y3905D01*
X2322Y3905D01*
X2323Y3905D01*
X2324Y3905D01*
X2325Y3905D01*
X2326Y3904D01*
X2327Y3904D01*
X2328Y3904D01*
X2329Y3904D01*
X2330Y3904D01*
X2331Y3904D01*
X2332Y3903D01*
X2333Y3903D01*
X2334Y3903D01*
X2335Y3903D01*
X2336Y3903D01*
X2337Y3902D01*
X2338Y3902D01*
X2339Y3902D01*
X2340Y3902D01*
X2341Y3902D01*
X2342Y3901D01*
X2343Y3901D01*
X2344Y3901D01*
X2345Y3901D01*
X2346Y3901D01*
X2347Y3900D01*
X2348Y3900D01*
X2349Y3900D01*
X2350Y3900D01*
X2351Y3900D01*
X2352Y3899D01*
X2353Y3899D01*
X2354Y3899D01*
X2355Y3899D01*
X2356Y3899D01*
X2357Y3899D01*
X2358Y3898D01*
X2359Y3898D01*
X2360Y3898D01*
X2361Y3898D01*
X2362Y3898D01*
X2363Y3897D01*
X2364Y3897D01*
X2365Y3897D01*
X2366Y3897D01*
X2367Y3896D01*
X2368Y3896D01*
X2369Y3896D01*
X2370Y3896D01*
X2371Y3896D01*
X2372Y3895D01*
X2373Y3895D01*
X2374Y3895D01*
X2375Y3895D01*
X2376Y3895D01*
X2377Y3894D01*
X2378Y3894D01*
X2379Y3894D01*
X2380Y3894D01*
X2381Y3894D01*
X2382Y3893D01*
X2383Y3893D01*
X2384Y3893D01*
X2385Y3893D01*
X2386Y3892D01*
X2387Y3892D01*
X2388Y3892D01*
X2389Y3892D01*
X2390Y3892D01*
X2391Y3891D01*
X2392Y3891D01*
X2393Y3891D01*
X2394Y3891D01*
X2395Y3890D01*
X2396Y3890D01*
X2397Y3890D01*
X2398Y3890D01*
X2399Y3890D01*
X2400Y3889D01*
X2401Y3889D01*
X2402Y3889D01*
X2403Y3889D01*
X2404Y3888D01*
X2405Y3888D01*
X2406Y3888D01*
X2407Y3888D01*
X2408Y3888D01*
X2409Y3887D01*
X2410Y3887D01*
X2411Y3887D01*
X2412Y3887D01*
X2413Y3886D01*
X2414Y3886D01*
X2415Y3886D01*
X2416Y3886D01*
X2417Y3885D01*
X2418Y3885D01*
X2419Y3885D01*
X2420Y3885D01*
X2421Y3885D01*
X2422Y3884D01*
X2423Y3884D01*
X2424Y3884D01*
X2425Y3884D01*
X2426Y3883D01*
X2427Y3883D01*
X2428Y3883D01*
X2429Y3883D01*
X2430Y3882D01*
X2431Y3882D01*
X2432Y3882D01*
X2433Y3882D01*
X2434Y3881D01*
X2435Y3881D01*
X2436Y3881D01*
X2437Y3881D01*
X2438Y3880D01*
X2439Y3880D01*
X2440Y3880D01*
X2441Y3880D01*
X2442Y3879D01*
X2443Y3879D01*
X2444Y3879D01*
X2445Y3879D01*
X2446Y3878D01*
X2447Y3878D01*
X2448Y3878D01*
X2449Y3878D01*
X2450Y3877D01*
X2451Y3877D01*
X2452Y3877D01*
X2453Y3877D01*
X2454Y3876D01*
X2455Y3876D01*
X2456Y3876D01*
X2457Y3876D01*
X2458Y3875D01*
X2459Y3875D01*
X2460Y3875D01*
X2461Y3875D01*
X2462Y3874D01*
X2463Y3874D01*
X2464Y3874D01*
X2465Y3874D01*
X2466Y3873D01*
X2467Y3873D01*
X2468Y3873D01*
X2469Y3873D01*
X2470Y3872D01*
X2471Y3872D01*
X2472Y3872D01*
X2473Y3872D01*
X2474Y3871D01*
X2475Y3871D01*
X2476Y3871D01*
X2477Y3870D01*
X2478Y3870D01*
X2479Y3870D01*
X2480Y3870D01*
X2481Y3869D01*
X2482Y3869D01*
X2483Y3869D01*
X2484Y3869D01*
X2485Y3868D01*
X2486Y3868D01*
X2487Y3868D01*
X2488Y3868D01*
X2489Y3867D01*
X2490Y3867D01*
X2491Y3867D01*
X2492Y3866D01*
X2493Y3866D01*
X2494Y3866D01*
X2495Y3866D01*
X2496Y3865D01*
X2497Y3865D01*
X2498Y3865D01*
X2499Y3864D01*
X2500Y3864D01*
X2501Y3864D01*
X2502Y3864D01*
X2503Y3863D01*
X2504Y3863D01*
X2505Y3863D01*
X2506Y3863D01*
X2507Y3862D01*
X2508Y3862D01*
X2509Y3862D01*
X2510Y3861D01*
X2511Y3861D01*
X2512Y3861D01*
X2513Y3860D01*
X2514Y3860D01*
X2515Y3860D01*
X2516Y3860D01*
X2517Y3859D01*
X2518Y3859D01*
X2519Y3859D01*
X2520Y3858D01*
X2521Y3858D01*
X2522Y3858D01*
X2523Y3858D01*
X2524Y3857D01*
X2525Y3857D01*
X2526Y3857D01*
X2527Y3856D01*
X2528Y3856D01*
X2529Y3856D01*
X2530Y3856D01*
X2531Y3855D01*
X2532Y3855D01*
X2533Y3855D01*
X2534Y3854D01*
X2535Y3854D01*
X2536Y3854D01*
X2537Y3853D01*
X2538Y3853D01*
X2539Y3853D01*
X2540Y3853D01*
X2541Y3852D01*
X2542Y3852D01*
X2543Y3852D01*
X2544Y3851D01*
X2545Y3851D01*
X2546Y3851D01*
X2547Y3850D01*
X2548Y3850D01*
X2549Y3850D01*
X2550Y3849D01*
X2551Y3849D01*
X2552Y3849D01*
X2553Y3849D01*
X2554Y3848D01*
X2555Y3848D01*
X2556Y3848D01*
X2557Y3847D01*
X2558Y3847D01*
X2559Y3847D01*
X2560Y3846D01*
X2561Y3846D01*
X2562Y3846D01*
X2563Y3845D01*
X2564Y3845D01*
X2565Y3845D01*
X2566Y3844D01*
X2567Y3844D01*
X2568Y3844D01*
X2569Y3843D01*
X2570Y3843D01*
X2571Y3843D01*
X2572Y3843D01*
X2573Y3842D01*
X2574Y3842D01*
X2575Y3842D01*
X2576Y3841D01*
X2577Y3841D01*
X2578Y3841D01*
X2579Y3840D01*
X2580Y3840D01*
X2581Y3840D01*
X2582Y3839D01*
X2583Y3839D01*
X2584Y3839D01*
X2585Y3838D01*
X2586Y3838D01*
X2587Y3838D01*
X2588Y3837D01*
X2589Y3837D01*
X2590Y3837D01*
X2591Y3836D01*
X2592Y3836D01*
X2593Y3836D01*
X2594Y3835D01*
X2595Y3835D01*
X2596Y3835D01*
X2597Y3834D01*
X2598Y3834D01*
X2599Y3834D01*
X2600Y3833D01*
X2601Y3833D01*
X2602Y3833D01*
X2603Y3832D01*
X2604Y3832D01*
X2605Y3832D01*
X2606Y3831D01*
X2607Y3831D01*
X2608Y3831D01*
X2609Y3830D01*
X2610Y3830D01*
X2611Y3829D01*
X2612Y3829D01*
X2613Y3829D01*
X2614Y3828D01*
X2615Y3828D01*
X2616Y3828D01*
X2617Y3827D01*
X2618Y3827D01*
X2619Y3827D01*
X2620Y3826D01*
X2621Y3826D01*
X2622Y3826D01*
X2623Y3825D01*
X2624Y3825D01*
X2625Y3825D01*
X2626Y3824D01*
X2627Y3824D01*
X2628Y3824D01*
X2629Y3823D01*
X2630Y3823D01*
X2631Y3822D01*
X2632Y3822D01*
X2633Y3822D01*
X2634Y3821D01*
X2635Y3821D01*
X2636Y3821D01*
X2637Y3820D01*
X2638Y3820D01*
X2639Y3820D01*
X2640Y3819D01*
X2641Y3819D01*
X2642Y3818D01*
X2643Y3818D01*
X2644Y3818D01*
X2645Y3817D01*
X2646Y3817D01*
X2647Y3817D01*
X2648Y3816D01*
X2649Y3816D01*
X2650Y3816D01*
X2651Y3815D01*
X2652Y3815D01*
X2653Y3814D01*
X2654Y3814D01*
X2655Y3814D01*
X2656Y3813D01*
X2657Y3813D01*
X2658Y3813D01*
X2659Y3812D01*
X2660Y3812D01*
X2661Y3811D01*
X2662Y3811D01*
X2663Y3811D01*
X2664Y3810D01*
X2665Y3810D01*
X2666Y3810D01*
X2667Y3809D01*
X2668Y3809D01*
X2669Y3808D01*
X2670Y3808D01*
X2671Y3808D01*
X2672Y3807D01*
X2673Y3807D01*
X2674Y3807D01*
X2675Y3806D01*
X2676Y3806D01*
X2677Y3805D01*
X2678Y3805D01*
X2679Y3805D01*
X2680Y3804D01*
X2681Y3804D01*
X2682Y3803D01*
X2683Y3803D01*
X2684Y3803D01*
X2685Y3802D01*
X2686Y3802D01*
X2687Y3801D01*
X2688Y3801D01*
X2689Y3801D01*
X2690Y3800D01*
X2691Y3800D01*
X2692Y3799D01*
X2693Y3799D01*
X2694Y3799D01*
X2695Y3798D01*
X2696Y3798D01*
X2697Y3797D01*
X2698Y3797D01*
X2699Y3797D01*
X2700Y3796D01*
X2701Y3796D01*
X2702Y3795D01*
X2703Y3795D01*
X2704Y3795D01*
X2705Y3794D01*
X2706Y3794D01*
X2707Y3793D01*
X2708Y3793D01*
X2709Y3793D01*
X2710Y3792D01*
X2711Y3792D01*
X2712Y3791D01*
X2713Y3791D01*
X2714Y3791D01*
X2715Y3790D01*
X2716Y3790D01*
X2717Y3789D01*
X2718Y3789D01*
X2719Y3789D01*
X2720Y3788D01*
X2721Y3788D01*
X2722Y3787D01*
X2723Y3787D01*
X2724Y3786D01*
X2725Y3786D01*
X2726Y3786D01*
X2727Y3785D01*
X2728Y3785D01*
X2729Y3784D01*
X2730Y3784D01*
X2731Y3784D01*
X2732Y3783D01*
X2733Y3783D01*
X2734Y3782D01*
X2735Y3782D01*
X2736Y3781D01*
X2737Y3781D01*
X2738Y3781D01*
X2739Y3780D01*
X2740Y3780D01*
X2741Y3779D01*
X2742Y3779D01*
X2743Y3778D01*
X2744Y3778D01*
X2745Y3778D01*
X2746Y3777D01*
X2747Y3777D01*
X2748Y3776D01*
X2749Y3776D01*
X2750Y3775D01*
X2751Y3775D01*
X2752Y3775D01*
X2753Y3774D01*
X2754Y3774D01*
X2755Y3773D01*
X2756Y3773D01*
X2757Y3772D01*
X2758Y3772D01*
X2759Y3772D01*
X2760Y3771D01*
X2761Y3771D01*
X2762Y3770D01*
X2763Y3770D01*
X2764Y3769D01*
X2765Y3769D01*
X2766Y3768D01*
X2767Y3768D01*
X2768Y3768D01*
X2769Y3767D01*
X2770Y3767D01*
X2771Y3766D01*
X2772Y3766D01*
X2773Y3765D01*
X2774Y3765D01*
X2775Y3764D01*
X2776Y3764D01*
X2777Y3764D01*
X2778Y3763D01*
X2779Y3763D01*
X2780Y3762D01*
X2781Y3762D01*
X2782Y3761D01*
X2783Y3761D01*
X2784Y3760D01*
X2785Y3760D01*
X2786Y3759D01*
X2787Y3759D01*
X2788Y3758D01*
X2789Y3758D01*
X2790Y3758D01*
X2791Y3757D01*
X2792Y3757D01*
X2793Y3756D01*
X2794Y3756D01*
X2795Y3755D01*
X2796Y3755D01*
X2797Y3754D01*
X2798Y3754D01*
X2799Y3753D01*
X2800Y3753D01*
X2801Y3752D01*
X2802Y3752D01*
X2803Y3752D01*
X2804Y3751D01*
X2805Y3751D01*
X2806Y3750D01*
X2807Y3750D01*
X2808Y3749D01*
X2809Y3749D01*
X2810Y3748D01*
X2811Y3748D01*
X2812Y3747D01*
X2813Y3747D01*
X2814Y3746D01*
X2815Y3746D01*
X2816Y3745D01*
X2817Y3745D01*
X2818Y3744D01*
X2819Y3744D01*
X2820Y3743D01*
X2821Y3743D01*
X2822Y3743D01*
X2823Y3742D01*
X2824Y3742D01*
X2825Y3741D01*
X2826Y3741D01*
X2827Y3740D01*
X2828Y3740D01*
X2829Y3739D01*
X2830Y3739D01*
X2831Y3738D01*
X2832Y3738D01*
X2833Y3737D01*
X2834Y3737D01*
X2835Y3736D01*
X2836Y3736D01*
X2837Y3735D01*
X2838Y3735D01*
X2839Y3734D01*
X2840Y3734D01*
X2841Y3733D01*
X2842Y3733D01*
X2843Y3732D01*
X2844Y3732D01*
X2845Y3731D01*
X2846Y3731D01*
X2847Y3730D01*
X2848Y3730D01*
X2849Y3729D01*
X2850Y3729D01*
X2851Y3728D01*
X2852Y3728D01*
X2853Y3727D01*
X2854Y3727D01*
X2855Y3726D01*
X2856Y3726D01*
X2857Y3725D01*
X2858Y3725D01*
X2859Y3724D01*
X2860Y3724D01*
X2861Y3723D01*
X2862Y3723D01*
X2863Y3722D01*
X2864Y3722D01*
X2865Y3721D01*
X2866Y3721D01*
X2867Y3720D01*
X2868Y3720D01*
X2869Y3719D01*
X2870Y3719D01*
X2871Y3718D01*
X2872Y3717D01*
X2873Y3717D01*
X2874Y3716D01*
X2875Y3716D01*
X2876Y3715D01*
X2877Y3715D01*
X2878Y3714D01*
X2879Y3714D01*
X2880Y3713D01*
X2881Y3713D01*
X2882Y3712D01*
X2883Y3712D01*
X2884Y3711D01*
X2885Y3711D01*
X2886Y3710D01*
X2887Y3710D01*
X2888Y3709D01*
X2889Y3709D01*
X2890Y3708D01*
X2891Y3708D01*
X2892Y3707D01*
X2893Y3706D01*
X2894Y3706D01*
X2895Y3705D01*
X2896Y3705D01*
X2897Y3704D01*
X2898Y3704D01*
X2899Y3703D01*
X2900Y3703D01*
X2901Y3702D01*
X2902Y3702D01*
X2903Y3701D01*
X2904Y3701D01*
X2905Y3700D01*
X2906Y3700D01*
X2907Y3699D01*
X2908Y3698D01*
X2909Y3698D01*
X2910Y3697D01*
X2911Y3697D01*
X2912Y3696D01*
X2913Y3696D01*
X2914Y3695D01*
X2915Y3695D01*
X2916Y3694D01*
X2917Y3693D01*
X2918Y3693D01*
X2919Y3692D01*
X2920Y3692D01*
X2921Y3691D01*
X2922Y3691D01*
X2923Y3690D01*
X2924Y3690D01*
X2925Y3689D01*
X2926Y3688D01*
X2927Y3688D01*
X2928Y3687D01*
X2929Y3687D01*
X2930Y3686D01*
X2931Y3686D01*
X2932Y3685D01*
X2933Y3685D01*
X2934Y3684D01*
X2935Y3683D01*
X2936Y3683D01*
X2937Y3682D01*
X2938Y3682D01*
X2939Y3681D01*
X2940Y3681D01*
X2941Y3680D01*
X2942Y3679D01*
X2943Y3679D01*
X2944Y3678D01*
X2945Y3678D01*
X2946Y3677D01*
X2947Y3677D01*
X2948Y3676D01*
X2949Y3675D01*
X2950Y3675D01*
X2951Y3674D01*
X2952Y3674D01*
X2953Y3673D01*
X2954Y3673D01*
X2955Y3672D01*
X2956Y3671D01*
X2957Y3671D01*
X2958Y3670D01*
X2959Y3670D01*
X2960Y3669D01*
X2961Y3668D01*
X2962Y3668D01*
X2963Y3667D01*
X2964Y3667D01*
X2965Y3666D01*
X2966Y3666D01*
X2967Y3665D01*
X2968Y3664D01*
X2969Y3664D01*
X2970Y3663D01*
X2971Y3663D01*
X2972Y3662D01*
X2973Y3661D01*
X2974Y3661D01*
X2975Y3660D01*
X2976Y3660D01*
X2977Y3659D01*
X2978Y3658D01*
X2979Y3658D01*
X2980Y3657D01*
X2981Y3657D01*
X2982Y3656D01*
X2983Y3655D01*
X2984Y3655D01*
X2985Y3654D01*
X2986Y3654D01*
X2987Y3653D01*
X2988Y3652D01*
X2989Y3652D01*
X2990Y3651D01*
X2991Y3651D01*
X2992Y3650D01*
X2993Y3649D01*
X2994Y3649D01*
X2995Y3648D01*
X2996Y3647D01*
X2997Y3647D01*
X2998Y3646D01*
X2999Y3646D01*
X3000Y3645D01*
X3001Y3644D01*
X3002Y3644D01*
X3003Y3643D01*
X3004Y3643D01*
X3005Y3642D01*
X3006Y3641D01*
X3007Y3641D01*
X3008Y3640D01*
X3009Y3639D01*
X3010Y3639D01*
X3011Y3638D01*
X3012Y3638D01*
X3013Y3637D01*
X3014Y3636D01*
X3015Y3636D01*
X3016Y3635D01*
X3017Y3634D01*
X3018Y3634D01*
X3019Y3633D01*
X3020Y3633D01*
X3021Y3632D01*
X3022Y3631D01*
X3023Y3631D01*
X3024Y3630D01*
X3025Y3629D01*
X3026Y3629D01*
X3027Y3628D01*
X3028Y3627D01*
X3029Y3627D01*
X3030Y3626D01*
X3031Y3626D01*
X3032Y3625D01*
X3033Y3624D01*
X3034Y3624D01*
X3035Y3623D01*
X3036Y3622D01*
X3037Y3622D01*
X3038Y3621D01*
X3039Y3620D01*
X3040Y3620D01*
X3041Y3619D01*
X3042Y3618D01*
X3043Y3618D01*
X3044Y3617D01*
X3045Y3616D01*
X3046Y3616D01*
X3047Y3615D01*
X3048Y3614D01*
X3049Y3614D01*
X3050Y3613D01*
X3051Y3612D01*
X3052Y3612D01*
X3053Y3611D01*
X3054Y3610D01*
X3055Y3610D01*
X3056Y3609D01*
X3057Y3608D01*
X3058Y3608D01*
X3059Y3607D01*
X3060Y3606D01*
X3061Y3606D01*
X3062Y3605D01*
X3063Y3604D01*
X3064Y3604D01*
X3065Y3603D01*
X3066Y3602D01*
X3067Y3602D01*
X3068Y3601D01*
X3069Y3600D01*
X3070Y3600D01*
X3071Y3599D01*
X3072Y3598D01*
X3073Y3598D01*
X3074Y3597D01*
X3075Y3596D01*
X3076Y3596D01*
X3077Y3595D01*
X3078Y3594D01*
X3079Y3594D01*
X3080Y3593D01*
X3081Y3592D01*
X3082Y3592D01*
X3083Y3591D01*
X3084Y3590D01*
X3085Y3590D01*
X3086Y3589D01*
X3087Y3588D01*
X3088Y3587D01*
X3089Y3587D01*
X3090Y3586D01*
X3091Y3585D01*
X3092Y3585D01*
X3093Y3584D01*
X3094Y3583D01*
X3095Y3583D01*
X3096Y3582D01*
X3097Y3581D01*
X3098Y3580D01*
X3099Y3580D01*
X3100Y3579D01*
X3101Y3578D01*
X3102Y3578D01*
X3103Y3577D01*
X3104Y3576D01*
X3105Y3576D01*
X3106Y3575D01*
X3107Y3574D01*
X3108Y3573D01*
X3109Y3573D01*
X3110Y3572D01*
X3111Y3571D01*
X3112Y3571D01*
X3113Y3570D01*
X3114Y3569D01*
X3115Y3568D01*
X3116Y3568D01*
X3117Y3567D01*
X3118Y3566D01*
X3119Y3566D01*
X3120Y3565D01*
X3121Y3564D01*
X3122Y3563D01*
X3123Y3563D01*
X3124Y3562D01*
X3125Y3561D01*
X3126Y3560D01*
X3127Y3560D01*
X3128Y3559D01*
X3129Y3558D01*
X3130Y3558D01*
X3131Y3557D01*
X3132Y3556D01*
X3133Y3555D01*
X3134Y3555D01*
X3135Y3554D01*
X3136Y3553D01*
X3137Y3552D01*
X3138Y3552D01*
X3139Y3551D01*
X3140Y3550D01*
X3141Y3549D01*
X3142Y3549D01*
X3143Y3548D01*
X3144Y3547D01*
X3145Y3546D01*
X3146Y3546D01*
X3147Y3545D01*
X3148Y3544D01*
X3149Y3543D01*
X3150Y3543D01*
X3151Y3542D01*
X3152Y3541D01*
X3153Y3540D01*
X3154Y3540D01*
X3155Y3539D01*
X3156Y3538D01*
X3157Y3537D01*
X3158Y3537D01*
X3159Y3536D01*
X3160Y3535D01*
X3161Y3534D01*
X3162Y3534D01*
X3163Y3533D01*
X3164Y3532D01*
X3165Y3531D01*
X3166Y3531D01*
X3167Y3530D01*
X3168Y3529D01*
X3169Y3528D01*
X3170Y3527D01*
X3171Y3527D01*
X3172Y3526D01*
X3173Y3525D01*
X3174Y3524D01*
X3175Y3524D01*
X3176Y3523D01*
X3177Y3522D01*
X3178Y3521D01*
X3179Y3520D01*
X3180Y3520D01*
X3181Y3519D01*
X3182Y3518D01*
X3183Y3517D01*
X3184Y3517D01*
X3185Y3516D01*
X3186Y3515D01*
X3187Y3514D01*
X3188Y3513D01*
X3189Y3513D01*
X3190Y3512D01*
X3191Y3511D01*
X3192Y3510D01*
X3193Y3509D01*
X3194Y3509D01*
X3195Y3508D01*
X3196Y3507D01*
X3197Y3506D01*
X3198Y3505D01*
X3199Y3505D01*
X3200Y3504D01*
X3201Y3503D01*
X3202Y3502D01*
X3203Y3501D01*
X3204Y3501D01*
X3205Y3500D01*
X3206Y3499D01*
X3207Y3498D01*
X3208Y3497D01*
X3209Y3497D01*
X3210Y3496D01*
X3211Y3495D01*
X3212Y3494D01*
X3213Y3493D01*
X3214Y3492D01*
X3215Y3492D01*
X3216Y3491D01*
X3217Y3490D01*
X3218Y3489D01*
X3219Y3488D01*
X3220Y3488D01*
X3221Y3487D01*
X3222Y3486D01*
X3223Y3485D01*
X3224Y3484D01*
X3225Y3483D01*
X3226Y3483D01*
X3227Y3482D01*
X3228Y3481D01*
X3229Y3480D01*
X3230Y3479D01*
X3231Y3478D01*
X3232Y3478D01*
X3233Y3477D01*
X3234Y3476D01*
X3235Y3475D01*
X3236Y3474D01*
X3237Y3473D01*
X3238Y3473D01*
X3239Y3472D01*
X3240Y3471D01*
X3241Y3470D01*
X3242Y3469D01*
X3243Y3468D01*
X3244Y3467D01*
X3245Y3467D01*
X3246Y3466D01*
X3247Y3465D01*
X3248Y3464D01*
X3249Y3463D01*
X3250Y3462D01*
X3251Y3461D01*
X3252Y3461D01*
X3253Y3460D01*
X3254Y3459D01*
X3255Y3458D01*
X3256Y3457D01*
X3257Y3456D01*
X3258Y3455D01*
X3259Y3455D01*
X3260Y3454D01*
X3261Y3453D01*
X3262Y3452D01*
X3263Y3451D01*
X3264Y3450D01*
X3265Y3449D01*
X3266Y3448D01*
X3267Y3448D01*
X3268Y3447D01*
X3269Y3446D01*
X3270Y3445D01*
X3271Y3444D01*
X3272Y3443D01*
X3273Y3442D01*
X3274Y3441D01*
X3275Y3440D01*
X3276Y3440D01*
X3277Y3439D01*
X3278Y3438D01*
X3279Y3437D01*
X3280Y3436D01*
X3281Y3435D01*
X3282Y3434D01*
X3283Y3433D01*
X3284Y3432D01*
X3285Y3432D01*
X3286Y3431D01*
X3287Y3430D01*
X3288Y3429D01*
X3289Y3428D01*
X3290Y3427D01*
X3291Y3426D01*
X3292Y3425D01*
X3293Y3424D01*
X3294Y3423D01*
X3295Y3422D01*
X3296Y3422D01*
X3297Y3421D01*
X3298Y3420D01*
X3299Y3419D01*
X3300Y3418D01*
X3301Y3417D01*
X3302Y3416D01*
X3303Y3415D01*
X3304Y3414D01*
X3305Y3413D01*
X3306Y3412D01*
X3307Y3411D01*
X3308Y3411D01*
X3309Y3410D01*
X3310Y3409D01*
X3311Y3408D01*
X3312Y3407D01*
X3313Y3406D01*
X3314Y3405D01*
X3315Y3404D01*
X3316Y3403D01*
X3317Y3402D01*
X3318Y3401D01*
X3319Y3400D01*
X3320Y3399D01*
X3321Y3398D01*
X3322Y3397D01*
X3323Y3396D01*
X3324Y3395D01*
X3325Y3395D01*
X3326Y3394D01*
X3327Y3393D01*
X3328Y3392D01*
X3329Y3391D01*
X3330Y3390D01*
X3331Y3389D01*
X3332Y3388D01*
X3333Y3387D01*
X3334Y3386D01*
X3335Y3385D01*
X3336Y3384D01*
X3337Y3383D01*
X3338Y3382D01*
X3339Y3381D01*
X3340Y3380D01*
X3341Y3379D01*
X3342Y3378D01*
X3343Y3377D01*
X3344Y3376D01*
X3345Y3375D01*
X3346Y3374D01*
X3347Y3373D01*
X3348Y3372D01*
X3349Y3371D01*
X3350Y3370D01*
X3351Y3369D01*
X3352Y3368D01*
X3353Y3367D01*
X3354Y3366D01*
X3355Y3365D01*
X3356Y3364D01*
X3357Y3363D01*
X3358Y3362D01*
X3359Y3361D01*
X3360Y3360D01*
X3361Y3359D01*
X3362Y3358D01*
X3363Y3357D01*
X3364Y3356D01*
X3365Y3355D01*
X3366Y3354D01*
X3367Y3353D01*
X3368Y3352D01*
X3369Y3351D01*
X3370Y3350D01*
X3371Y3349D01*
X3372Y3348D01*
X3373Y3347D01*
X3374Y3346D01*
X3375Y3345D01*
X3376Y3344D01*
X3377Y3343D01*
X3378Y3342D01*
X3379Y3341D01*
X3380Y3340D01*
X3381Y3339D01*
X3382Y3338D01*
X3383Y3337D01*
X3384Y3336D01*
X3385Y3335D01*
X3386Y3334D01*
X3387Y3333D01*
X3388Y3332D01*
X3389Y3331D01*
X3390Y3330D01*
X3391Y3329D01*
X3392Y3328D01*
X3393Y3327D01*
X3394Y3326D01*
X3394Y3325D01*
X3395Y3324D01*
X3396Y3323D01*
X3397Y3322D01*
X3398Y3321D01*
X3399Y3320D01*
X3400Y3319D01*
X3401Y3318D01*
X3402Y3317D01*
X3403Y3316D01*
X3404Y3315D01*
X3405Y3314D01*
X3406Y3313D01*
X3407Y3312D01*
X3408Y3311D01*
X3409Y3310D01*
X3410Y3309D01*
X3410Y3308D01*
X3411Y3307D01*
X3412Y3306D01*
X3413Y3305D01*
X3414Y3304D01*
X3415Y3303D01*
X3416Y3302D01*
X3417Y3301D01*
X3418Y3300D01*
X3419Y3299D01*
X3420Y3298D01*
X3421Y3297D01*
X3421Y3296D01*
X3422Y3295D01*
X3423Y3294D01*
X3424Y3293D01*
X3425Y3292D01*
X3426Y3291D01*
X3427Y3290D01*
X3428Y3289D01*
X3429Y3288D01*
X3430Y3287D01*
X3431Y3286D01*
X3431Y3285D01*
X3432Y3284D01*
X3433Y3283D01*
X3434Y3282D01*
X3435Y3281D01*
X3436Y3280D01*
X3437Y3279D01*
X3438Y3278D01*
X3439Y3277D01*
X3439Y3276D01*
X3440Y3275D01*
X3441Y3274D01*
X3442Y3273D01*
X3443Y3272D01*
X3444Y3271D01*
X3445Y3270D01*
X3446Y3269D01*
X3447Y3268D01*
X3447Y3267D01*
X3448Y3266D01*
X3449Y3265D01*
X3450Y3264D01*
X3451Y3263D01*
X3452Y3262D01*
X3453Y3261D01*
X3454Y3260D01*
X3454Y3259D01*
X3455Y3258D01*
X3456Y3257D01*
X3457Y3256D01*
X3458Y3255D01*
X3459Y3254D01*
X3460Y3253D01*
X3460Y3252D01*
X3461Y3251D01*
X3462Y3250D01*
X3463Y3249D01*
X3464Y3248D01*
X3465Y3247D01*
X3466Y3246D01*
X3466Y3245D01*
X3467Y3244D01*
X3468Y3243D01*
X3469Y3242D01*
X3470Y3241D01*
X3471Y3240D01*
X3472Y3239D01*
X3472Y3238D01*
X3473Y3237D01*
X3474Y3236D01*
X3475Y3235D01*
X3476Y3234D01*
X3477Y3233D01*
X3477Y3232D01*
X3478Y3231D01*
X3479Y3230D01*
X3480Y3229D01*
X3481Y3228D01*
X3482Y3227D01*
X3482Y3226D01*
X3483Y3225D01*
X3484Y3224D01*
X3485Y3223D01*
X3486Y3222D01*
X3487Y3221D01*
X3487Y3220D01*
X3488Y3219D01*
X3489Y3218D01*
X3490Y3217D01*
X3491Y3216D01*
X3491Y3215D01*
X3492Y3214D01*
X3493Y3213D01*
X3494Y3212D01*
X3495Y3211D01*
X3496Y3210D01*
X3496Y3209D01*
X3497Y3208D01*
X3498Y3207D01*
X3499Y3206D01*
X3500Y3205D01*
X3500Y3204D01*
X3501Y3203D01*
X3502Y3202D01*
X3503Y3201D01*
X3504Y3200D01*
X3504Y3199D01*
X3505Y3198D01*
X3506Y3197D01*
X3507Y3196D01*
X3508Y3195D01*
X3508Y3194D01*
X3509Y3193D01*
X3510Y3192D01*
X3511Y3191D01*
X3512Y3190D01*
X3512Y3189D01*
X3513Y3188D01*
X3514Y3187D01*
X3515Y3186D01*
X3516Y3185D01*
X3516Y3184D01*
X3517Y3183D01*
X3518Y3182D01*
X3519Y3181D01*
X3519Y3180D01*
X3520Y3179D01*
X3521Y3178D01*
X3522Y3177D01*
X3523Y3176D01*
X3523Y3175D01*
X3524Y3174D01*
X3525Y3173D01*
X3526Y3172D01*
X3526Y3171D01*
X3527Y3170D01*
X3528Y3169D01*
X3529Y3168D01*
X3530Y3167D01*
X3530Y3166D01*
X3531Y3165D01*
X3532Y3164D01*
X3533Y3163D01*
X3533Y3162D01*
X3534Y3161D01*
X3535Y3160D01*
X3536Y3159D01*
X3536Y3158D01*
X3537Y3157D01*
X3538Y3156D01*
X3539Y3155D01*
X3539Y3154D01*
X3540Y3153D01*
X3541Y3152D01*
X3542Y3151D01*
X3542Y3150D01*
X3543Y3149D01*
X3544Y3148D01*
X3545Y3147D01*
X3545Y3146D01*
X3546Y3145D01*
X3547Y3144D01*
X3548Y3143D01*
X3548Y3142D01*
X3549Y3141D01*
X3550Y3140D01*
X3551Y3139D01*
X3551Y3138D01*
X3552Y3137D01*
X3553Y3136D01*
X3554Y3135D01*
X3554Y3134D01*
X3555Y3133D01*
X3556Y3132D01*
X3557Y3131D01*
X3557Y3130D01*
X3558Y3129D01*
X3559Y3128D01*
X3559Y3127D01*
X3560Y3126D01*
X3561Y3125D01*
X3562Y3124D01*
X3562Y3123D01*
X3563Y3122D01*
X3564Y3121D01*
X3565Y3120D01*
X3565Y3119D01*
X3566Y3118D01*
X3567Y3117D01*
X3567Y3116D01*
X3568Y3115D01*
X3569Y3114D01*
X3570Y3113D01*
X3570Y3112D01*
X3571Y3111D01*
X3572Y3110D01*
X3572Y3109D01*
X3573Y3108D01*
X3574Y3107D01*
X3575Y3106D01*
X3575Y3105D01*
X3576Y3104D01*
X3577Y3103D01*
X3577Y3102D01*
X3578Y3101D01*
X3579Y3100D01*
X3579Y3099D01*
X3580Y3098D01*
X3581Y3097D01*
X3582Y3096D01*
X3582Y3095D01*
X3583Y3094D01*
X3584Y3093D01*
X3584Y3092D01*
X3585Y3091D01*
X3586Y3090D01*
X3586Y3089D01*
X3587Y3088D01*
X3588Y3087D01*
X3589Y3086D01*
X3589Y3085D01*
X3590Y3084D01*
X3591Y3083D01*
X3591Y3082D01*
X3592Y3081D01*
X3593Y3080D01*
X3593Y3079D01*
X3594Y3078D01*
X3595Y3077D01*
X3595Y3076D01*
X3596Y3075D01*
X3597Y3074D01*
X3597Y3073D01*
X3598Y3072D01*
X3599Y3071D01*
X3599Y3070D01*
X3600Y3069D01*
X3601Y3068D01*
X3601Y3067D01*
X3602Y3066D01*
X3603Y3065D01*
X3603Y3064D01*
X3604Y3063D01*
X3605Y3062D01*
X3605Y3061D01*
X3606Y3060D01*
X3607Y3059D01*
X3607Y3058D01*
X3608Y3057D01*
X3609Y3056D01*
X3609Y3055D01*
X3610Y3054D01*
X3611Y3053D01*
X3611Y3052D01*
X3612Y3051D01*
X3613Y3050D01*
X3613Y3049D01*
X3614Y3048D01*
X3615Y3047D01*
X3615Y3046D01*
X3616Y3045D01*
X3617Y3044D01*
X3617Y3043D01*
X3618Y3042D01*
X3619Y3041D01*
X3619Y3040D01*
X3620Y3039D01*
X3621Y3038D01*
X3621Y3037D01*
X3622Y3036D01*
X3623Y3035D01*
X3623Y3034D01*
X3624Y3033D01*
X3625Y3032D01*
X3625Y3031D01*
X3626Y3030D01*
X3626Y3029D01*
X3627Y3028D01*
X3628Y3027D01*
X3628Y3026D01*
X3629Y3025D01*
X3630Y3024D01*
X3630Y3023D01*
X3631Y3022D01*
X3632Y3021D01*
X3632Y3020D01*
X3633Y3019D01*
X3633Y3018D01*
X3634Y3017D01*
X3635Y3016D01*
X3635Y3015D01*
X3636Y3014D01*
X3637Y3013D01*
X3637Y3012D01*
X3638Y3011D01*
X3638Y3010D01*
X3639Y3009D01*
X3640Y3008D01*
X3640Y3007D01*
X3641Y3006D01*
X3642Y3005D01*
X3642Y3004D01*
X3643Y3003D01*
X3643Y3002D01*
X3644Y3001D01*
X3645Y3000D01*
X3645Y2999D01*
X3646Y2998D01*
X3646Y2997D01*
X3647Y2996D01*
X3648Y2995D01*
X3648Y2994D01*
X3649Y2993D01*
X3650Y2992D01*
X3650Y2991D01*
X3651Y2990D01*
X3651Y2989D01*
X3652Y2988D01*
X3653Y2987D01*
X3653Y2986D01*
X3654Y2985D01*
X3654Y2984D01*
X3655Y2983D01*
X3656Y2982D01*
X3656Y2981D01*
X3657Y2980D01*
X3657Y2979D01*
X3658Y2978D01*
X3659Y2977D01*
X3659Y2976D01*
X3660Y2975D01*
X3660Y2974D01*
X3661Y2973D01*
X3662Y2972D01*
X3662Y2971D01*
X3663Y2970D01*
X3663Y2969D01*
X3664Y2968D01*
X3665Y2967D01*
X3665Y2966D01*
X3666Y2965D01*
X3666Y2964D01*
X3667Y2963D01*
X3667Y2962D01*
X3668Y2961D01*
X3669Y2960D01*
X3669Y2959D01*
X3670Y2958D01*
X3670Y2957D01*
X3671Y2956D01*
X3672Y2955D01*
X3672Y2954D01*
X3673Y2953D01*
X3673Y2952D01*
X3674Y2951D01*
X3674Y2950D01*
X3675Y2949D01*
X3676Y2948D01*
X3676Y2947D01*
X3677Y2946D01*
X3677Y2945D01*
X3678Y2944D01*
X3678Y2943D01*
X3679Y2942D01*
X3680Y2941D01*
X3680Y2940D01*
X3681Y2939D01*
X3681Y2938D01*
X3682Y2937D01*
X3682Y2936D01*
X3683Y2935D01*
X3684Y2934D01*
X3684Y2933D01*
X3685Y2932D01*
X3685Y2931D01*
X3686Y2930D01*
X3686Y2929D01*
X3687Y2928D01*
X3687Y2927D01*
X3688Y2926D01*
X3689Y2925D01*
X3689Y2924D01*
X3690Y2923D01*
X3690Y2922D01*
X3691Y2921D01*
X3691Y2920D01*
X3692Y2919D01*
X3692Y2918D01*
X3693Y2917D01*
X3694Y2916D01*
X3694Y2915D01*
X3695Y2914D01*
X3695Y2913D01*
X3696Y2912D01*
X3696Y2911D01*
X3697Y2910D01*
X3697Y2909D01*
X3698Y2908D01*
X3698Y2907D01*
X3699Y2906D01*
X3700Y2905D01*
X3700Y2904D01*
X3701Y2903D01*
X3701Y2902D01*
X3702Y2901D01*
X3702Y2900D01*
X3703Y2899D01*
X3703Y2898D01*
X3704Y2897D01*
X3704Y2896D01*
X3705Y2895D01*
X3705Y2894D01*
X3706Y2893D01*
X3707Y2892D01*
X3707Y2891D01*
X3708Y2890D01*
X3708Y2889D01*
X3709Y2888D01*
X3709Y2887D01*
X3710Y2886D01*
X3710Y2885D01*
X3711Y2884D01*
X3711Y2883D01*
X3712Y2882D01*
X3712Y2881D01*
X3713Y2880D01*
X3713Y2879D01*
X3714Y2878D01*
X3714Y2877D01*
X3715Y2876D01*
X3715Y2875D01*
X3716Y2874D01*
X3716Y2873D01*
X3717Y2872D01*
X3718Y2871D01*
X3718Y2870D01*
X3719Y2869D01*
X3719Y2868D01*
X3720Y2867D01*
X3720Y2866D01*
X3721Y2865D01*
X3721Y2864D01*
X3722Y2863D01*
X3722Y2862D01*
X3723Y2861D01*
X3723Y2860D01*
X3724Y2859D01*
X3724Y2858D01*
X3725Y2857D01*
X3725Y2856D01*
X3726Y2855D01*
X3726Y2854D01*
X3727Y2853D01*
X3727Y2852D01*
X3728Y2851D01*
X3728Y2850D01*
X3729Y2849D01*
X3729Y2848D01*
X3730Y2847D01*
X3730Y2846D01*
X3731Y2845D01*
X3731Y2844D01*
X3732Y2843D01*
X3732Y2842D01*
X3733Y2841D01*
X3733Y2840D01*
X3734Y2839D01*
X3734Y2838D01*
X3735Y2837D01*
X3735Y2836D01*
X3736Y2835D01*
X3736Y2834D01*
X3737Y2833D01*
X3737Y2832D01*
X3738Y2831D01*
X3738Y2830D01*
X3739Y2829D01*
X3739Y2828D01*
X3740Y2827D01*
X3740Y2826D01*
X3741Y2825D01*
X3741Y2824D01*
X3742Y2823D01*
X3742Y2821D01*
X3743Y2820D01*
X3743Y2819D01*
X3744Y2818D01*
X3744Y2817D01*
X3745Y2816D01*
X3745Y2815D01*
X3746Y2814D01*
X3746Y2813D01*
X3747Y2812D01*
X3747Y2811D01*
X3748Y2810D01*
X3748Y2809D01*
X3749Y2808D01*
X3749Y2807D01*
X3750Y2806D01*
X3750Y2805D01*
X3751Y2804D01*
X3751Y2802D01*
X3752Y2801D01*
X3752Y2800D01*
X3753Y2799D01*
X3753Y2798D01*
X3754Y2797D01*
X3754Y2796D01*
X3755Y2795D01*
X3755Y2794D01*
X3756Y2793D01*
X3756Y2792D01*
X3757Y2791D01*
X3757Y2789D01*
X3758Y2788D01*
X3758Y2787D01*
X3759Y2786D01*
X3759Y2785D01*
X3760Y2784D01*
X3760Y2783D01*
X3761Y2782D01*
X3761Y2781D01*
X3762Y2780D01*
X3762Y2779D01*
X3763Y2778D01*
X3763Y2776D01*
X3764Y2775D01*
X3764Y2774D01*
X3765Y2773D01*
X3765Y2772D01*
X3766Y2771D01*
X3766Y2770D01*
X3767Y2769D01*
X3767Y2767D01*
X3768Y2766D01*
X3768Y2765D01*
X3769Y2764D01*
X3769Y2763D01*
X3770Y2762D01*
X3770Y2761D01*
X3771Y2760D01*
X3771Y2758D01*
X3772Y2757D01*
X3772Y2756D01*
X3773Y2755D01*
X3773Y2754D01*
X3774Y2753D01*
X3774Y2751D01*
X3775Y2750D01*
X3775Y2749D01*
X3776Y2748D01*
X3776Y2747D01*
X3777Y2746D01*
X3777Y2744D01*
X3778Y2743D01*
X3778Y2742D01*
X3779Y2741D01*
X3779Y2740D01*
X3780Y2739D01*
X3780Y2737D01*
X3781Y2736D01*
X3781Y2735D01*
X3782Y2734D01*
X3782Y2733D01*
X3783Y2732D01*
X3783Y2730D01*
X3784Y2729D01*
X3784Y2728D01*
X3785Y2727D01*
X3785Y2725D01*
X3786Y2724D01*
X3786Y2723D01*
X3787Y2722D01*
X3787Y2721D01*
X3788Y2720D01*
X3788Y2718D01*
X3789Y2717D01*
X3789Y2716D01*
X3790Y2715D01*
X3790Y2713D01*
X3791Y2712D01*
X3791Y2711D01*
X3792Y2710D01*
X3792Y2708D01*
X3793Y2707D01*
X3793Y2706D01*
X3794Y2705D01*
X3794Y2703D01*
X3795Y2702D01*
X3795Y2701D01*
X3796Y2700D01*
X3796Y2698D01*
X3797Y2697D01*
X3797Y2696D01*
X3798Y2695D01*
X3798Y2693D01*
X3799Y2692D01*
X3799Y2691D01*
X3800Y2690D01*
X3800Y2688D01*
X3801Y2687D01*
X3801Y2686D01*
X3802Y2685D01*
X3802Y2683D01*
X3803Y2682D01*
X3803Y2681D01*
X3804Y2680D01*
X3804Y2678D01*
X3805Y2677D01*
X3805Y2675D01*
X3806Y2674D01*
X3806Y2673D01*
X3807Y2672D01*
X3807Y2670D01*
X3808Y2669D01*
X3808Y2668D01*
X3809Y2667D01*
X3809Y2665D01*
X3810Y2664D01*
X3810Y2662D01*
X3811Y2661D01*
X3811Y2660D01*
X3812Y2659D01*
X3812Y2657D01*
X3813Y2656D01*
X3813Y2654D01*
X3814Y2653D01*
X3814Y2652D01*
X3815Y2651D01*
X3815Y2649D01*
X3816Y2648D01*
X3816Y2646D01*
X3817Y2645D01*
X3817Y2643D01*
X3818Y2642D01*
X3818Y2641D01*
X3819Y2640D01*
X3819Y2638D01*
X3820Y2637D01*
X3820Y2635D01*
X3821Y2634D01*
X3821Y2632D01*
X3822Y2631D01*
X3822Y2630D01*
X3823Y2629D01*
X3823Y2627D01*
X3824Y2626D01*
X3824Y2624D01*
X3825Y2623D01*
X3825Y2621D01*
X3826Y2620D01*
X3826Y2618D01*
X3827Y2617D01*
X3827Y2615D01*
X3828Y2614D01*
X3828Y2612D01*
X3829Y2611D01*
X3829Y2610D01*
X3830Y2609D01*
X3830Y2607D01*
X3831Y2606D01*
X3831Y2604D01*
X3832Y2603D01*
X3832Y2601D01*
X3833Y2600D01*
X3833Y2598D01*
X3834Y2597D01*
X3834Y2595D01*
X3835Y2594D01*
X3835Y2592D01*
X3836Y2591D01*
X3836Y2589D01*
X3837Y2588D01*
X3837Y2586D01*
X3838Y2585D01*
X3838Y2583D01*
X3839Y2582D01*
X3839Y2580D01*
X3840Y2579D01*
X3840Y2577D01*
X3841Y2576D01*
X3841Y2574D01*
X3842Y2573D01*
X3842Y2570D01*
X3843Y2569D01*
X3843Y2567D01*
X3844Y2566D01*
X3844Y2564D01*
X3845Y2563D01*
X3845Y2561D01*
X3846Y2560D01*
X3846Y2558D01*
X3847Y2557D01*
X3847Y2555D01*
X3848Y2554D01*
X3848Y2551D01*
X3849Y2550D01*
X3849Y2548D01*
X3850Y2547D01*
X3850Y2545D01*
X3851Y2544D01*
X3851Y2541D01*
X3852Y2540D01*
X3852Y2538D01*
X3853Y2537D01*
X3853Y2535D01*
X3854Y2534D01*
X3854Y2532D01*
X3855Y2531D01*
X3855Y2528D01*
X3856Y2527D01*
X3856Y2525D01*
X3857Y2524D01*
X3857Y2521D01*
X3858Y2520D01*
X3858Y2518D01*
X3859Y2517D01*
X3859Y2514D01*
X3860Y2513D01*
X3860Y2511D01*
X3861Y2510D01*
X3861Y2508D01*
X3862Y2507D01*
X3862Y2504D01*
X3863Y2503D01*
X3863Y2500D01*
X3864Y2499D01*
X3864Y2497D01*
X3865Y2496D01*
X3865Y2493D01*
X3866Y2492D01*
X3866Y2489D01*
X3867Y2488D01*
X3867Y2486D01*
X3868Y2485D01*
X3868Y2482D01*
X3869Y2481D01*
X3869Y2478D01*
X3870Y2477D01*
X3870Y2475D01*
X3871Y2474D01*
X3871Y2471D01*
X3872Y2470D01*
X3872Y2467D01*
X3873Y2466D01*
X3873Y2463D01*
X3874Y2462D01*
X3874Y2459D01*
X3875Y2458D01*
X3875Y2455D01*
X3876Y2454D01*
X3876Y2451D01*
X3877Y2450D01*
X3877Y2447D01*
X3878Y2446D01*
X3878Y2443D01*
X3879Y2442D01*
X3879Y2439D01*
X3880Y2438D01*
X3880Y2435D01*
X3881Y2434D01*
X3881Y2431D01*
X3882Y2430D01*
X3882Y2427D01*
X3883Y2426D01*
X3883Y2423D01*
X3884Y2422D01*
X3884Y2418D01*
X3885Y2417D01*
X3885Y2414D01*
X3886Y2413D01*
X3886Y2410D01*
X3887Y2409D01*
X3887Y2405D01*
X3888Y2404D01*
X3888Y2401D01*
X3889Y2400D01*
X3889Y2396D01*
X3890Y2395D01*
X3890Y2392D01*
X3891Y2391D01*
X3891Y2387D01*
X3892Y2386D01*
X3892Y2383D01*
X3893Y2382D01*
X3893Y2378D01*
X3894Y2377D01*
X3894Y2373D01*
X3895Y2372D01*
X3895Y2368D01*
X3896Y2367D01*
X3896Y2363D01*
X3897Y2362D01*
X3897Y2358D01*
X3898Y2357D01*
X3898Y2353D01*
X3899Y2352D01*
X3899Y2348D01*
X3900Y2347D01*
X3900Y2343D01*
X3901Y2342D01*
X3901Y2338D01*
X3902Y2337D01*
X3902Y2333D01*
X3903Y2332D01*
X3903Y2327D01*
X3904Y2326D01*
X3904Y2322D01*
X3905Y2321D01*
X3905Y2316D01*
X3906Y2315D01*
X3906Y2310D01*
X3907Y2309D01*
X3907Y2305D01*
X3908Y2304D01*
X3908Y2299D01*
X3909Y2298D01*
X3909Y2293D01*
X3910Y2292D01*
X3910Y2287D01*
X3911Y2286D01*
X3911Y2280D01*
X3912Y2279D01*
X3912Y2274D01*
X3913Y2273D01*
X3913Y2268D01*
X3914Y2267D01*
X3914Y2261D01*
X3915Y2260D01*
X3915Y2254D01*
X3916Y2253D01*
X3916Y2247D01*
X3917Y2246D01*
X3917Y2240D01*
X3918Y2239D01*
X3918Y2233D01*
X3919Y2232D01*
X3919Y2225D01*
X3920Y2224D01*
X3920Y2217D01*
X3921Y2216D01*
X3921Y2209D01*
X3922Y2208D01*
X3922Y2201D01*
X3923Y2200D01*
X3923Y2192D01*
X3924Y2191D01*
X3924Y2183D01*
X3925Y2182D01*
X3925Y2174D01*
X3926Y2173D01*
X3926Y2164D01*
X3927Y2163D01*
X3927Y2153D01*
X3928Y2152D01*
X3928Y2142D01*
X3929Y2141D01*
X3929Y2130D01*
X3930Y2129D01*
X3930Y2117D01*
X3931Y2116D01*
X3931Y2103D01*
X3932Y2102D01*
X3932Y2087D01*
X3933Y2086D01*
X3933Y2069D01*
X3934Y2068D01*
X3934Y2047D01*
X3935Y2046D01*
X3935Y2012D01*
X3936Y2011D01*
X3936Y1927D01*
X3935Y1926D01*
X3935Y1892D01*
X3934Y1891D01*
X3934Y1870D01*
X3933Y1869D01*
X3933Y1852D01*
X3932Y1851D01*
X3932Y1836D01*
X3931Y1835D01*
X3931Y1822D01*
X3930Y1821D01*
X3930Y1809D01*
X3929Y1808D01*
X3929Y1797D01*
X3928Y1796D01*
X3928Y1786D01*
X3927Y1785D01*
X3927Y1775D01*
X3926Y1774D01*
X3926Y1765D01*
X3925Y1764D01*
X3925Y1756D01*
X3924Y1755D01*
X3924Y1747D01*
X3923Y1746D01*
X3923Y1738D01*
X3922Y1737D01*
X3922Y1730D01*
X3921Y1729D01*
X3921Y1722D01*
X3920Y1721D01*
X3920Y1714D01*
X3919Y1713D01*
X3919Y1706D01*
X3918Y1705D01*
X3918Y1699D01*
X3917Y1698D01*
X3917Y1692D01*
X3916Y1691D01*
X3916Y1685D01*
X3915Y1684D01*
X3915Y1678D01*
X3914Y1677D01*
X3914Y1671D01*
X3913Y1670D01*
X3913Y1665D01*
X3912Y1664D01*
X3912Y1659D01*
X3911Y1658D01*
X3911Y1652D01*
X3910Y1651D01*
X3910Y1646D01*
X3909Y1645D01*
X3909Y1640D01*
X3908Y1639D01*
X3908Y1634D01*
X3907Y1633D01*
X3907Y1629D01*
X3906Y1628D01*
X3906Y1623D01*
X3905Y1622D01*
X3905Y1617D01*
X3904Y1616D01*
X3904Y1612D01*
X3903Y1611D01*
X3903Y1606D01*
X3902Y1605D01*
X3902Y1601D01*
X3901Y1600D01*
X3901Y1596D01*
X3900Y1595D01*
X3900Y1591D01*
X3899Y1590D01*
X3899Y1586D01*
X3898Y1585D01*
X3898Y1581D01*
X3897Y1580D01*
X3897Y1576D01*
X3896Y1575D01*
X3896Y1571D01*
X3895Y1570D01*
X3895Y1566D01*
X3894Y1565D01*
X3894Y1561D01*
X3893Y1560D01*
X3893Y1556D01*
X3892Y1555D01*
X3892Y1552D01*
X3891Y1551D01*
X3891Y1547D01*
X3890Y1546D01*
X3890Y1543D01*
X3889Y1542D01*
X3889Y1538D01*
X3888Y1537D01*
X3888Y1534D01*
X3887Y1533D01*
X3887Y1529D01*
X3886Y1528D01*
X3886Y1525D01*
X3885Y1524D01*
X3885Y1521D01*
X3884Y1520D01*
X3884Y1516D01*
X3883Y1515D01*
X3883Y1512D01*
X3882Y1511D01*
X3882Y1508D01*
X3881Y1507D01*
X3881Y1504D01*
X3880Y1503D01*
X3880Y1500D01*
X3879Y1499D01*
X3879Y1496D01*
X3878Y1495D01*
X3878Y1492D01*
X3877Y1491D01*
X3877Y1488D01*
X3876Y1487D01*
X3876Y1484D01*
X3875Y1483D01*
X3875Y1480D01*
X3874Y1479D01*
X3874Y1476D01*
X3873Y1475D01*
X3873Y1472D01*
X3872Y1471D01*
X3872Y1468D01*
X3871Y1467D01*
X3871Y1464D01*
X3870Y1463D01*
X3870Y1461D01*
X3869Y1460D01*
X3869Y1457D01*
X3868Y1456D01*
X3868Y1453D01*
X3867Y1452D01*
X3867Y1450D01*
X3866Y1449D01*
X3866Y1446D01*
X3865Y1445D01*
X3865Y1442D01*
X3864Y1441D01*
X3864Y1439D01*
X3863Y1438D01*
X3863Y1435D01*
X3862Y1434D01*
X3862Y1432D01*
X3861Y1431D01*
X3861Y1428D01*
X3860Y1427D01*
X3860Y1425D01*
X3859Y1424D01*
X3859Y1421D01*
X3858Y1420D01*
X3858Y1418D01*
X3857Y1417D01*
X3857Y1414D01*
X3856Y1413D01*
X3856Y1411D01*
X3855Y1410D01*
X3855Y1407D01*
X3854Y1406D01*
X3854Y1404D01*
X3853Y1403D01*
X3853Y1401D01*
X3852Y1400D01*
X3852Y1398D01*
X3851Y1397D01*
X3851Y1394D01*
X3850Y1393D01*
X3850Y1391D01*
X3849Y1390D01*
X3849Y1388D01*
X3848Y1387D01*
X3848Y1384D01*
X3847Y1383D01*
X3847Y1381D01*
X3846Y1380D01*
X3846Y1378D01*
X3845Y1377D01*
X3845Y1375D01*
X3844Y1374D01*
X3844Y1372D01*
X3843Y1371D01*
X3843Y1369D01*
X3842Y1368D01*
X3842Y1366D01*
X3841Y1365D01*
X3841Y1362D01*
X3840Y1361D01*
X3840Y1359D01*
X3839Y1358D01*
X3839Y1356D01*
X3838Y1355D01*
X3838Y1353D01*
X3837Y1352D01*
X3837Y1350D01*
X3836Y1349D01*
X3836Y1347D01*
X3835Y1346D01*
X3835Y1344D01*
X3834Y1343D01*
X3834Y1341D01*
X3833Y1340D01*
X3833Y1338D01*
X3832Y1337D01*
X3832Y1335D01*
X3831Y1334D01*
X3831Y1332D01*
X3830Y1331D01*
X3830Y1330D01*
X3829Y1329D01*
X3829Y1327D01*
X3828Y1326D01*
X3828Y1324D01*
X3827Y1323D01*
X3827Y1321D01*
X3826Y1320D01*
X3826Y1318D01*
X3825Y1317D01*
X3825Y1315D01*
X3824Y1314D01*
X3824Y1312D01*
X3823Y1311D01*
X3823Y1309D01*
X3822Y1308D01*
X3822Y1307D01*
X3821Y1306D01*
X3821Y1304D01*
X3820Y1303D01*
X3820Y1301D01*
X3819Y1300D01*
X3819Y1298D01*
X3818Y1297D01*
X3818Y1296D01*
X3817Y1295D01*
X3817Y1293D01*
X3816Y1292D01*
X3816Y1290D01*
X3815Y1289D01*
X3815Y1287D01*
X3814Y1286D01*
X3814Y1285D01*
X3813Y1284D01*
X3813Y1282D01*
X3812Y1281D01*
X3812Y1279D01*
X3811Y1278D01*
X3811Y1277D01*
X3810Y1276D01*
X3810Y1274D01*
X3809Y1273D01*
X3809Y1271D01*
X3808Y1270D01*
X3808Y1269D01*
X3807Y1268D01*
X3807Y1266D01*
X3806Y1265D01*
X3806Y1264D01*
X3805Y1263D01*
X3805Y1261D01*
X3804Y1260D01*
X3804Y1258D01*
X3803Y1257D01*
X3803Y1256D01*
X3802Y1255D01*
X3802Y1253D01*
X3801Y1252D01*
X3801Y1251D01*
X3800Y1250D01*
X3800Y1248D01*
X3799Y1247D01*
X3799Y1246D01*
X3798Y1245D01*
X3798Y1243D01*
X3797Y1242D01*
X3797Y1241D01*
X3796Y1240D01*
X3796Y1238D01*
X3795Y1237D01*
X3795Y1236D01*
X3794Y1235D01*
X3794Y1233D01*
X3793Y1232D01*
X3793Y1231D01*
X3792Y1230D01*
X3792Y1228D01*
X3791Y1227D01*
X3791Y1226D01*
X3790Y1225D01*
X3790Y1223D01*
X3789Y1222D01*
X3789Y1221D01*
X3788Y1220D01*
X3788Y1218D01*
X3787Y1217D01*
X3787Y1216D01*
X3786Y1215D01*
X3786Y1214D01*
X3785Y1213D01*
X3785Y1211D01*
X3784Y1210D01*
X3784Y1209D01*
X3783Y1208D01*
X3783Y1206D01*
X3782Y1205D01*
X3782Y1204D01*
X3781Y1203D01*
X3781Y1202D01*
X3780Y1201D01*
X3780Y1199D01*
X3779Y1198D01*
X3779Y1197D01*
X3778Y1196D01*
X3778Y1195D01*
X3777Y1194D01*
X3777Y1192D01*
X3776Y1191D01*
X3776Y1190D01*
X3775Y1189D01*
X3775Y1188D01*
X3774Y1187D01*
X3774Y1185D01*
X3773Y1184D01*
X3773Y1183D01*
X3772Y1182D01*
X3772Y1181D01*
X3771Y1180D01*
X3771Y1178D01*
X3770Y1177D01*
X3770Y1176D01*
X3769Y1175D01*
X3769Y1174D01*
X3768Y1173D01*
X3768Y1172D01*
X3767Y1171D01*
X3767Y1169D01*
X3766Y1168D01*
X3766Y1167D01*
X3765Y1166D01*
X3765Y1165D01*
X3764Y1164D01*
X3764Y1163D01*
X3763Y1162D01*
X3763Y1160D01*
X3762Y1159D01*
X3762Y1158D01*
X3761Y1157D01*
X3761Y1156D01*
X3760Y1155D01*
X3760Y1154D01*
X3759Y1153D01*
X3759Y1152D01*
X3758Y1151D01*
X3758Y1150D01*
X3757Y1149D01*
X3757Y1147D01*
X3756Y1146D01*
X3756Y1145D01*
X3755Y1144D01*
X3755Y1143D01*
X3754Y1142D01*
X3754Y1141D01*
X3753Y1140D01*
X3753Y1139D01*
X3752Y1138D01*
X3752Y1137D01*
X3751Y1136D01*
X3751Y1134D01*
X3750Y1133D01*
X3750Y1132D01*
X3749Y1131D01*
X3749Y1130D01*
X3748Y1129D01*
X3748Y1128D01*
X3747Y1127D01*
X3747Y1126D01*
X3746Y1125D01*
X3746Y1124D01*
X3745Y1123D01*
X3745Y1122D01*
X3744Y1121D01*
X3744Y1120D01*
X3743Y1119D01*
X3743Y1118D01*
X3742Y1117D01*
X3742Y1115D01*
X3741Y1114D01*
X3741Y1113D01*
X3740Y1112D01*
X3740Y1111D01*
X3739Y1110D01*
X3739Y1109D01*
X3738Y1108D01*
X3738Y1107D01*
X3737Y1106D01*
X3737Y1105D01*
X3736Y1104D01*
X3736Y1103D01*
X3735Y1102D01*
X3735Y1101D01*
X3734Y1100D01*
X3734Y1099D01*
X3733Y1098D01*
X3733Y1097D01*
X3732Y1096D01*
X3732Y1095D01*
X3731Y1094D01*
X3731Y1093D01*
X3730Y1092D01*
X3730Y1091D01*
X3729Y1090D01*
X3729Y1089D01*
X3728Y1088D01*
X3728Y1087D01*
X3727Y1086D01*
X3727Y1085D01*
X3726Y1084D01*
X3726Y1083D01*
X3725Y1082D01*
X3725Y1081D01*
X3724Y1080D01*
X3724Y1079D01*
X3723Y1078D01*
X3723Y1077D01*
X3722Y1076D01*
X3722Y1075D01*
X3721Y1074D01*
X3721Y1073D01*
X3720Y1072D01*
X3720Y1071D01*
X3719Y1070D01*
X3719Y1069D01*
X3718Y1068D01*
X3718Y1067D01*
X3717Y1066D01*
X3716Y1065D01*
X3716Y1064D01*
X3715Y1063D01*
X3715Y1062D01*
X3714Y1061D01*
X3714Y1060D01*
X3713Y1059D01*
X3713Y1058D01*
X3712Y1057D01*
X3712Y1056D01*
X3711Y1055D01*
X3711Y1054D01*
X3710Y1053D01*
X3710Y1052D01*
X3709Y1051D01*
X3709Y1050D01*
X3708Y1049D01*
X3708Y1048D01*
X3707Y1047D01*
X3707Y1046D01*
X3706Y1045D01*
X3705Y1044D01*
X3705Y1043D01*
X3704Y1042D01*
X3704Y1041D01*
X3703Y1040D01*
X3703Y1039D01*
X3702Y1038D01*
X3702Y1037D01*
X3701Y1036D01*
X3701Y1035D01*
X3700Y1034D01*
X3700Y1033D01*
X3699Y1032D01*
X3698Y1031D01*
X3698Y1030D01*
X3697Y1029D01*
X3697Y1028D01*
X3696Y1027D01*
X3696Y1026D01*
X3695Y1025D01*
X3695Y1024D01*
X3694Y1023D01*
X3694Y1022D01*
X3693Y1021D01*
X3692Y1020D01*
X3692Y1019D01*
X3691Y1018D01*
X3691Y1017D01*
X3690Y1016D01*
X3690Y1015D01*
X3689Y1014D01*
X3689Y1013D01*
X3688Y1012D01*
X3687Y1011D01*
X3687Y1010D01*
X3686Y1009D01*
X3686Y1008D01*
X3685Y1007D01*
X3685Y1006D01*
X3684Y1005D01*
X3684Y1004D01*
X3683Y1003D01*
X3682Y1002D01*
X3682Y1001D01*
X3681Y1000D01*
X3681Y999D01*
X3680Y998D01*
X3680Y997D01*
X3679Y996D01*
X3678Y995D01*
X3678Y994D01*
X3677Y993D01*
X3677Y992D01*
X3676Y991D01*
X3676Y990D01*
X3675Y989D01*
X3674Y988D01*
X3674Y987D01*
X3673Y986D01*
X3673Y985D01*
X3672Y984D01*
X3672Y983D01*
X3671Y982D01*
X3670Y981D01*
X3670Y980D01*
X3669Y979D01*
X3669Y978D01*
X3668Y977D01*
X3667Y976D01*
X3667Y975D01*
X3666Y974D01*
X3666Y973D01*
X3665Y972D01*
X3665Y971D01*
X3664Y970D01*
X3663Y969D01*
X3663Y968D01*
X3662Y967D01*
X3662Y966D01*
X3661Y965D01*
X3660Y964D01*
X3660Y963D01*
X3659Y962D01*
X3659Y961D01*
X3658Y960D01*
X3657Y959D01*
X3657Y958D01*
X3656Y957D01*
X3656Y956D01*
X3655Y955D01*
X3654Y954D01*
X3654Y953D01*
X3653Y952D01*
X3653Y951D01*
X3652Y950D01*
X3651Y949D01*
X3651Y948D01*
X3650Y947D01*
X3650Y946D01*
X3649Y945D01*
X3648Y944D01*
X3648Y943D01*
X3647Y942D01*
X3646Y941D01*
X3646Y940D01*
X3645Y939D01*
X3645Y938D01*
X3644Y937D01*
X3643Y936D01*
X3643Y935D01*
X3642Y934D01*
X3642Y933D01*
X3641Y932D01*
X3640Y931D01*
X3640Y930D01*
X3639Y929D01*
X3638Y928D01*
X3638Y927D01*
X3637Y926D01*
X3637Y925D01*
X3636Y924D01*
X3635Y923D01*
X3635Y922D01*
X3634Y921D01*
X3633Y920D01*
X3633Y919D01*
X3632Y918D01*
X3632Y917D01*
X3631Y916D01*
X3630Y915D01*
X3630Y914D01*
X3629Y913D01*
X3628Y912D01*
X3628Y911D01*
X3627Y910D01*
X3626Y909D01*
X3626Y908D01*
X3625Y907D01*
X3625Y906D01*
X3624Y905D01*
X3623Y904D01*
X3623Y903D01*
X3622Y902D01*
X3621Y901D01*
X3621Y900D01*
X3620Y899D01*
X3619Y898D01*
X3619Y897D01*
X3618Y896D01*
X3617Y895D01*
X3617Y894D01*
X3616Y893D01*
X3615Y892D01*
X3615Y891D01*
X3614Y890D01*
X3613Y889D01*
X3613Y888D01*
X3612Y887D01*
X3611Y886D01*
X3611Y885D01*
X3610Y884D01*
X3609Y883D01*
X3609Y882D01*
X3608Y881D01*
X3607Y880D01*
X3607Y879D01*
X3606Y878D01*
X3605Y877D01*
X3605Y876D01*
X3604Y875D01*
X3603Y874D01*
X3603Y873D01*
X3602Y872D01*
X3601Y871D01*
X3601Y870D01*
X3600Y869D01*
X3599Y868D01*
X3599Y867D01*
X3598Y866D01*
X3597Y865D01*
X3597Y864D01*
X3596Y863D01*
X3595Y862D01*
X3595Y861D01*
X3594Y860D01*
X3593Y859D01*
X3593Y858D01*
X3592Y857D01*
X3591Y856D01*
X3591Y855D01*
X3590Y854D01*
X3589Y853D01*
X3589Y852D01*
X3588Y851D01*
X3587Y850D01*
X3586Y849D01*
X3586Y848D01*
X3585Y847D01*
X3584Y846D01*
X3584Y845D01*
X3583Y844D01*
X3582Y843D01*
X3582Y842D01*
X3581Y841D01*
X3580Y840D01*
X3579Y839D01*
X3579Y838D01*
X3578Y837D01*
X3577Y836D01*
X3577Y835D01*
X3576Y834D01*
X3575Y833D01*
X3575Y832D01*
X3574Y831D01*
X3573Y830D01*
X3572Y829D01*
X3572Y828D01*
X3571Y827D01*
X3570Y826D01*
X3570Y825D01*
X3569Y824D01*
X3568Y823D01*
X3567Y822D01*
X3567Y821D01*
X3566Y820D01*
X3565Y819D01*
X3565Y818D01*
X3564Y817D01*
X3563Y816D01*
X3562Y815D01*
X3562Y814D01*
X3561Y813D01*
X3560Y812D01*
X3559Y811D01*
X3559Y810D01*
X3558Y809D01*
X3557Y808D01*
X3557Y807D01*
X3556Y806D01*
X3555Y805D01*
X3554Y804D01*
X3554Y803D01*
X3553Y802D01*
X3552Y801D01*
X3551Y800D01*
X3551Y799D01*
X3550Y798D01*
X3549Y797D01*
X3548Y796D01*
X3548Y795D01*
X3547Y794D01*
X3546Y793D01*
X3545Y792D01*
X3545Y791D01*
X3544Y790D01*
X3543Y789D01*
X3542Y788D01*
X3542Y787D01*
X3541Y786D01*
X3540Y785D01*
X3539Y784D01*
X3539Y783D01*
X3538Y782D01*
X3537Y781D01*
X3536Y780D01*
X3536Y779D01*
X3535Y778D01*
X3534Y777D01*
X3533Y776D01*
X3533Y775D01*
X3532Y774D01*
X3531Y773D01*
X3530Y772D01*
X3530Y771D01*
X3529Y770D01*
X3528Y769D01*
X3527Y768D01*
X3526Y767D01*
X3526Y766D01*
X3525Y765D01*
X3524Y764D01*
X3523Y763D01*
X3523Y762D01*
X3522Y761D01*
X3521Y760D01*
X3520Y759D01*
X3519Y758D01*
X3519Y757D01*
X3518Y756D01*
X3517Y755D01*
X3516Y754D01*
X3516Y753D01*
X3515Y752D01*
X3514Y751D01*
X3513Y750D01*
X3512Y749D01*
X3512Y748D01*
X3511Y747D01*
X3510Y746D01*
X3509Y745D01*
X3508Y744D01*
X3508Y743D01*
X3507Y742D01*
X3506Y741D01*
X3505Y740D01*
X3504Y739D01*
X3504Y738D01*
X3503Y737D01*
X3502Y736D01*
X3501Y735D01*
X3500Y734D01*
X3500Y733D01*
X3499Y732D01*
X3498Y731D01*
X3497Y730D01*
X3496Y729D01*
X3496Y728D01*
X3495Y727D01*
X3494Y726D01*
X3493Y725D01*
X3492Y724D01*
X3491Y723D01*
X3491Y722D01*
X3490Y721D01*
X3489Y720D01*
X3488Y719D01*
X3487Y718D01*
X3487Y717D01*
X3486Y716D01*
X3485Y715D01*
X3484Y714D01*
X3483Y713D01*
X3482Y712D01*
X3482Y711D01*
X3481Y710D01*
X3480Y709D01*
X3479Y708D01*
X3478Y707D01*
X3477Y706D01*
X3477Y705D01*
X3476Y704D01*
X3475Y703D01*
X3474Y702D01*
X3473Y701D01*
X3472Y700D01*
X3472Y699D01*
X3471Y698D01*
X3470Y697D01*
X3469Y696D01*
X3468Y695D01*
X3467Y694D01*
X3466Y693D01*
X3466Y692D01*
X3465Y691D01*
X3464Y690D01*
X3463Y689D01*
X3462Y688D01*
X3461Y687D01*
X3460Y686D01*
X3460Y685D01*
X3459Y684D01*
X3458Y683D01*
X3457Y682D01*
X3456Y681D01*
X3455Y680D01*
X3454Y679D01*
X3454Y678D01*
X3453Y677D01*
X3452Y676D01*
X3451Y675D01*
X3450Y674D01*
X3449Y673D01*
X3448Y672D01*
X3447Y671D01*
X3447Y670D01*
X3446Y669D01*
X3445Y668D01*
X3444Y667D01*
X3443Y666D01*
X3442Y665D01*
X3441Y664D01*
X3440Y663D01*
X3439Y662D01*
X3439Y661D01*
X3438Y660D01*
X3437Y659D01*
X3436Y658D01*
X3435Y657D01*
X3434Y656D01*
X3433Y655D01*
X3432Y654D01*
X3431Y653D01*
X3431Y652D01*
X3430Y651D01*
X3429Y650D01*
X3428Y649D01*
X3427Y648D01*
X3426Y647D01*
X3425Y646D01*
X3424Y645D01*
X3423Y644D01*
X3422Y643D01*
X3421Y642D01*
X3421Y641D01*
X3420Y640D01*
X3419Y639D01*
X3418Y638D01*
X3417Y637D01*
X3416Y636D01*
X3415Y635D01*
X3414Y634D01*
X3413Y633D01*
X3412Y632D01*
X3411Y631D01*
X3410Y630D01*
X3409Y629D01*
X3409Y628D01*
X3408Y627D01*
X3407Y626D01*
X3406Y625D01*
X3405Y624D01*
X3404Y623D01*
X3403Y622D01*
X3402Y621D01*
X3401Y620D01*
X3400Y619D01*
X3399Y618D01*
X3398Y617D01*
X3397Y616D01*
X3396Y615D01*
X3395Y614D01*
X3394Y613D01*
X3393Y612D01*
X3393Y611D01*
X3392Y610D01*
X3391Y609D01*
X3390Y608D01*
X3389Y607D01*
X3388Y606D01*
X3387Y605D01*
X3386Y604D01*
X3385Y603D01*
X3384Y602D01*
X3383Y601D01*
X3382Y600D01*
X3381Y599D01*
X3380Y598D01*
X3379Y597D01*
X3378Y596D01*
X3377Y595D01*
X3376Y594D01*
X3375Y593D01*
X3374Y592D01*
X3373Y591D01*
X3372Y590D01*
X3371Y589D01*
X3370Y588D01*
X3369Y587D01*
X3368Y586D01*
X3367Y585D01*
X3366Y584D01*
X3365Y583D01*
X3364Y582D01*
X3363Y581D01*
X3362Y580D01*
X3361Y579D01*
X3360Y578D01*
X3359Y577D01*
X3358Y576D01*
X3357Y575D01*
X3356Y574D01*
X3355Y573D01*
X3354Y572D01*
X3353Y571D01*
X3352Y570D01*
X3351Y569D01*
X3350Y568D01*
X3349Y567D01*
X3348Y566D01*
X3347Y565D01*
X3346Y564D01*
X3345Y563D01*
X3344Y562D01*
X3343Y561D01*
X3342Y560D01*
X3341Y559D01*
X3340Y558D01*
X3339Y557D01*
X3338Y556D01*
X3337Y555D01*
X3336Y554D01*
X3335Y553D01*
X3334Y552D01*
X3333Y551D01*
X3332Y550D01*
X3331Y549D01*
X3330Y548D01*
X3329Y547D01*
X3328Y546D01*
X3327Y545D01*
X3326Y544D01*
X3325Y544D01*
X3324Y543D01*
X3323Y542D01*
X3322Y541D01*
X3321Y540D01*
X3320Y539D01*
X3319Y538D01*
X3318Y537D01*
X3317Y536D01*
X3316Y535D01*
X3315Y534D01*
X3314Y533D01*
X3313Y532D01*
X3312Y531D01*
X3311Y530D01*
X3310Y529D01*
X3309Y528D01*
X3308Y528D01*
X3307Y527D01*
X3306Y526D01*
X3305Y525D01*
X3304Y524D01*
X3303Y523D01*
X3302Y522D01*
X3301Y521D01*
X3300Y520D01*
X3299Y519D01*
X3298Y518D01*
X3297Y517D01*
X3296Y516D01*
X3295Y516D01*
X3294Y515D01*
X3293Y514D01*
X3292Y513D01*
X3291Y512D01*
X3290Y511D01*
X3289Y510D01*
X3288Y509D01*
X3287Y508D01*
X3286Y507D01*
X3285Y506D01*
X3284Y506D01*
X3283Y505D01*
X3282Y504D01*
X3281Y503D01*
X3280Y502D01*
X3279Y501D01*
X3278Y500D01*
X3277Y499D01*
X3276Y498D01*
X3275Y498D01*
X3274Y497D01*
X3273Y496D01*
X3272Y495D01*
X3271Y494D01*
X3270Y493D01*
X3269Y492D01*
X3268Y491D01*
X3267Y490D01*
X3266Y490D01*
X3265Y489D01*
X3264Y488D01*
X3263Y487D01*
X3262Y486D01*
X3261Y485D01*
X3260Y484D01*
X3259Y483D01*
X3258Y483D01*
X3257Y482D01*
X3256Y481D01*
X3255Y480D01*
X3254Y479D01*
X3253Y478D01*
X3252Y477D01*
X3251Y477D01*
X3250Y476D01*
X3249Y475D01*
X3248Y474D01*
X3247Y473D01*
X3246Y472D01*
X3245Y471D01*
X3244Y471D01*
X3243Y470D01*
X3242Y469D01*
X3241Y468D01*
X3240Y467D01*
X3239Y466D01*
X3238Y465D01*
X3237Y465D01*
X3236Y464D01*
X3235Y463D01*
X3234Y462D01*
X3233Y461D01*
X3232Y460D01*
X3231Y460D01*
X3230Y459D01*
X3229Y458D01*
X3228Y457D01*
X3227Y456D01*
X3226Y455D01*
X3225Y455D01*
X3224Y454D01*
X3223Y453D01*
X3222Y452D01*
X3221Y451D01*
X3220Y450D01*
X3219Y450D01*
X3218Y449D01*
X3217Y448D01*
X3216Y447D01*
X3215Y446D01*
X3214Y446D01*
X3213Y445D01*
X3212Y444D01*
X3211Y443D01*
X3210Y442D01*
X3209Y441D01*
X3208Y441D01*
X3207Y440D01*
X3206Y439D01*
X3205Y438D01*
X3204Y437D01*
X3203Y437D01*
X3202Y436D01*
X3201Y435D01*
X3200Y434D01*
X3199Y433D01*
X3198Y433D01*
X3197Y432D01*
X3196Y431D01*
X3195Y430D01*
X3194Y429D01*
X3193Y429D01*
X3192Y428D01*
X3191Y427D01*
X3190Y426D01*
X3189Y425D01*
X3188Y425D01*
X3187Y424D01*
X3186Y423D01*
X3185Y422D01*
X3184Y421D01*
X3183Y421D01*
X3182Y420D01*
X3181Y419D01*
X3180Y418D01*
X3179Y418D01*
X3178Y417D01*
X3177Y416D01*
X3176Y415D01*
X3175Y414D01*
X3174Y414D01*
X3173Y413D01*
X3172Y412D01*
X3171Y411D01*
X3170Y411D01*
X3169Y410D01*
X3168Y409D01*
X3167Y408D01*
X3166Y407D01*
X3165Y407D01*
X3164Y406D01*
X3163Y405D01*
X3162Y404D01*
X3161Y404D01*
X3160Y403D01*
X3159Y402D01*
X3158Y401D01*
X3157Y401D01*
X3156Y400D01*
X3155Y399D01*
X3154Y398D01*
X3153Y398D01*
X3152Y397D01*
X3151Y396D01*
X3150Y395D01*
X3149Y395D01*
X3148Y394D01*
X3147Y393D01*
X3146Y392D01*
X3145Y392D01*
X3144Y391D01*
X3143Y390D01*
X3142Y389D01*
X3141Y389D01*
X3140Y388D01*
X3139Y387D01*
X3138Y386D01*
X3137Y386D01*
X3136Y385D01*
X3135Y384D01*
X3134Y383D01*
X3133Y383D01*
X3132Y382D01*
X3131Y381D01*
X3130Y380D01*
X3129Y380D01*
X3128Y379D01*
X3127Y378D01*
X3126Y378D01*
X3125Y377D01*
X3124Y376D01*
X3123Y375D01*
X3122Y375D01*
X3121Y374D01*
X3120Y373D01*
X3119Y372D01*
X3118Y372D01*
X3117Y371D01*
X3116Y370D01*
X3115Y370D01*
X3114Y369D01*
X3113Y368D01*
X3112Y367D01*
X3111Y367D01*
X3110Y366D01*
X3109Y365D01*
X3108Y365D01*
X3107Y364D01*
X3106Y363D01*
X3105Y362D01*
X3104Y362D01*
X3103Y361D01*
X3102Y360D01*
X3101Y360D01*
X3100Y359D01*
X3099Y358D01*
X3098Y358D01*
X3097Y357D01*
X3096Y356D01*
X3095Y355D01*
X3094Y355D01*
X3093Y354D01*
X3092Y353D01*
X3091Y353D01*
X3090Y352D01*
X3089Y351D01*
X3088Y351D01*
X3087Y350D01*
X3086Y349D01*
X3085Y348D01*
X3084Y348D01*
X3083Y347D01*
X3082Y346D01*
X3081Y346D01*
X3080Y345D01*
X3079Y344D01*
X3078Y344D01*
X3077Y343D01*
X3076Y342D01*
X3075Y342D01*
X3074Y341D01*
X3073Y340D01*
X3072Y340D01*
X3071Y339D01*
X3070Y338D01*
X3069Y338D01*
X3068Y337D01*
X3067Y336D01*
X3066Y336D01*
X3065Y335D01*
X3064Y334D01*
X3063Y334D01*
X3062Y333D01*
X3061Y332D01*
X3060Y332D01*
X3059Y331D01*
X3058Y330D01*
X3057Y330D01*
X3056Y329D01*
X3055Y328D01*
X3054Y328D01*
X3053Y327D01*
X3052Y326D01*
X3051Y326D01*
X3050Y325D01*
X3049Y324D01*
X3048Y324D01*
X3047Y323D01*
X3046Y322D01*
X3045Y322D01*
X3044Y321D01*
X3043Y320D01*
X3042Y320D01*
X3041Y319D01*
X3040Y318D01*
X3039Y318D01*
X3038Y317D01*
X3037Y316D01*
X3036Y316D01*
X3035Y315D01*
X3034Y314D01*
X3033Y314D01*
X3032Y313D01*
X3031Y312D01*
X3030Y312D01*
X3029Y311D01*
X3028Y311D01*
X3027Y310D01*
X3026Y309D01*
X3025Y309D01*
X3024Y308D01*
X3023Y307D01*
X3022Y307D01*
X3021Y306D01*
X3020Y305D01*
X3019Y305D01*
X3018Y304D01*
X3017Y304D01*
X3016Y303D01*
X3015Y302D01*
X3014Y302D01*
X3013Y301D01*
X3012Y300D01*
X3011Y300D01*
X3010Y299D01*
X3009Y299D01*
X3008Y298D01*
X3007Y297D01*
X3006Y297D01*
X3005Y296D01*
X3004Y295D01*
X3003Y295D01*
X3002Y294D01*
X3001Y294D01*
X3000Y293D01*
X2999Y292D01*
X2998Y292D01*
X2997Y291D01*
X2996Y291D01*
X2995Y290D01*
X2994Y289D01*
X2993Y289D01*
X2992Y288D01*
X2991Y287D01*
X2990Y287D01*
X2989Y286D01*
X2988Y286D01*
X2987Y285D01*
X2986Y284D01*
X2985Y284D01*
X2984Y283D01*
X2983Y283D01*
X2982Y282D01*
X2981Y281D01*
X2980Y281D01*
X2979Y280D01*
X2978Y280D01*
X2977Y279D01*
X2976Y278D01*
X2975Y278D01*
X2974Y277D01*
X2973Y277D01*
X2972Y276D01*
X2971Y275D01*
X2970Y275D01*
X2969Y274D01*
X2968Y274D01*
X2967Y273D01*
X2966Y272D01*
X2965Y272D01*
X2964Y271D01*
X2963Y271D01*
X2962Y270D01*
X2961Y270D01*
X2960Y269D01*
X2959Y268D01*
X2958Y268D01*
X2957Y267D01*
X2956Y267D01*
X2955Y266D01*
X2954Y265D01*
X2953Y265D01*
X2952Y264D01*
X2951Y264D01*
X2950Y263D01*
X2949Y263D01*
X2948Y262D01*
X2947Y261D01*
X2946Y261D01*
X2945Y260D01*
X2944Y260D01*
X2943Y259D01*
X2942Y259D01*
X2941Y258D01*
X2940Y257D01*
X2939Y257D01*
X2938Y256D01*
X2937Y256D01*
X2936Y255D01*
X2935Y255D01*
X2934Y254D01*
X2933Y253D01*
X2932Y253D01*
X2931Y252D01*
X2930Y252D01*
X2929Y251D01*
X2928Y251D01*
X2927Y250D01*
X2926Y250D01*
X2925Y249D01*
X2924Y248D01*
X2923Y248D01*
X2922Y247D01*
X2921Y247D01*
X2920Y246D01*
X2919Y246D01*
X2918Y245D01*
X2917Y245D01*
X2916Y244D01*
X2915Y243D01*
X2914Y243D01*
X2913Y242D01*
X2912Y242D01*
X2911Y241D01*
X2910Y241D01*
X2909Y240D01*
X2908Y240D01*
X2907Y239D01*
X2906Y239D01*
X2905Y238D01*
X2904Y237D01*
X2903Y237D01*
X2902Y236D01*
X2901Y236D01*
X2900Y235D01*
X2899Y235D01*
X2898Y234D01*
X2897Y234D01*
X2896Y233D01*
X2895Y233D01*
X2894Y232D01*
X2893Y232D01*
X2892Y231D01*
X2891Y230D01*
X2890Y230D01*
X2889Y229D01*
X2888Y229D01*
X2887Y228D01*
X2886Y228D01*
X2885Y227D01*
X2884Y227D01*
X2883Y226D01*
X2882Y226D01*
X2881Y225D01*
X2880Y225D01*
X2879Y224D01*
X2878Y224D01*
X2877Y223D01*
X2876Y223D01*
X2875Y222D01*
X2874Y222D01*
X2873Y221D01*
X2872Y221D01*
X2871Y220D01*
X2870Y219D01*
X2869Y219D01*
X2868Y218D01*
X2867Y218D01*
X2866Y217D01*
X2865Y217D01*
X2864Y216D01*
X2863Y216D01*
X2862Y215D01*
X2861Y215D01*
X2860Y214D01*
X2859Y214D01*
X2858Y213D01*
X2857Y213D01*
X2856Y212D01*
X2855Y212D01*
X2854Y211D01*
X2853Y211D01*
X2852Y210D01*
X2851Y210D01*
X2850Y209D01*
X2849Y209D01*
X2848Y208D01*
X2847Y208D01*
X2846Y207D01*
X2845Y207D01*
X2844Y206D01*
X2843Y206D01*
X2842Y205D01*
X2841Y205D01*
X2840Y204D01*
X2839Y204D01*
X2838Y203D01*
X2837Y203D01*
X2836Y202D01*
X2835Y202D01*
X2834Y201D01*
X2833Y201D01*
X2832Y200D01*
X2831Y200D01*
X2830Y199D01*
X2829Y199D01*
X2828Y198D01*
X2827Y198D01*
X2826Y197D01*
X2825Y197D01*
X2824Y196D01*
X2823Y196D01*
X2822Y195D01*
X2821Y195D01*
X2820Y195D01*
X2819Y194D01*
X2818Y194D01*
X2817Y193D01*
X2816Y193D01*
X2815Y192D01*
X2814Y192D01*
X2813Y191D01*
X2812Y191D01*
X2811Y190D01*
X2810Y190D01*
X2809Y189D01*
X2808Y189D01*
X2807Y188D01*
X2806Y188D01*
X2805Y187D01*
X2804Y187D01*
X2803Y186D01*
X2802Y186D01*
X2801Y186D01*
X2800Y185D01*
X2799Y185D01*
X2798Y184D01*
X2797Y184D01*
X2796Y183D01*
X2795Y183D01*
X2794Y182D01*
X2793Y182D01*
X2792Y181D01*
X2791Y181D01*
X2790Y180D01*
X2789Y180D01*
X2788Y180D01*
X2787Y179D01*
X2786Y179D01*
X2785Y178D01*
X2784Y178D01*
X2783Y177D01*
X2782Y177D01*
X2781Y176D01*
X2780Y176D01*
X2779Y175D01*
X2778Y175D01*
X2777Y174D01*
X2776Y174D01*
X2775Y174D01*
X2774Y173D01*
X2773Y173D01*
X2772Y172D01*
X2771Y172D01*
X2770Y171D01*
X2769Y171D01*
X2768Y170D01*
X2767Y170D01*
X2766Y170D01*
X2765Y169D01*
X2764Y169D01*
X2763Y168D01*
X2762Y168D01*
X2761Y167D01*
X2760Y167D01*
X2759Y166D01*
X2758Y166D01*
X2757Y166D01*
X2756Y165D01*
X2755Y165D01*
X2754Y164D01*
X2753Y164D01*
X2752Y163D01*
X2751Y163D01*
X2750Y163D01*
X2749Y162D01*
X2748Y162D01*
X2747Y161D01*
X2746Y161D01*
X2745Y160D01*
X2744Y160D01*
X2743Y160D01*
X2742Y159D01*
X2741Y159D01*
X2740Y158D01*
X2739Y158D01*
X2738Y157D01*
X2737Y157D01*
X2736Y157D01*
X2735Y156D01*
X2734Y156D01*
X2733Y155D01*
X2732Y155D01*
X2731Y154D01*
X2730Y154D01*
X2729Y154D01*
X2728Y153D01*
X2727Y153D01*
X2726Y152D01*
X2725Y152D01*
X2724Y152D01*
X2723Y151D01*
X2722Y151D01*
X2721Y150D01*
X2720Y150D01*
X2719Y149D01*
X2718Y149D01*
X2717Y149D01*
X2716Y148D01*
X2715Y148D01*
X2714Y147D01*
X2713Y147D01*
X2712Y147D01*
X2711Y146D01*
X2710Y146D01*
X2709Y145D01*
X2708Y145D01*
X2707Y145D01*
X2706Y144D01*
X2705Y144D01*
X2704Y143D01*
X2703Y143D01*
X2702Y143D01*
X2701Y142D01*
X2700Y142D01*
X2699Y141D01*
X2698Y141D01*
X2697Y141D01*
X2696Y140D01*
X2695Y140D01*
X2694Y139D01*
X2693Y139D01*
X2692Y139D01*
X2691Y138D01*
X2690Y138D01*
X2689Y137D01*
X2688Y137D01*
X2687Y137D01*
X2686Y136D01*
X2685Y136D01*
X2684Y135D01*
X2683Y135D01*
X2682Y135D01*
X2681Y134D01*
X2680Y134D01*
X2679Y133D01*
X2678Y133D01*
X2677Y133D01*
X2676Y132D01*
X2675Y132D01*
X2674Y132D01*
X2673Y131D01*
X2672Y131D01*
X2671Y130D01*
X2670Y130D01*
X2669Y130D01*
X2668Y129D01*
X2667Y129D01*
X2666Y128D01*
X2665Y128D01*
X2664Y128D01*
X2663Y127D01*
X2662Y127D01*
X2661Y127D01*
X2660Y126D01*
X2659Y126D01*
X2658Y125D01*
X2657Y125D01*
X2656Y125D01*
X2655Y124D01*
X2654Y124D01*
X2653Y124D01*
X2652Y123D01*
X2651Y123D01*
X2650Y122D01*
X2649Y122D01*
X2648Y122D01*
X2647Y121D01*
X2646Y121D01*
X2645Y121D01*
X2644Y120D01*
X2643Y120D01*
X2642Y120D01*
X2641Y119D01*
X2640Y119D01*
X2639Y118D01*
X2638Y118D01*
X2637Y118D01*
X2636Y117D01*
X2635Y117D01*
X2634Y117D01*
X2633Y116D01*
X2632Y116D01*
X2631Y116D01*
X2630Y115D01*
X2629Y115D01*
X2628Y114D01*
X2627Y114D01*
X2626Y114D01*
X2625Y113D01*
X2624Y113D01*
X2623Y113D01*
X2622Y112D01*
X2621Y112D01*
X2620Y112D01*
X2619Y111D01*
X2618Y111D01*
X2617Y111D01*
X2616Y110D01*
X2615Y110D01*
X2614Y110D01*
X2613Y109D01*
X2612Y109D01*
X2611Y109D01*
X2610Y108D01*
X2609Y108D01*
X2608Y108D01*
X2607Y107D01*
X2606Y107D01*
X2605Y106D01*
X2604Y106D01*
X2603Y106D01*
X2602Y105D01*
X2601Y105D01*
X2600Y105D01*
X2599Y104D01*
X2598Y104D01*
X2597Y104D01*
X2596Y103D01*
X2595Y103D01*
X2594Y103D01*
X2593Y102D01*
X2592Y102D01*
X2591Y102D01*
X2590Y101D01*
X2589Y101D01*
X2588Y101D01*
X2587Y100D01*
X2586Y100D01*
X2585Y100D01*
X2584Y99D01*
X2583Y99D01*
X2582Y99D01*
X2581Y98D01*
X2580Y98D01*
X2579Y98D01*
X2578Y97D01*
X2577Y97D01*
X2576Y97D01*
X2575Y96D01*
X2574Y96D01*
X2573Y96D01*
X2572Y96D01*
X2571Y95D01*
X2570Y95D01*
X2569Y95D01*
X2568Y94D01*
X2567Y94D01*
X2566Y94D01*
X2565Y93D01*
X2564Y93D01*
X2563Y93D01*
X2562Y92D01*
X2561Y92D01*
X2560Y92D01*
X2559Y91D01*
X2558Y91D01*
X2557Y91D01*
X2556Y90D01*
X2555Y90D01*
X2554Y90D01*
X2553Y89D01*
X2552Y89D01*
X2551Y89D01*
X2550Y89D01*
X2549Y88D01*
X2548Y88D01*
X2547Y88D01*
X2546Y87D01*
X2545Y87D01*
X2544Y87D01*
X2543Y86D01*
X2542Y86D01*
X2541Y86D01*
X2540Y86D01*
X2539Y85D01*
X2538Y85D01*
X2537Y85D01*
X2536Y84D01*
X2535Y84D01*
X2534Y84D01*
X2533Y83D01*
X2532Y83D01*
X2531Y83D01*
X2530Y82D01*
X2529Y82D01*
X2528Y82D01*
X2527Y82D01*
X2526Y81D01*
X2525Y81D01*
X2524Y81D01*
X2523Y80D01*
X2522Y80D01*
X2521Y80D01*
X2520Y80D01*
X2519Y79D01*
X2518Y79D01*
X2517Y79D01*
X2516Y78D01*
X2515Y78D01*
X2514Y78D01*
X2513Y78D01*
X2512Y77D01*
X2511Y77D01*
X2510Y77D01*
X2509Y76D01*
X2508Y76D01*
X2507Y76D01*
X2506Y76D01*
X2505Y75D01*
X2504Y75D01*
X2503Y75D01*
X2502Y74D01*
X2501Y74D01*
X2500Y74D01*
X2499Y74D01*
X2498Y73D01*
X2497Y73D01*
X2496Y73D01*
X2495Y72D01*
X2494Y72D01*
X2493Y72D01*
X2492Y72D01*
X2491Y71D01*
X2490Y71D01*
X2489Y71D01*
X2488Y71D01*
X2487Y70D01*
X2486Y70D01*
X2485Y70D01*
X2484Y69D01*
X2483Y69D01*
X2482Y69D01*
X2481Y69D01*
X2480Y68D01*
X2479Y68D01*
X2478Y68D01*
X2477Y68D01*
X2476Y67D01*
X2475Y67D01*
X2474Y67D01*
X2473Y66D01*
X2472Y66D01*
X2471Y66D01*
X2470Y66D01*
X2469Y65D01*
X2468Y65D01*
X2467Y65D01*
X2466Y65D01*
X2465Y64D01*
X2464Y64D01*
X2463Y64D01*
X2462Y64D01*
X2461Y63D01*
X2460Y63D01*
X2459Y63D01*
X2458Y63D01*
X2457Y62D01*
X2456Y62D01*
X2455Y62D01*
X2454Y62D01*
X2453Y61D01*
X2452Y61D01*
X2451Y61D01*
X2450Y61D01*
X2449Y60D01*
X2448Y60D01*
X2447Y60D01*
X2446Y60D01*
X2445Y59D01*
X2444Y59D01*
X2443Y59D01*
X2442Y59D01*
X2441Y58D01*
X2440Y58D01*
X2439Y58D01*
X2438Y58D01*
X2437Y57D01*
X2436Y57D01*
X2435Y57D01*
X2434Y57D01*
X2433Y56D01*
X2432Y56D01*
X2431Y56D01*
X2430Y56D01*
X2429Y55D01*
X2428Y55D01*
X2427Y55D01*
X2426Y55D01*
X2425Y54D01*
X2424Y54D01*
X2423Y54D01*
X2422Y54D01*
X2421Y53D01*
X2420Y53D01*
X2419Y53D01*
X2418Y53D01*
X2417Y53D01*
X2416Y52D01*
X2415Y52D01*
X2414Y52D01*
X2413Y52D01*
X2412Y51D01*
X2411Y51D01*
X2410Y51D01*
X2409Y51D01*
X2408Y50D01*
X2407Y50D01*
X2406Y50D01*
X2405Y50D01*
X2404Y50D01*
X2403Y49D01*
X2402Y49D01*
X2401Y49D01*
X2400Y49D01*
X2399Y48D01*
X2398Y48D01*
X2397Y48D01*
X2396Y48D01*
X2395Y48D01*
X2394Y47D01*
X2393Y47D01*
X2392Y47D01*
X2391Y47D01*
X2390Y46D01*
X2389Y46D01*
X2388Y46D01*
X2387Y46D01*
X2386Y46D01*
X2385Y45D01*
X2384Y45D01*
X2383Y45D01*
X2382Y45D01*
X2381Y44D01*
X2380Y44D01*
X2379Y44D01*
X2378Y44D01*
X2377Y44D01*
X2376Y43D01*
X2375Y43D01*
X2374Y43D01*
X2373Y43D01*
X2372Y43D01*
X2371Y42D01*
X2370Y42D01*
X2369Y42D01*
X2368Y42D01*
X2367Y42D01*
X2366Y41D01*
X2365Y41D01*
X2364Y41D01*
X2363Y41D01*
X2362Y41D01*
X2361Y40D01*
X2360Y40D01*
X2359Y40D01*
X2358Y40D01*
X2357Y40D01*
X2356Y39D01*
X2355Y39D01*
X2354Y39D01*
X2353Y39D01*
X2352Y39D01*
X2351Y38D01*
X2350Y38D01*
X2349Y38D01*
X2348Y38D01*
X2347Y38D01*
X2346Y37D01*
X2345Y37D01*
X2344Y37D01*
X2343Y37D01*
X2342Y37D01*
X2341Y36D01*
X2340Y36D01*
X2339Y36D01*
X2338Y36D01*
X2337Y36D01*
X2336Y35D01*
X2335Y35D01*
X2334Y35D01*
X2333Y35D01*
X2332Y35D01*
X2331Y34D01*
X2330Y34D01*
X2329Y34D01*
X2328Y34D01*
X2327Y34D01*
X2326Y34D01*
X2325Y33D01*
X2324Y33D01*
X2323Y33D01*
X2322Y33D01*
X2321Y33D01*
X2320Y32D01*
X2319Y32D01*
X2318Y32D01*
X2317Y32D01*
X2316Y32D01*
X2315Y32D01*
X2314Y31D01*
X2313Y31D01*
X2312Y31D01*
X2311Y31D01*
X2310Y31D01*
X2309Y31D01*
X2308Y30D01*
X2307Y30D01*
X2306Y30D01*
X2305Y30D01*
X2304Y30D01*
X2303Y29D01*
X2302Y29D01*
X2301Y29D01*
X2300Y29D01*
X2299Y29D01*
X2298Y29D01*
X2297Y28D01*
X2296Y28D01*
X2295Y28D01*
X2294Y28D01*
X2293Y28D01*
X2292Y28D01*
X2291Y27D01*
X2290Y27D01*
X2289Y27D01*
X2288Y27D01*
X2287Y27D01*
X2286Y27D01*
X2285Y26D01*
X2284Y26D01*
X2283Y26D01*
X2282Y26D01*
X2281Y26D01*
X2280Y26D01*
X2279Y26D01*
X2278Y25D01*
X2277Y25D01*
X2276Y25D01*
X2275Y25D01*
X2274Y25D01*
X2273Y25D01*
X2272Y24D01*
X2271Y24D01*
X2270Y24D01*
X2269Y24D01*
X2268Y24D01*
X2267Y24D01*
X2266Y23D01*
X2265Y23D01*
X2264Y23D01*
X2263Y23D01*
X2262Y23D01*
X2261Y23D01*
X2260Y23D01*
X2259Y22D01*
X2258Y22D01*
X2257Y22D01*
X2256Y22D01*
X2255Y22D01*
X2254Y22D01*
X2253Y22D01*
X2252Y21D01*
X2251Y21D01*
X2250Y21D01*
X2249Y21D01*
X2248Y21D01*
X2247Y21D01*
X2246Y21D01*
X2245Y20D01*
X2244Y20D01*
X2243Y20D01*
X2242Y20D01*
X2241Y20D01*
X2240Y20D01*
X2239Y20D01*
X2238Y19D01*
X2237Y19D01*
X2236Y19D01*
X2235Y19D01*
X2234Y19D01*
X2233Y19D01*
X2232Y19D01*
X2231Y18D01*
X2230Y18D01*
X2229Y18D01*
X2228Y18D01*
X2227Y18D01*
X2226Y18D01*
X2225Y18D01*
X2224Y18D01*
X2223Y17D01*
X2222Y17D01*
X2221Y17D01*
X2220Y17D01*
X2219Y17D01*
X2218Y17D01*
X2217Y17D01*
X2216Y17D01*
X2215Y16D01*
X2214Y16D01*
X2213Y16D01*
X2212Y16D01*
X2211Y16D01*
X2210Y16D01*
X2209Y16D01*
X2208Y16D01*
X2207Y15D01*
X2206Y15D01*
X2205Y15D01*
X2204Y15D01*
X2203Y15D01*
X2202Y15D01*
X2201Y15D01*
X2200Y15D01*
X2199Y14D01*
X2198Y14D01*
X2197Y14D01*
X2196Y14D01*
X2195Y14D01*
X2194Y14D01*
X2193Y14D01*
X2192Y14D01*
X2191Y14D01*
X2190Y13D01*
X2189Y13D01*
X2188Y13D01*
X2187Y13D01*
X2186Y13D01*
X2185Y13D01*
X2184Y13D01*
X2183Y13D01*
X2182Y13D01*
X2181Y12D01*
X2180Y12D01*
X2179Y12D01*
X2178Y12D01*
X2177Y12D01*
X2176Y12D01*
X2175Y12D01*
X2174Y12D01*
X2173Y12D01*
X2172Y11D01*
X2171Y11D01*
X2170Y11D01*
X2169Y11D01*
X2168Y11D01*
X2167Y11D01*
X2166Y11D01*
X2165Y11D01*
X2164Y11D01*
X2163Y11D01*
X2162Y10D01*
X2161Y10D01*
X2160Y10D01*
X2159Y10D01*
X2158Y10D01*
X2157Y10D01*
X2156Y10D01*
X2155Y10D01*
X2154Y10D01*
X2153Y10D01*
X2152Y10D01*
X2151Y9D01*
X2150Y9D01*
X2149Y9D01*
X2148Y9D01*
X2147Y9D01*
X2146Y9D01*
X2145Y9D01*
X2144Y9D01*
X2143Y9D01*
X2142Y9D01*
X2141Y9D01*
X2140Y8D01*
X2139Y8D01*
X2138Y8D01*
X2137Y8D01*
X2136Y8D01*
X2135Y8D01*
X2134Y8D01*
X2133Y8D01*
X2132Y8D01*
X2131Y8D01*
X2130Y8D01*
X2129Y8D01*
X2128Y7D01*
X2127Y7D01*
X2126Y7D01*
X2125Y7D01*
X2124Y7D01*
X2123Y7D01*
X2122Y7D01*
X2121Y7D01*
X2120Y7D01*
X2119Y7D01*
X2118Y7D01*
X2117Y7D01*
X2116Y7D01*
X2115Y6D01*
X2114Y6D01*
X2113Y6D01*
X2112Y6D01*
X2111Y6D01*
X2110Y6D01*
X2109Y6D01*
X2108Y6D01*
X2107Y6D01*
X2106Y6D01*
X2105Y6D01*
X2104Y6D01*
X2103Y6D01*
X2102Y6D01*
X2101Y5D01*
X2100Y5D01*
X2099Y5D01*
X2098Y5D01*
X2097Y5D01*
X2096Y5D01*
X2095Y5D01*
X2094Y5D01*
X2093Y5D01*
X2092Y5D01*
X2091Y5D01*
X2090Y5D01*
X2089Y5D01*
X2088Y5D01*
X2087Y5D01*
X2086Y5D01*
X2085Y4D01*
X2084Y4D01*
X2083Y4D01*
X2082Y4D01*
X2081Y4D01*
X2080Y4D01*
X2079Y4D01*
X2078Y4D01*
X2077Y4D01*
X2076Y4D01*
X2075Y4D01*
X2074Y4D01*
X2073Y4D01*
X2072Y4D01*
X2071Y4D01*
X2070Y4D01*
X2069Y4D01*
X2068Y4D01*
X2067Y3D01*
X2066Y3D01*
X2065Y3D01*
X2064Y3D01*
X2063Y3D01*
X2062Y3D01*
X2061Y3D01*
X2060Y3D01*
X2059Y3D01*
X2058Y3D01*
X2057Y3D01*
X2056Y3D01*
X2055Y3D01*
X2054Y3D01*
X2053Y3D01*
X2052Y3D01*
X2051Y3D01*
X2050Y3D01*
X2049Y3D01*
X2048Y3D01*
X2047Y3D01*
X2046Y3D01*
X2045Y2D01*
X2044Y2D01*
X2043Y2D01*
X2042Y2D01*
X2041Y2D01*
X2040Y2D01*
X2039Y2D01*
X2038Y2D01*
X2037Y2D01*
X2036Y2D01*
X2035Y2D01*
X2034Y2D01*
X2033Y2D01*
X2032Y2D01*
X2031Y2D01*
X2030Y2D01*
X2029Y2D01*
X2028Y2D01*
X2027Y2D01*
X2026Y2D01*
X2025Y2D01*
X2024Y2D01*
X2023Y2D01*
X2022Y2D01*
X2021Y2D01*
X2020Y2D01*
X2019Y2D01*
X2018Y2D01*
X2017Y2D01*
X2016Y2D01*
X2015Y2D01*
X2014Y2D01*
X2013Y2D01*
X2012Y2D01*
X2011Y2D01*
X2010Y1D01*
X2009Y1D01*
X2008Y1D01*
X2007Y1D01*
X2006Y1D01*
X2005Y1D01*
X2004Y1D01*
X2003Y1D01*
X2002Y1D01*
X2001Y1D01*
X2000Y1D01*
X1999Y1D01*
X1998Y1D01*
X1997Y1D01*
X1996Y1D01*
X1995Y1D01*
X1994Y1D01*
X1993Y1D01*
X1992Y1D01*
X1991Y1D01*
X1990Y1D01*
X1989Y1D01*
X1988Y1D01*
X1987Y1D01*
X1986Y1D01*
X1985Y1D01*
X1984Y1D01*
X1983Y1D01*
X1982Y1D01*
X1981Y1D01*
X1980Y1D01*
X1979Y1D01*
X1978Y1D01*
X1977Y1D01*
X1976Y1D01*
X1975Y1D01*
X1974Y1D01*
X1973Y1D01*
X1972Y1D01*
X1971Y1D01*
X1970Y1D01*
X1969Y1D01*
X1968Y1D01*
X1967Y1D01*
X1966Y1D01*
X1965Y1D01*
X1964Y1D01*
X1963Y1D01*
X1962Y1D01*
X1961Y1D01*
X1960Y1D01*
X1959Y1D01*
X1958Y1D01*
X1957Y1D01*
X1956Y1D01*
X1955Y1D01*
X1954Y1D01*
X1953Y1D01*
X1952Y1D01*
X1951Y1D01*
X1950Y1D01*
X1949Y1D01*
X1948Y1D01*
X1947Y1D01*
X1946Y1D01*
X1945Y1D01*
X1944Y1D01*
X1943Y1D01*
X1942Y1D01*
X1941Y1D01*
X1940Y1D01*
X1939Y1D01*
X1938Y1D01*
X1937Y1D01*
X1936Y1D01*
X1935Y1D01*
X1934Y1D01*
X1933Y1D01*
X1932Y1D01*
X1931Y1D01*
X1930Y1D01*
X1929Y1D01*
X1928Y1D01*
X1927Y1D01*
X1926Y1D01*
X1925Y2D01*
X1924Y2D01*
X1923Y2D01*
X1922Y2D01*
X1921Y2D01*
X1920Y2D01*
X1919Y2D01*
X1918Y2D01*
X1917Y2D01*
X1916Y2D01*
X1915Y2D01*
X1914Y2D01*
X1913Y2D01*
X1912Y2D01*
X1911Y2D01*
X1910Y2D01*
X1909Y2D01*
X1908Y2D01*
X1907Y2D01*
X1906Y2D01*
X1905Y2D01*
X1904Y2D01*
X1903Y2D01*
X1902Y2D01*
X1901Y2D01*
X1900Y2D01*
X1899Y2D01*
X1898Y2D01*
X1897Y2D01*
X1896Y2D01*
X1895Y2D01*
X1894Y2D01*
X1893Y2D01*
X1892Y2D01*
X1891Y2D01*
X1890Y3D01*
X1889Y3D01*
X1888Y3D01*
X1887Y3D01*
X1886Y3D01*
X1885Y3D01*
X1884Y3D01*
X1883Y3D01*
X1882Y3D01*
X1881Y3D01*
X1880Y3D01*
X1879Y3D01*
X1878Y3D01*
X1877Y3D01*
X1876Y3D01*
X1875Y3D01*
X1874Y3D01*
X1873Y3D01*
X1872Y3D01*
X1871Y3D01*
X1870Y3D01*
X1869Y3D01*
X1868Y4D01*
X1867Y4D01*
X1866Y4D01*
X1865Y4D01*
X1864Y4D01*
X1863Y4D01*
X1862Y4D01*
X1861Y4D01*
X1860Y4D01*
X1859Y4D01*
X1858Y4D01*
X1857Y4D01*
X1856Y4D01*
X1855Y4D01*
X1854Y4D01*
X1853Y4D01*
X1852Y4D01*
X1851Y4D01*
X1850Y5D01*
X1849Y5D01*
X1848Y5D01*
X1847Y5D01*
X1846Y5D01*
X1845Y5D01*
X1844Y5D01*
X1843Y5D01*
X1842Y5D01*
X1841Y5D01*
X1840Y5D01*
X1839Y5D01*
X1838Y5D01*
X1837Y5D01*
X1836Y5D01*
X1835Y5D01*
X1834Y6D01*
X1833Y6D01*
X1832Y6D01*
X1831Y6D01*
X1830Y6D01*
X1829Y6D01*
X1828Y6D01*
X1827Y6D01*
X1826Y6D01*
X1825Y6D01*
X1824Y6D01*
X1823Y6D01*
X1822Y6D01*
X1821Y6D01*
X1820Y7D01*
X1819Y7D01*
X1818Y7D01*
X1817Y7D01*
X1816Y7D01*
X1815Y7D01*
X1814Y7D01*
X1813Y7D01*
X1812Y7D01*
X1811Y7D01*
X1810Y7D01*
X1809Y7D01*
X1808Y7D01*
X1807Y8D01*
X1806Y8D01*
X1805Y8D01*
X1804Y8D01*
X1803Y8D01*
X1802Y8D01*
X1801Y8D01*
X1800Y8D01*
X1799Y8D01*
X1798Y8D01*
X1797Y8D01*
X1796Y8D01*
X1795Y9D01*
X1794Y9D01*
X1793Y9D01*
X1792Y9D01*
X1791Y9D01*
X1790Y9D01*
X1789Y9D01*
X1788Y9D01*
X1787Y9D01*
X1786Y9D01*
X1785Y9D01*
X1784Y10D01*
X1783Y10D01*
X1782Y10D01*
X1781Y10D01*
X1780Y10D01*
X1779Y10D01*
X1778Y10D01*
X1777Y10D01*
X1776Y10D01*
X1775Y10D01*
X1774Y10D01*
X1773Y11D01*
X1772Y11D01*
X1771Y11D01*
X1770Y11D01*
X1769Y11D01*
X1768Y11D01*
X1767Y11D01*
X1766Y11D01*
X1765Y11D01*
X1764Y11D01*
X1763Y12D01*
X1762Y12D01*
X1761Y12D01*
X1760Y12D01*
X1759Y12D01*
X1758Y12D01*
X1757Y12D01*
X1756Y12D01*
X1755Y12D01*
X1754Y13D01*
X1753Y13D01*
X1752Y13D01*
X1751Y13D01*
X1750Y13D01*
X1749Y13D01*
X1748Y13D01*
X1747Y13D01*
X1746Y13D01*
X1745Y14D01*
X1744Y14D01*
X1743Y14D01*
X1742Y14D01*
X1741Y14D01*
X1740Y14D01*
X1739Y14D01*
X1738Y14D01*
X1737Y14D01*
X1736Y15D01*
X1735Y15D01*
X1734Y15D01*
X1733Y15D01*
X1732Y15D01*
X1731Y15D01*
X1730Y15D01*
X1729Y15D01*
X1728Y16D01*
X1727Y16D01*
X1726Y16D01*
X1725Y16D01*
X1724Y16D01*
X1723Y16D01*
X1722Y16D01*
X1721Y16D01*
X1720Y17D01*
X1719Y17D01*
X1718Y17D01*
X1717Y17D01*
X1716Y17D01*
X1715Y17D01*
X1714Y17D01*
X1713Y17D01*
X1712Y18D01*
X1711Y18D01*
X1710Y18D01*
X1709Y18D01*
X1708Y18D01*
X1707Y18D01*
X1706Y18D01*
X1705Y18D01*
X1704Y19D01*
X1703Y19D01*
X1702Y19D01*
X1701Y19D01*
X1700Y19D01*
X1699Y19D01*
X1698Y19D01*
X1697Y20D01*
X1696Y20D01*
X1695Y20D01*
X1694Y20D01*
X1693Y20D01*
X1692Y20D01*
X1691Y20D01*
X1690Y21D01*
X1689Y21D01*
X1688Y21D01*
X1687Y21D01*
X1686Y21D01*
X1685Y21D01*
X1684Y21D01*
X1683Y22D01*
X1682Y22D01*
X1681Y22D01*
X1680Y22D01*
X1679Y22D01*
X1678Y22D01*
X1677Y22D01*
X1676Y23D01*
X1675Y23D01*
X1674Y23D01*
X1673Y23D01*
X1672Y23D01*
X1671Y23D01*
X1670Y23D01*
X1669Y24D01*
X1668Y24D01*
X1667Y24D01*
X1666Y24D01*
X1665Y24D01*
X1664Y24D01*
X1663Y25D01*
X1662Y25D01*
X1661Y25D01*
X1660Y25D01*
X1659Y25D01*
X1658Y25D01*
X1657Y26D01*
X1656Y26D01*
X1655Y26D01*
X1654Y26D01*
X1653Y26D01*
X1652Y26D01*
X1651Y26D01*
X1650Y27D01*
X1649Y27D01*
X1648Y27D01*
X1647Y27D01*
X1646Y27D01*
X1645Y27D01*
X1644Y28D01*
X1643Y28D01*
X1642Y28D01*
X1641Y28D01*
X1640Y28D01*
X1639Y28D01*
X1638Y29D01*
X1637Y29D01*
X1636Y29D01*
X1635Y29D01*
X1634Y29D01*
X1633Y29D01*
X1632Y30D01*
X1631Y30D01*
X1630Y30D01*
X1629Y30D01*
X1628Y30D01*
X1627Y31D01*
X1626Y31D01*
X1625Y31D01*
X1624Y31D01*
X1623Y31D01*
X1622Y31D01*
X1621Y32D01*
X1620Y32D01*
X1619Y32D01*
X1618Y32D01*
X1617Y32D01*
X1616Y32D01*
X1615Y33D01*
X1614Y33D01*
X1613Y33D01*
X1612Y33D01*
X1611Y33D01*
X1610Y34D01*
X1609Y34D01*
X1608Y34D01*
X1607Y34D01*
X1606Y34D01*
X1605Y34D01*
X1604Y35D01*
X1603Y35D01*
X1602Y35D01*
X1601Y35D01*
X1600Y35D01*
X1599Y36D01*
X1598Y36D01*
X1597Y36D01*
X1596Y36D01*
X1595Y36D01*
X1594Y37D01*
X1593Y37D01*
X1592Y37D01*
X1591Y37D01*
X1590Y37D01*
X1589Y38D01*
X1588Y38D01*
X1587Y38D01*
X1586Y38D01*
X1585Y38D01*
X1584Y39D01*
X1583Y39D01*
X1582Y39D01*
X1581Y39D01*
X1580Y39D01*
X1579Y40D01*
X1578Y40D01*
X1577Y40D01*
X1576Y40D01*
X1575Y40D01*
X1574Y41D01*
X1573Y41D01*
X1572Y41D01*
X1571Y41D01*
X1570Y41D01*
X1569Y42D01*
X1568Y42D01*
X1567Y42D01*
X1566Y42D01*
X1565Y42D01*
X1564Y43D01*
X1563Y43D01*
X1562Y43D01*
X1561Y43D01*
X1560Y43D01*
X1559Y44D01*
X1558Y44D01*
X1557Y44D01*
X1556Y44D01*
X1555Y44D01*
X1554Y45D01*
X1553Y45D01*
X1552Y45D01*
X1551Y45D01*
X1550Y46D01*
X1549Y46D01*
X1548Y46D01*
X1547Y46D01*
X1546Y46D01*
X1545Y47D01*
X1544Y47D01*
X1543Y47D01*
X1542Y47D01*
X1541Y48D01*
X1540Y48D01*
X1539Y48D01*
X1538Y48D01*
X1537Y48D01*
X1536Y49D01*
X1535Y49D01*
X1534Y49D01*
X1533Y49D01*
X1532Y50D01*
X1531Y50D01*
X1530Y50D01*
X1529Y50D01*
X1528Y50D01*
X1527Y51D01*
X1526Y51D01*
X1525Y51D01*
X1524Y51D01*
X1523Y52D01*
X1522Y52D01*
X1521Y52D01*
X1520Y52D01*
X1519Y53D01*
X1518Y53D01*
X1517Y53D01*
X1516Y53D01*
X1515Y53D01*
X1514Y54D01*
X1513Y54D01*
X1512Y54D01*
X1511Y54D01*
X1510Y55D01*
X1509Y55D01*
X1508Y55D01*
X1507Y55D01*
X1506Y56D01*
X1505Y56D01*
X1504Y56D01*
X1503Y56D01*
X1502Y57D01*
X1501Y57D01*
X1500Y57D01*
X1499Y57D01*
X1498Y58D01*
X1497Y58D01*
X1496Y58D01*
X1495Y58D01*
X1494Y59D01*
X1493Y59D01*
X1492Y59D01*
X1491Y59D01*
X1490Y60D01*
X1489Y60D01*
X1488Y60D01*
X1487Y60D01*
X1486Y61D01*
X1485Y61D01*
X1484Y61D01*
X1483Y61D01*
X1482Y62D01*
X1481Y62D01*
X1480Y62D01*
X1479Y62D01*
X1478Y63D01*
X1477Y63D01*
X1476Y63D01*
X1475Y63D01*
X1474Y64D01*
X1473Y64D01*
X1472Y64D01*
X1471Y64D01*
X1470Y65D01*
X1469Y65D01*
X1468Y65D01*
X1467Y65D01*
X1466Y66D01*
X1465Y66D01*
X1464Y66D01*
X1463Y66D01*
X1462Y67D01*
X1461Y67D01*
X1460Y67D01*
X1459Y68D01*
X1458Y68D01*
X1457Y68D01*
X1456Y68D01*
X1455Y69D01*
X1454Y69D01*
X1453Y69D01*
X1452Y69D01*
X1451Y70D01*
X1450Y70D01*
X1449Y70D01*
X1448Y71D01*
X1447Y71D01*
X1446Y71D01*
X1445Y71D01*
X1444Y72D01*
X1443Y72D01*
X1442Y72D01*
X1441Y72D01*
X1440Y73D01*
X1439Y73D01*
X1438Y73D01*
X1437Y74D01*
X1436Y74D01*
X1435Y74D01*
X1434Y74D01*
X1433Y75D01*
X1432Y75D01*
X1431Y75D01*
X1430Y75D01*
X1429Y76D01*
X1428Y76D01*
X1427Y76D01*
X1426Y77D01*
X1425Y77D01*
X1424Y77D01*
X1423Y78D01*
X1422Y78D01*
X1421Y78D01*
X1420Y78D01*
X1419Y79D01*
X1418Y79D01*
X1417Y79D01*
X1416Y80D01*
X1415Y80D01*
X1414Y80D01*
X1413Y80D01*
X1412Y81D01*
X1411Y81D01*
X1410Y81D01*
X1409Y82D01*
X1408Y82D01*
X1407Y82D01*
X1406Y82D01*
X1405Y83D01*
X1404Y83D01*
X1403Y83D01*
X1402Y84D01*
X1401Y84D01*
X1400Y84D01*
X1399Y85D01*
X1398Y85D01*
X1397Y85D01*
X1396Y86D01*
X1395Y86D01*
X1394Y86D01*
X1393Y86D01*
X1392Y87D01*
X1391Y87D01*
X1390Y87D01*
X1389Y88D01*
X1388Y88D01*
X1387Y88D01*
X1386Y89D01*
X1385Y89D01*
X1384Y89D01*
X1383Y89D01*
X1382Y90D01*
X1381Y90D01*
X1380Y90D01*
X1379Y91D01*
X1378Y91D01*
X1377Y91D01*
X1376Y92D01*
X1375Y92D01*
X1374Y92D01*
X1373Y93D01*
X1372Y93D01*
X1371Y93D01*
X1370Y94D01*
X1369Y94D01*
X1368Y94D01*
X1367Y95D01*
X1366Y95D01*
X1365Y95D01*
X1364Y95D01*
X1363Y96D01*
X1362Y96D01*
X1361Y96D01*
X1360Y97D01*
X1359Y97D01*
X1358Y97D01*
X1357Y98D01*
X1356Y98D01*
X1355Y98D01*
X1354Y99D01*
X1353Y99D01*
X1352Y99D01*
X1351Y100D01*
X1350Y100D01*
X1349Y100D01*
X1348Y101D01*
X1347Y101D01*
X1346Y101D01*
X1345Y102D01*
X1344Y102D01*
X1343Y102D01*
X1342Y103D01*
X1341Y103D01*
X1340Y103D01*
X1339Y104D01*
X1338Y104D01*
X1337Y104D01*
X1336Y105D01*
X1335Y105D01*
X1334Y105D01*
X1333Y106D01*
X1332Y106D01*
X1331Y106D01*
X1330Y107D01*
X1329Y107D01*
X1328Y107D01*
X1327Y108D01*
X1326Y108D01*
X1325Y109D01*
X1324Y109D01*
X1323Y109D01*
X1322Y110D01*
X1321Y110D01*
X1320Y110D01*
X1319Y111D01*
X1318Y111D01*
X1317Y111D01*
X1316Y112D01*
X1315Y112D01*
X1314Y112D01*
X1313Y113D01*
X1312Y113D01*
X1311Y113D01*
X1310Y114D01*
X1309Y114D01*
X1308Y114D01*
X1307Y115D01*
X1306Y115D01*
X1305Y116D01*
X1304Y116D01*
X1303Y116D01*
X1302Y117D01*
X1301Y117D01*
X1300Y117D01*
X1299Y118D01*
X1298Y118D01*
X1297Y118D01*
X1296Y119D01*
X1295Y119D01*
X1294Y120D01*
X1293Y120D01*
X1292Y120D01*
X1291Y121D01*
X1290Y121D01*
X1289Y121D01*
X1288Y122D01*
X1287Y122D01*
X1286Y122D01*
X1285Y123D01*
X1284Y123D01*
X1283Y124D01*
X1282Y124D01*
X1281Y124D01*
X1280Y125D01*
X1279Y125D01*
X1278Y125D01*
X1277Y126D01*
X1276Y126D01*
X1275Y127D01*
X1274Y127D01*
X1273Y127D01*
X1272Y128D01*
X1271Y128D01*
X1270Y128D01*
X1269Y129D01*
X1268Y129D01*
X1267Y130D01*
X1266Y130D01*
X1265Y130D01*
X1264Y131D01*
X1263Y131D01*
X1262Y132D01*
X1261Y132D01*
X1260Y132D01*
X1259Y133D01*
X1258Y133D01*
X1257Y133D01*
X1256Y134D01*
X1255Y134D01*
X1254Y135D01*
X1253Y135D01*
X1252Y135D01*
X1251Y136D01*
X1250Y136D01*
X1249Y137D01*
X1248Y137D01*
X1247Y137D01*
X1246Y138D01*
X1245Y138D01*
X1244Y139D01*
X1243Y139D01*
X1242Y139D01*
X1241Y140D01*
X1240Y140D01*
X1239Y141D01*
X1238Y141D01*
X1237Y141D01*
X1236Y142D01*
X1235Y142D01*
X1234Y143D01*
X1233Y143D01*
X1232Y143D01*
X1231Y144D01*
X1230Y144D01*
X1229Y145D01*
X1228Y145D01*
X1227Y145D01*
X1226Y146D01*
X1225Y146D01*
X1224Y147D01*
X1223Y147D01*
X1222Y147D01*
X1221Y148D01*
X1220Y148D01*
X1219Y149D01*
X1218Y149D01*
X1217Y149D01*
X1216Y150D01*
X1215Y150D01*
X1214Y151D01*
X1213Y151D01*
X1212Y152D01*
X1211Y152D01*
X1210Y152D01*
X1209Y153D01*
X1208Y153D01*
X1207Y154D01*
X1206Y154D01*
X1205Y154D01*
X1204Y155D01*
X1203Y155D01*
X1202Y156D01*
X1201Y156D01*
X1200Y157D01*
X1199Y157D01*
X1198Y157D01*
X1197Y158D01*
X1196Y158D01*
X1195Y159D01*
X1194Y159D01*
X1193Y160D01*
X1192Y160D01*
X1191Y160D01*
X1190Y161D01*
X1189Y161D01*
X1188Y162D01*
X1187Y162D01*
X1186Y163D01*
X1185Y163D01*
X1184Y163D01*
X1183Y164D01*
X1182Y164D01*
X1181Y165D01*
X1180Y165D01*
X1179Y166D01*
X1178Y166D01*
X1177Y166D01*
X1176Y167D01*
X1175Y167D01*
X1174Y168D01*
X1173Y168D01*
X1172Y169D01*
X1171Y169D01*
X1170Y170D01*
X1169Y170D01*
X1168Y170D01*
X1167Y171D01*
X1166Y171D01*
X1165Y172D01*
X1164Y172D01*
X1163Y173D01*
X1162Y173D01*
X1161Y174D01*
X1160Y174D01*
X1159Y174D01*
X1158Y175D01*
X1157Y175D01*
X1156Y176D01*
X1155Y176D01*
X1154Y177D01*
X1153Y177D01*
X1152Y178D01*
X1151Y178D01*
X1150Y179D01*
X1149Y179D01*
X1148Y180D01*
X1147Y180D01*
X1146Y180D01*
X1145Y181D01*
X1144Y181D01*
X1143Y182D01*
X1142Y182D01*
X1141Y183D01*
X1140Y183D01*
X1139Y184D01*
X1138Y184D01*
X1137Y185D01*
X1136Y185D01*
X1135Y186D01*
X1134Y186D01*
X1133Y186D01*
X1132Y187D01*
X1131Y187D01*
X1130Y188D01*
X1129Y188D01*
X1128Y189D01*
X1127Y189D01*
X1126Y190D01*
X1125Y190D01*
X1124Y191D01*
X1123Y191D01*
X1122Y192D01*
X1121Y192D01*
X1120Y193D01*
X1119Y193D01*
X1118Y194D01*
X1117Y194D01*
X1116Y195D01*
X1115Y195D01*
X1114Y195D01*
X1113Y196D01*
X1112Y196D01*
X1111Y197D01*
X1110Y197D01*
X1109Y198D01*
X1108Y198D01*
X1107Y199D01*
X1106Y199D01*
X1105Y200D01*
X1104Y200D01*
X1103Y201D01*
X1102Y201D01*
X1101Y202D01*
X1100Y202D01*
X1099Y203D01*
X1098Y203D01*
X1097Y204D01*
X1096Y204D01*
X1095Y205D01*
X1094Y205D01*
X1093Y206D01*
X1092Y206D01*
X1091Y207D01*
X1090Y207D01*
X1089Y208D01*
X1088Y208D01*
X1087Y209D01*
X1086Y209D01*
X1085Y210D01*
X1084Y210D01*
X1083Y211D01*
X1082Y211D01*
X1081Y212D01*
X1080Y212D01*
X1079Y213D01*
X1078Y213D01*
X1077Y214D01*
X1076Y214D01*
X1075Y215D01*
X1074Y215D01*
X1073Y216D01*
X1072Y216D01*
X1071Y217D01*
X1070Y217D01*
X1069Y218D01*
X1068Y218D01*
X1067Y219D01*
X1066Y219D01*
X1065Y220D01*
X1064Y221D01*
X1063Y221D01*
X1062Y222D01*
X1061Y222D01*
X1060Y223D01*
X1059Y223D01*
X1058Y224D01*
X1057Y224D01*
X1056Y225D01*
X1055Y225D01*
X1054Y226D01*
X1053Y226D01*
X1052Y227D01*
X1051Y227D01*
X1050Y228D01*
X1049Y228D01*
X1048Y229D01*
X1047Y229D01*
X1046Y230D01*
X1045Y230D01*
X1044Y231D01*
X1043Y232D01*
X1042Y232D01*
X1041Y233D01*
X1040Y233D01*
X1039Y234D01*
X1038Y234D01*
X1037Y235D01*
X1036Y235D01*
X1035Y236D01*
X1034Y236D01*
X1033Y237D01*
X1032Y237D01*
X1031Y238D01*
X1030Y239D01*
X1029Y239D01*
X1028Y240D01*
X1027Y240D01*
X1026Y241D01*
X1025Y241D01*
X1024Y242D01*
X1023Y242D01*
X1022Y243D01*
X1021Y243D01*
X1020Y244D01*
X1019Y245D01*
X1018Y245D01*
X1017Y246D01*
X1016Y246D01*
X1015Y247D01*
X1014Y247D01*
X1013Y248D01*
X1012Y248D01*
X1011Y249D01*
X1010Y250D01*
X1009Y250D01*
X1008Y251D01*
X1007Y251D01*
X1006Y252D01*
X1005Y252D01*
X1004Y253D01*
X1003Y253D01*
X1002Y254D01*
X1001Y255D01*
X1000Y255D01*
X999Y256D01*
X998Y256D01*
X997Y257D01*
X996Y257D01*
X995Y258D01*
X994Y259D01*
X993Y259D01*
X992Y260D01*
X991Y260D01*
X990Y261D01*
X989Y261D01*
X988Y262D01*
X987Y263D01*
X986Y263D01*
X985Y264D01*
X984Y264D01*
X983Y265D01*
X982Y265D01*
X981Y266D01*
X980Y267D01*
X979Y267D01*
X978Y268D01*
X977Y268D01*
X976Y269D01*
X975Y270D01*
X974Y270D01*
X973Y271D01*
X972Y271D01*
X971Y272D01*
X970Y272D01*
X969Y273D01*
X968Y274D01*
X967Y274D01*
X966Y275D01*
X965Y275D01*
X964Y276D01*
X963Y277D01*
X962Y277D01*
X961Y278D01*
X960Y278D01*
X959Y279D01*
X958Y280D01*
X957Y280D01*
X956Y281D01*
X955Y281D01*
X954Y282D01*
X953Y283D01*
X952Y283D01*
X951Y284D01*
X950Y284D01*
X949Y285D01*
X948Y286D01*
X947Y286D01*
X946Y287D01*
X945Y287D01*
X944Y288D01*
X943Y289D01*
X942Y289D01*
X941Y290D01*
X940Y291D01*
X939Y291D01*
X938Y292D01*
X937Y292D01*
X936Y293D01*
X935Y294D01*
X934Y294D01*
X933Y295D01*
X932Y295D01*
X931Y296D01*
X930Y297D01*
X929Y297D01*
X928Y298D01*
X927Y299D01*
X926Y299D01*
X925Y300D01*
X924Y300D01*
X923Y301D01*
X922Y302D01*
X921Y302D01*
X920Y303D01*
X919Y304D01*
X918Y304D01*
X917Y305D01*
X916Y305D01*
X915Y306D01*
X914Y307D01*
X913Y307D01*
X912Y308D01*
X911Y309D01*
X910Y309D01*
X909Y310D01*
X908Y311D01*
X907Y311D01*
X906Y312D01*
X905Y312D01*
X904Y313D01*
X903Y314D01*
X902Y314D01*
X901Y315D01*
X900Y316D01*
X899Y316D01*
X898Y317D01*
X897Y318D01*
X896Y318D01*
X895Y319D01*
X894Y320D01*
X893Y320D01*
X892Y321D01*
X891Y322D01*
X890Y322D01*
X889Y323D01*
X888Y324D01*
X887Y324D01*
X886Y325D01*
X885Y326D01*
X884Y326D01*
X883Y327D01*
X882Y328D01*
X881Y328D01*
X880Y329D01*
X879Y330D01*
X878Y330D01*
X877Y331D01*
X876Y332D01*
X875Y332D01*
X874Y333D01*
X873Y334D01*
X872Y334D01*
X871Y335D01*
X870Y336D01*
X869Y336D01*
X868Y337D01*
X867Y338D01*
X866Y338D01*
X865Y339D01*
X864Y340D01*
X863Y340D01*
X862Y341D01*
X861Y342D01*
X860Y342D01*
X859Y343D01*
X858Y344D01*
X857Y344D01*
X856Y345D01*
X855Y346D01*
X854Y346D01*
X853Y347D01*
X852Y348D01*
X851Y348D01*
X850Y349D01*
X849Y350D01*
X848Y351D01*
X847Y351D01*
X846Y352D01*
X845Y353D01*
X844Y353D01*
X843Y354D01*
X842Y355D01*
X841Y355D01*
X840Y356D01*
X839Y357D01*
X838Y358D01*
X837Y358D01*
X836Y359D01*
X835Y360D01*
X834Y360D01*
X833Y361D01*
X832Y362D01*
X831Y362D01*
X830Y363D01*
X829Y364D01*
X828Y365D01*
X827Y365D01*
X826Y366D01*
X825Y367D01*
X824Y367D01*
X823Y368D01*
X822Y369D01*
X821Y370D01*
X820Y370D01*
X819Y371D01*
X818Y372D01*
X817Y372D01*
X816Y373D01*
X815Y374D01*
X814Y375D01*
X813Y375D01*
X812Y376D01*
X811Y377D01*
X810Y378D01*
X809Y378D01*
X808Y379D01*
X807Y380D01*
X806Y380D01*
X805Y381D01*
X804Y382D01*
X803Y383D01*
X802Y383D01*
X801Y384D01*
X800Y385D01*
X799Y386D01*
X798Y386D01*
X797Y387D01*
X796Y388D01*
X795Y389D01*
X794Y389D01*
X793Y390D01*
X792Y391D01*
X791Y392D01*
X790Y392D01*
X789Y393D01*
X788Y394D01*
X787Y395D01*
X786Y395D01*
X785Y396D01*
X784Y397D01*
X783Y398D01*
X782Y398D01*
X781Y399D01*
X780Y400D01*
X779Y401D01*
X778Y401D01*
X777Y402D01*
X776Y403D01*
X775Y404D01*
X774Y404D01*
X773Y405D01*
X772Y406D01*
X771Y407D01*
X770Y407D01*
X769Y408D01*
X768Y409D01*
X767Y410D01*
X766Y411D01*
X765Y411D01*
X764Y412D01*
X763Y413D01*
X762Y414D01*
X761Y414D01*
X760Y415D01*
X759Y416D01*
X758Y417D01*
X757Y418D01*
X756Y418D01*
X755Y419D01*
X754Y420D01*
X753Y421D01*
X752Y421D01*
X751Y422D01*
X750Y423D01*
X749Y424D01*
X748Y425D01*
X747Y425D01*
X746Y426D01*
X745Y427D01*
X744Y428D01*
X743Y429D01*
X742Y429D01*
X741Y430D01*
X740Y431D01*
X739Y432D01*
X738Y433D01*
X737Y433D01*
X736Y434D01*
X735Y435D01*
X734Y436D01*
X733Y437D01*
X732Y437D01*
X731Y438D01*
X730Y439D01*
X729Y440D01*
X728Y441D01*
X727Y441D01*
X726Y442D01*
X725Y443D01*
X724Y444D01*
X723Y445D01*
X722Y446D01*
X721Y446D01*
X720Y447D01*
X719Y448D01*
X718Y449D01*
X717Y450D01*
X716Y450D01*
X715Y451D01*
X714Y452D01*
X713Y453D01*
X712Y454D01*
X711Y455D01*
X710Y455D01*
X709Y456D01*
X708Y457D01*
X707Y458D01*
X706Y459D01*
X705Y460D01*
X704Y460D01*
X703Y461D01*
X702Y462D01*
X701Y463D01*
X700Y464D01*
X699Y465D01*
X698Y465D01*
X697Y466D01*
X696Y467D01*
X695Y468D01*
X694Y469D01*
X693Y470D01*
X692Y471D01*
X691Y471D01*
X690Y472D01*
X689Y473D01*
X688Y474D01*
X687Y475D01*
X686Y476D01*
X685Y477D01*
X684Y477D01*
X683Y478D01*
X682Y479D01*
X681Y480D01*
X680Y481D01*
X679Y482D01*
X678Y483D01*
X677Y483D01*
X676Y484D01*
X675Y485D01*
X674Y486D01*
X673Y487D01*
X672Y488D01*
X671Y489D01*
X670Y490D01*
X669Y490D01*
X668Y491D01*
X667Y492D01*
X666Y493D01*
X665Y494D01*
X664Y495D01*
X663Y496D01*
X662Y497D01*
X661Y498D01*
X660Y498D01*
X659Y499D01*
X658Y500D01*
X657Y501D01*
X656Y502D01*
X655Y503D01*
X654Y504D01*
X653Y505D01*
X652Y506D01*
X651Y506D01*
X650Y507D01*
X649Y508D01*
X648Y509D01*
X647Y510D01*
X646Y511D01*
X645Y512D01*
X644Y513D01*
X643Y514D01*
X642Y515D01*
X641Y516D01*
X640Y516D01*
X639Y517D01*
X638Y518D01*
X637Y519D01*
X636Y520D01*
X635Y521D01*
X634Y522D01*
X633Y523D01*
X632Y524D01*
X631Y525D01*
X630Y526D01*
X629Y527D01*
X628Y527D01*
X627Y528D01*
X626Y529D01*
X625Y530D01*
X624Y531D01*
X623Y532D01*
X622Y533D01*
X621Y534D01*
X620Y535D01*
X619Y536D01*
X618Y537D01*
X617Y538D01*
X616Y539D01*
X615Y540D01*
X614Y541D01*
X613Y542D01*
X612Y543D01*
X611Y543D01*
X610Y544D01*
X609Y545D01*
X608Y546D01*
X607Y547D01*
X606Y548D01*
X605Y549D01*
X604Y550D01*
X603Y551D01*
X602Y552D01*
X601Y553D01*
X600Y554D01*
X599Y555D01*
X598Y556D01*
X597Y557D01*
X596Y558D01*
X595Y559D01*
X594Y560D01*
X593Y561D01*
X592Y562D01*
X591Y563D01*
X590Y564D01*
X589Y565D01*
X588Y566D01*
X587Y567D01*
X586Y568D01*
X585Y569D01*
X584Y570D01*
X583Y571D01*
X582Y572D01*
X581Y573D01*
X580Y574D01*
X579Y575D01*
X578Y576D01*
X577Y577D01*
X576Y578D01*
X575Y579D01*
X574Y580D01*
X573Y581D01*
X572Y582D01*
X571Y583D01*
X570Y584D01*
X569Y585D01*
X568Y586D01*
X567Y587D01*
X566Y588D01*
X565Y589D01*
X564Y590D01*
X563Y591D01*
X562Y592D01*
X561Y593D01*
X560Y594D01*
X559Y595D01*
X558Y596D01*
X557Y597D01*
X556Y598D01*
X555Y599D01*
X554Y600D01*
X553Y601D01*
X552Y602D01*
X551Y603D01*
X550Y604D01*
X549Y605D01*
X548Y606D01*
X547Y607D01*
X546Y608D01*
X545Y609D01*
X544Y610D01*
X543Y611D01*
X542Y612D01*
X542Y613D01*
X541Y614D01*
X540Y615D01*
X539Y616D01*
X538Y617D01*
X537Y618D01*
X536Y619D01*
X535Y620D01*
X534Y621D01*
X533Y622D01*
X532Y623D01*
X531Y624D01*
X530Y625D01*
X529Y626D01*
X528Y627D01*
X527Y628D01*
X526Y629D01*
X526Y630D01*
X525Y631D01*
X524Y632D01*
X523Y633D01*
X522Y634D01*
X521Y635D01*
X520Y636D01*
X519Y637D01*
X518Y638D01*
X517Y639D01*
X516Y640D01*
X515Y641D01*
X515Y642D01*
X514Y643D01*
X513Y644D01*
X512Y645D01*
X511Y646D01*
X510Y647D01*
X509Y648D01*
X508Y649D01*
X507Y650D01*
X506Y651D01*
X505Y652D01*
X505Y653D01*
X504Y654D01*
X503Y655D01*
X502Y656D01*
X501Y657D01*
X500Y658D01*
X499Y659D01*
X498Y660D01*
X497Y661D01*
X497Y662D01*
X496Y663D01*
X495Y664D01*
X494Y665D01*
X493Y666D01*
X492Y667D01*
X491Y668D01*
X490Y669D01*
X489Y670D01*
X489Y671D01*
X488Y672D01*
X487Y673D01*
X486Y674D01*
X485Y675D01*
X484Y676D01*
X483Y677D01*
X482Y678D01*
X482Y679D01*
X481Y680D01*
X480Y681D01*
X479Y682D01*
X478Y683D01*
X477Y684D01*
X476Y685D01*
X476Y686D01*
X475Y687D01*
X474Y688D01*
X473Y689D01*
X472Y690D01*
X471Y691D01*
X470Y692D01*
X470Y693D01*
X469Y694D01*
X468Y695D01*
X467Y696D01*
X466Y697D01*
X465Y698D01*
X464Y699D01*
X464Y700D01*
X463Y701D01*
X462Y702D01*
X461Y703D01*
X460Y704D01*
X459Y705D01*
X459Y706D01*
X458Y707D01*
X457Y708D01*
X456Y709D01*
X455Y710D01*
X454Y711D01*
X454Y712D01*
X453Y713D01*
X452Y714D01*
X451Y715D01*
X450Y716D01*
X449Y717D01*
X449Y718D01*
X448Y719D01*
X447Y720D01*
X446Y721D01*
X445Y722D01*
X445Y723D01*
X444Y724D01*
X443Y725D01*
X442Y726D01*
X441Y727D01*
X440Y728D01*
X440Y729D01*
X439Y730D01*
X438Y731D01*
X437Y732D01*
X436Y733D01*
X436Y734D01*
X435Y735D01*
X434Y736D01*
X433Y737D01*
X432Y738D01*
X432Y739D01*
X431Y740D01*
X430Y741D01*
X429Y742D01*
X428Y743D01*
X428Y744D01*
X427Y745D01*
X426Y746D01*
X425Y747D01*
X424Y748D01*
X424Y749D01*
X423Y750D01*
X422Y751D01*
X421Y752D01*
X420Y753D01*
X420Y754D01*
X419Y755D01*
X418Y756D01*
X417Y757D01*
X417Y758D01*
X416Y759D01*
X415Y760D01*
X414Y761D01*
X413Y762D01*
X413Y763D01*
X412Y764D01*
X411Y765D01*
X410Y766D01*
X410Y767D01*
X409Y768D01*
X408Y769D01*
X407Y770D01*
X406Y771D01*
X406Y772D01*
X405Y773D01*
X404Y774D01*
X403Y775D01*
X403Y776D01*
X402Y777D01*
X401Y778D01*
X400Y779D01*
X400Y780D01*
X399Y781D01*
X398Y782D01*
X397Y783D01*
X397Y784D01*
X396Y785D01*
X395Y786D01*
X394Y787D01*
X394Y788D01*
X393Y789D01*
X392Y790D01*
X391Y791D01*
X391Y792D01*
X390Y793D01*
X389Y794D01*
X388Y795D01*
X388Y796D01*
X387Y797D01*
X386Y798D01*
X385Y799D01*
X385Y800D01*
X384Y801D01*
X383Y802D01*
X382Y803D01*
X382Y804D01*
X381Y805D01*
X380Y806D01*
X379Y807D01*
X379Y808D01*
X378Y809D01*
X377Y810D01*
X377Y811D01*
X376Y812D01*
X375Y813D01*
X374Y814D01*
X374Y815D01*
X373Y816D01*
X372Y817D01*
X371Y818D01*
X371Y819D01*
X370Y820D01*
X369Y821D01*
X369Y822D01*
X368Y823D01*
X367Y824D01*
X366Y825D01*
X366Y826D01*
X365Y827D01*
X364Y828D01*
X364Y829D01*
X363Y830D01*
X362Y831D01*
X361Y832D01*
X361Y833D01*
X360Y834D01*
X359Y835D01*
X359Y836D01*
X358Y837D01*
X357Y838D01*
X357Y839D01*
X356Y840D01*
X355Y841D01*
X354Y842D01*
X354Y843D01*
X353Y844D01*
X352Y845D01*
X352Y846D01*
X351Y847D01*
X350Y848D01*
X350Y849D01*
X349Y850D01*
X348Y851D01*
X347Y852D01*
X347Y853D01*
X346Y854D01*
X345Y855D01*
X345Y856D01*
X344Y857D01*
X343Y858D01*
X343Y859D01*
X342Y860D01*
X341Y861D01*
X341Y862D01*
X340Y863D01*
X339Y864D01*
X339Y865D01*
X338Y866D01*
X337Y867D01*
X337Y868D01*
X336Y869D01*
X335Y870D01*
X335Y871D01*
X334Y872D01*
X333Y873D01*
X333Y874D01*
X332Y875D01*
X331Y876D01*
X331Y877D01*
X330Y878D01*
X329Y879D01*
X329Y880D01*
X328Y881D01*
X327Y882D01*
X327Y883D01*
X326Y884D01*
X325Y885D01*
X325Y886D01*
X324Y887D01*
X323Y888D01*
X323Y889D01*
X322Y890D01*
X321Y891D01*
X321Y892D01*
X320Y893D01*
X319Y894D01*
X319Y895D01*
X318Y896D01*
X317Y897D01*
X317Y898D01*
X316Y899D01*
X315Y900D01*
X315Y901D01*
X314Y902D01*
X313Y903D01*
X313Y904D01*
X312Y905D01*
X311Y906D01*
X311Y907D01*
X310Y908D01*
X310Y909D01*
X309Y910D01*
X308Y911D01*
X308Y912D01*
X307Y913D01*
X306Y914D01*
X306Y915D01*
X305Y916D01*
X304Y917D01*
X304Y918D01*
X303Y919D01*
X303Y920D01*
X302Y921D01*
X301Y922D01*
X301Y923D01*
X300Y924D01*
X299Y925D01*
X299Y926D01*
X298Y927D01*
X298Y928D01*
X297Y929D01*
X296Y930D01*
X296Y931D01*
X295Y932D01*
X294Y933D01*
X294Y934D01*
X293Y935D01*
X293Y936D01*
X292Y937D01*
X291Y938D01*
X291Y939D01*
X290Y940D01*
X290Y941D01*
X289Y942D01*
X288Y943D01*
X288Y944D01*
X287Y945D01*
X286Y946D01*
X286Y947D01*
X285Y948D01*
X285Y949D01*
X284Y950D01*
X283Y951D01*
X283Y952D01*
X282Y953D01*
X282Y954D01*
X281Y955D01*
X280Y956D01*
X280Y957D01*
X279Y958D01*
X279Y959D01*
X278Y960D01*
X277Y961D01*
X277Y962D01*
X276Y963D01*
X276Y964D01*
X275Y965D01*
X274Y966D01*
X274Y967D01*
X273Y968D01*
X273Y969D01*
X272Y970D01*
X271Y971D01*
X271Y972D01*
X270Y973D01*
X270Y974D01*
X269Y975D01*
X269Y976D01*
X268Y977D01*
X267Y978D01*
X267Y979D01*
X266Y980D01*
X266Y981D01*
X265Y982D01*
X264Y983D01*
X264Y984D01*
X263Y985D01*
X263Y986D01*
X262Y987D01*
X262Y988D01*
X261Y989D01*
X260Y990D01*
X260Y991D01*
X259Y992D01*
X259Y993D01*
X258Y994D01*
X258Y995D01*
X257Y996D01*
X256Y997D01*
X256Y998D01*
X255Y999D01*
X255Y1000D01*
X254Y1001D01*
X254Y1002D01*
X253Y1003D01*
X252Y1004D01*
X252Y1005D01*
X251Y1006D01*
X251Y1007D01*
X250Y1008D01*
X250Y1009D01*
X249Y1010D01*
X249Y1011D01*
X248Y1012D01*
X247Y1013D01*
X247Y1014D01*
X246Y1015D01*
X246Y1016D01*
X245Y1017D01*
X245Y1018D01*
X244Y1019D01*
X244Y1020D01*
X243Y1021D01*
X242Y1022D01*
X242Y1023D01*
X241Y1024D01*
X241Y1025D01*
X240Y1026D01*
X240Y1027D01*
X239Y1028D01*
X239Y1029D01*
X238Y1030D01*
X237Y1031D01*
X237Y1032D01*
X236Y1033D01*
X236Y1034D01*
X235Y1035D01*
X235Y1036D01*
X234Y1037D01*
X234Y1038D01*
X233Y1039D01*
X233Y1040D01*
X232Y1041D01*
X232Y1042D01*
X231Y1043D01*
X231Y1044D01*
X230Y1045D01*
X229Y1046D01*
X229Y1047D01*
X228Y1048D01*
X228Y1049D01*
X227Y1050D01*
X227Y1051D01*
X226Y1052D01*
X226Y1053D01*
X225Y1054D01*
X225Y1055D01*
X224Y1056D01*
X224Y1057D01*
X223Y1058D01*
X223Y1059D01*
X222Y1060D01*
X222Y1061D01*
X221Y1062D01*
X221Y1063D01*
X220Y1064D01*
X220Y1065D01*
X219Y1066D01*
X218Y1067D01*
X218Y1068D01*
X217Y1069D01*
X217Y1070D01*
X216Y1071D01*
X216Y1072D01*
X215Y1073D01*
X215Y1074D01*
X214Y1075D01*
X214Y1076D01*
X213Y1077D01*
X213Y1078D01*
X212Y1079D01*
X212Y1080D01*
X211Y1081D01*
X211Y1082D01*
X210Y1083D01*
X210Y1084D01*
X209Y1085D01*
X209Y1086D01*
X208Y1087D01*
X208Y1088D01*
X207Y1089D01*
X207Y1090D01*
X206Y1091D01*
X206Y1092D01*
X205Y1093D01*
X205Y1094D01*
X204Y1095D01*
X204Y1096D01*
X203Y1097D01*
X203Y1098D01*
X202Y1099D01*
X202Y1100D01*
X201Y1101D01*
X201Y1102D01*
X200Y1103D01*
X200Y1104D01*
X199Y1105D01*
X199Y1106D01*
X198Y1107D01*
X198Y1108D01*
X197Y1109D01*
X197Y1110D01*
X196Y1111D01*
X196Y1112D01*
X195Y1113D01*
X195Y1114D01*
X194Y1115D01*
X194Y1117D01*
X193Y1118D01*
X193Y1119D01*
X192Y1120D01*
X192Y1121D01*
X191Y1122D01*
X191Y1123D01*
X190Y1124D01*
X190Y1125D01*
X189Y1126D01*
X189Y1127D01*
X188Y1128D01*
X188Y1129D01*
X187Y1130D01*
X187Y1131D01*
X186Y1132D01*
X186Y1133D01*
X185Y1134D01*
X185Y1136D01*
X184Y1137D01*
X184Y1138D01*
X183Y1139D01*
X183Y1140D01*
X182Y1141D01*
X182Y1142D01*
X181Y1143D01*
X181Y1144D01*
X180Y1145D01*
X180Y1146D01*
X179Y1147D01*
X179Y1149D01*
X178Y1150D01*
X178Y1151D01*
X177Y1152D01*
X177Y1153D01*
X176Y1154D01*
X176Y1155D01*
X175Y1156D01*
X175Y1157D01*
X174Y1158D01*
X174Y1159D01*
X173Y1160D01*
X173Y1162D01*
X172Y1163D01*
X172Y1164D01*
X171Y1165D01*
X171Y1166D01*
X170Y1167D01*
X170Y1168D01*
X169Y1169D01*
X169Y1171D01*
X168Y1172D01*
X168Y1173D01*
X167Y1174D01*
X167Y1175D01*
X166Y1176D01*
X166Y1177D01*
X165Y1178D01*
X165Y1180D01*
X164Y1181D01*
X164Y1182D01*
X163Y1183D01*
X163Y1184D01*
X162Y1185D01*
X162Y1187D01*
X161Y1188D01*
X161Y1189D01*
X160Y1190D01*
X160Y1191D01*
X159Y1192D01*
X159Y1194D01*
X158Y1195D01*
X158Y1196D01*
X157Y1197D01*
X157Y1198D01*
X156Y1199D01*
X156Y1201D01*
X155Y1202D01*
X155Y1203D01*
X154Y1204D01*
X154Y1205D01*
X153Y1206D01*
X153Y1208D01*
X152Y1209D01*
X152Y1210D01*
X151Y1211D01*
X151Y1213D01*
X150Y1214D01*
X150Y1215D01*
X149Y1216D01*
X149Y1217D01*
X148Y1218D01*
X148Y1220D01*
X147Y1221D01*
X147Y1222D01*
X146Y1223D01*
X146Y1225D01*
X145Y1226D01*
X145Y1227D01*
X144Y1228D01*
X144Y1230D01*
X143Y1231D01*
X143Y1232D01*
X142Y1233D01*
X142Y1235D01*
X141Y1236D01*
X141Y1237D01*
X140Y1238D01*
X140Y1240D01*
X139Y1241D01*
X139Y1242D01*
X138Y1243D01*
X138Y1245D01*
X137Y1246D01*
X137Y1247D01*
X136Y1248D01*
X136Y1250D01*
X135Y1251D01*
X135Y1252D01*
X134Y1253D01*
X134Y1255D01*
X133Y1256D01*
X133Y1257D01*
X132Y1258D01*
X132Y1260D01*
X131Y1261D01*
X131Y1262D01*
X130Y1263D01*
X130Y1265D01*
X129Y1266D01*
X129Y1268D01*
X128Y1269D01*
X128Y1270D01*
X127Y1271D01*
X127Y1273D01*
X126Y1274D01*
X126Y1276D01*
X125Y1277D01*
X125Y1278D01*
X124Y1279D01*
X124Y1281D01*
X123Y1282D01*
X123Y1284D01*
X122Y1285D01*
X122Y1286D01*
X121Y1287D01*
X121Y1289D01*
X120Y1290D01*
X120Y1292D01*
X119Y1293D01*
X119Y1295D01*
X118Y1296D01*
X118Y1297D01*
X117Y1298D01*
X117Y1300D01*
X116Y1301D01*
X116Y1303D01*
X115Y1304D01*
X115Y1306D01*
X114Y1307D01*
X114Y1308D01*
X113Y1309D01*
X113Y1311D01*
X112Y1312D01*
X112Y1314D01*
X111Y1315D01*
X111Y1317D01*
X110Y1318D01*
X110Y1320D01*
X109Y1321D01*
X109Y1323D01*
X108Y1324D01*
X108Y1326D01*
X107Y1327D01*
X107Y1328D01*
X106Y1329D01*
X106Y1331D01*
X105Y1332D01*
X105Y1334D01*
X104Y1335D01*
X104Y1337D01*
X103Y1338D01*
X103Y1340D01*
X102Y1341D01*
X102Y1343D01*
X101Y1344D01*
X101Y1346D01*
X100Y1347D01*
X100Y1349D01*
X99Y1350D01*
X99Y1352D01*
X98Y1353D01*
X98Y1355D01*
X97Y1356D01*
X97Y1358D01*
X96Y1359D01*
X96Y1361D01*
X95Y1362D01*
X95Y1364D01*
X94Y1365D01*
X94Y1368D01*
X93Y1369D01*
X93Y1371D01*
X92Y1372D01*
X92Y1374D01*
X91Y1375D01*
X91Y1377D01*
X90Y1378D01*
X90Y1380D01*
X89Y1381D01*
X89Y1383D01*
X88Y1384D01*
X88Y1387D01*
X87Y1388D01*
X87Y1390D01*
X86Y1391D01*
X86Y1393D01*
X85Y1394D01*
X85Y1396D01*
X84Y1397D01*
X84Y1400D01*
X83Y1401D01*
X83Y1403D01*
X82Y1404D01*
X82Y1406D01*
X81Y1407D01*
X81Y1410D01*
X80Y1411D01*
X80Y1413D01*
X79Y1414D01*
X79Y1417D01*
X78Y1418D01*
X78Y1420D01*
X77Y1421D01*
X77Y1424D01*
X76Y1425D01*
X76Y1427D01*
X75Y1428D01*
X75Y1430D01*
X74Y1431D01*
X74Y1434D01*
X73Y1435D01*
X73Y1438D01*
X72Y1439D01*
X72Y1441D01*
X71Y1442D01*
X71Y1445D01*
X70Y1446D01*
X70Y1448D01*
X69Y1449D01*
X69Y1452D01*
X68Y1453D01*
X68Y1456D01*
X67Y1457D01*
X67Y1460D01*
X66Y1461D01*
X66Y1463D01*
X65Y1464D01*
X65Y1467D01*
X64Y1468D01*
X64Y1471D01*
X63Y1472D01*
X63Y1475D01*
X62Y1476D01*
X62Y1479D01*
X61Y1480D01*
X61Y1483D01*
X60Y1484D01*
X60Y1487D01*
X59Y1488D01*
X59Y1491D01*
X58Y1492D01*
X58Y1495D01*
X57Y1496D01*
X57Y1499D01*
X56Y1500D01*
X56Y1503D01*
X55Y1504D01*
X55Y1507D01*
X54Y1508D01*
X54Y1511D01*
X53Y1512D01*
X53Y1515D01*
X52Y1516D01*
X52Y1520D01*
X51Y1521D01*
X51Y1524D01*
X50Y1525D01*
X50Y1528D01*
X49Y1529D01*
X49Y1533D01*
X48Y1534D01*
X48Y1537D01*
X47Y1538D01*
X47Y1542D01*
X46Y1543D01*
X46Y1546D01*
X45Y1547D01*
X45Y1551D01*
X44Y1552D01*
X44Y1555D01*
X43Y1556D01*
X43Y1560D01*
X42Y1561D01*
X42Y1565D01*
X41Y1566D01*
X41Y1570D01*
X40Y1571D01*
X40Y1574D01*
X39Y1575D01*
X39Y1579D01*
X38Y1580D01*
X38Y1585D01*
X37Y1586D01*
X37Y1590D01*
X36Y1591D01*
X36Y1595D01*
X35Y1596D01*
X35Y1600D01*
X34Y1601D01*
X34Y1605D01*
X33Y1606D01*
X33Y1611D01*
X32Y1612D01*
X32Y1616D01*
X31Y1617D01*
X31Y1622D01*
X30Y1623D01*
X30Y1627D01*
X29Y1628D01*
X29Y1633D01*
X28Y1634D01*
X28Y1639D01*
X27Y1640D01*
X27Y1645D01*
X26Y1646D01*
X26Y1651D01*
X25Y1652D01*
X25Y1657D01*
X24Y1658D01*
X24Y1664D01*
X23Y1665D01*
X23Y1670D01*
X22Y1671D01*
X22Y1677D01*
X21Y1678D01*
X21Y1684D01*
X20Y1685D01*
X20Y1691D01*
X19Y1692D01*
X19Y1698D01*
X18Y1699D01*
X18Y1705D01*
X17Y1706D01*
X17Y1713D01*
X16Y1714D01*
X16Y1721D01*
X15Y1722D01*
X15Y1729D01*
X14Y1730D01*
X14Y1737D01*
X13Y1738D01*
X13Y1746D01*
X12Y1747D01*
X12Y1755D01*
X11Y1756D01*
X11Y1764D01*
X10Y1765D01*
X10Y1774D01*
X9Y1775D01*
X9Y1785D01*
X8Y1786D01*
X8Y1796D01*
X7Y1797D01*
X7Y1808D01*
X6Y1809D01*
X6Y1821D01*
X5Y1822D01*
X5Y1835D01*
X4Y1836D01*
X4Y1851D01*
X3Y1852D01*
X3Y1869D01*
X2Y1870D01*
X2Y1891D01*
X1Y1892D01*
X1Y1925D01*
X0Y1926D01*
X0Y2012D01*
X1Y2013D01*
X1Y2046D01*
X2Y2047D01*
X2Y2068D01*
X3Y2069D01*
X3Y2086D01*
X4Y2087D01*
X4Y2102D01*
X5Y2103D01*
X5Y2116D01*
X6Y2117D01*
X6Y2129D01*
X7Y2130D01*
X7Y2141D01*
X8Y2142D01*
X8Y2152D01*
X9Y2153D01*
X9Y2163D01*
X10Y2164D01*
X10Y2173D01*
X11Y2174D01*
X11Y2182D01*
X12Y2183D01*
X12Y2191D01*
X13Y2192D01*
X13Y2200D01*
X14Y2201D01*
X14Y2208D01*
X15Y2209D01*
X15Y2216D01*
X16Y2217D01*
X16Y2224D01*
X17Y2225D01*
X17Y2232D01*
X18Y2233D01*
X18Y2239D01*
X19Y2240D01*
X19Y2246D01*
X20Y2247D01*
X20Y2253D01*
X21Y2254D01*
X21Y2260D01*
X22Y2261D01*
X22Y2267D01*
X23Y2268D01*
X23Y2273D01*
X24Y2274D01*
X24Y2280D01*
X25Y2281D01*
X25Y2286D01*
X26Y2287D01*
X26Y2292D01*
X27Y2293D01*
X27Y2298D01*
X28Y2299D01*
X28Y2304D01*
X29Y2305D01*
X29Y2310D01*
X30Y2311D01*
X30Y2315D01*
X31Y2316D01*
X31Y2321D01*
X32Y2322D01*
X32Y2326D01*
X33Y2327D01*
X33Y2332D01*
X34Y2333D01*
X34Y2337D01*
X35Y2338D01*
X35Y2342D01*
X36Y2343D01*
X36Y2347D01*
X37Y2348D01*
X37Y2352D01*
X38Y2353D01*
X38Y2358D01*
X39Y2359D01*
X39Y2363D01*
X40Y2364D01*
X40Y2367D01*
X41Y2368D01*
X41Y2372D01*
X42Y2373D01*
X42Y2377D01*
X43Y2378D01*
X43Y2382D01*
X44Y2383D01*
X44Y2386D01*
X45Y2387D01*
X45Y2391D01*
X46Y2392D01*
X46Y2395D01*
X47Y2396D01*
X47Y2400D01*
X48Y2401D01*
X48Y2404D01*
X49Y2405D01*
X49Y2409D01*
X50Y2410D01*
X50Y2413D01*
X51Y2414D01*
X51Y2417D01*
X52Y2418D01*
X52Y2422D01*
X53Y2423D01*
X53Y2426D01*
X54Y2427D01*
X54Y2430D01*
X55Y2431D01*
X55Y2434D01*
X56Y2435D01*
X56Y2438D01*
X57Y2439D01*
X57Y2442D01*
X58Y2443D01*
X58Y2446D01*
X59Y2447D01*
X59Y2450D01*
X60Y2451D01*
X60Y2454D01*
X61Y2455D01*
X61Y2458D01*
X62Y2459D01*
X62Y2462D01*
X63Y2463D01*
X63Y2466D01*
X64Y2467D01*
X64Y2470D01*
X65Y2471D01*
X65Y2474D01*
X66Y2475D01*
X66Y2477D01*
X67Y2478D01*
X67Y2481D01*
X68Y2482D01*
X68Y2485D01*
X69Y2486D01*
X69Y2489D01*
X70Y2490D01*
X70Y2492D01*
X71Y2493D01*
X71Y2496D01*
X72Y2497D01*
X72Y2499D01*
X73Y2500D01*
X73Y2503D01*
X74Y2504D01*
X74Y2507D01*
X75Y2508D01*
X75Y2510D01*
X76Y2511D01*
X76Y2513D01*
X77Y2514D01*
X77Y2517D01*
X78Y2518D01*
X78Y2520D01*
X79Y2521D01*
X79Y2524D01*
X80Y2525D01*
X80Y2527D01*
X81Y2528D01*
X81Y2531D01*
X82Y2532D01*
X82Y2534D01*
X83Y2535D01*
X83Y2537D01*
X84Y2538D01*
X84Y2541D01*
X85Y2542D01*
X85Y2544D01*
X86Y2545D01*
X86Y2547D01*
X87Y2548D01*
X87Y2550D01*
X88Y2551D01*
X88Y2554D01*
X89Y2555D01*
X89Y2557D01*
X90Y2558D01*
X90Y2560D01*
X91Y2561D01*
X91Y2563D01*
X92Y2564D01*
X92Y2566D01*
X93Y2567D01*
X93Y2569D01*
X94Y2570D01*
X94Y2573D01*
X95Y2574D01*
X95Y2576D01*
X96Y2577D01*
X96Y2579D01*
X97Y2580D01*
X97Y2582D01*
X98Y2583D01*
X98Y2585D01*
X99Y2586D01*
X99Y2588D01*
X100Y2589D01*
X100Y2591D01*
X101Y2592D01*
X101Y2594D01*
X102Y2595D01*
X102Y2597D01*
X103Y2598D01*
X103Y2600D01*
X104Y2601D01*
X104Y2603D01*
X105Y2604D01*
X105Y2606D01*
X106Y2607D01*
X106Y2609D01*
X107Y2610D01*
X107Y2611D01*
X108Y2612D01*
X108Y2614D01*
X109Y2615D01*
X109Y2617D01*
X110Y2618D01*
X110Y2620D01*
X111Y2621D01*
X111Y2623D01*
X112Y2624D01*
X112Y2626D01*
X113Y2627D01*
X113Y2629D01*
X114Y2630D01*
X114Y2631D01*
X115Y2632D01*
X115Y2634D01*
X116Y2635D01*
X116Y2637D01*
X117Y2638D01*
X117Y2640D01*
X118Y2641D01*
X118Y2642D01*
X119Y2643D01*
X119Y2645D01*
X120Y2646D01*
X120Y2648D01*
X121Y2649D01*
X121Y2651D01*
X122Y2652D01*
X122Y2653D01*
X123Y2654D01*
X123Y2656D01*
X124Y2657D01*
X124Y2659D01*
X125Y2660D01*
X125Y2661D01*
X126Y2662D01*
X126Y2664D01*
X127Y2665D01*
X127Y2667D01*
X128Y2668D01*
X128Y2669D01*
X129Y2670D01*
X129Y2672D01*
X130Y2673D01*
X130Y2675D01*
X131Y2676D01*
X131Y2677D01*
X132Y2678D01*
X132Y2680D01*
X133Y2681D01*
X133Y2682D01*
X134Y2683D01*
X134Y2685D01*
X135Y2686D01*
X135Y2687D01*
X136Y2688D01*
X136Y2690D01*
X137Y2691D01*
X137Y2693D01*
X138Y2694D01*
X138Y2695D01*
X139Y2696D01*
X139Y2697D01*
X140Y2698D01*
X140Y2700D01*
X141Y2701D01*
X141Y2702D01*
X142Y2703D01*
X142Y2705D01*
X143Y2706D01*
X143Y2707D01*
X144Y2708D01*
X144Y2710D01*
X145Y2711D01*
X145Y2712D01*
X146Y2713D01*
X146Y2715D01*
X147Y2716D01*
X147Y2717D01*
X148Y2718D01*
X148Y2720D01*
X149Y2721D01*
X149Y2722D01*
X150Y2723D01*
X150Y2724D01*
X151Y2725D01*
X151Y2727D01*
X152Y2728D01*
X152Y2729D01*
X153Y2730D01*
X153Y2732D01*
X154Y2733D01*
X154Y2734D01*
X155Y2735D01*
X155Y2736D01*
X156Y2737D01*
X156Y2739D01*
X157Y2740D01*
X157Y2741D01*
X158Y2742D01*
X158Y2743D01*
X159Y2744D01*
X159Y2746D01*
X160Y2747D01*
X160Y2748D01*
X161Y2749D01*
X161Y2750D01*
X162Y2751D01*
X162Y2753D01*
X163Y2754D01*
X163Y2755D01*
X164Y2756D01*
X164Y2757D01*
X165Y2758D01*
X165Y2760D01*
X166Y2761D01*
X166Y2762D01*
X167Y2763D01*
X167Y2764D01*
X168Y2765D01*
X168Y2766D01*
X169Y2767D01*
X169Y2769D01*
X170Y2770D01*
X170Y2771D01*
X171Y2772D01*
X171Y2773D01*
X172Y2774D01*
X172Y2775D01*
X173Y2776D01*
X173Y2778D01*
X174Y2779D01*
X174Y2780D01*
X175Y2781D01*
X175Y2782D01*
X176Y2783D01*
X176Y2784D01*
X177Y2785D01*
X177Y2786D01*
X178Y2787D01*
X178Y2788D01*
X179Y2789D01*
X179Y2791D01*
X180Y2792D01*
X180Y2793D01*
X181Y2794D01*
X181Y2795D01*
X182Y2796D01*
X182Y2797D01*
X183Y2798D01*
X183Y2799D01*
X184Y2800D01*
X184Y2802D01*
X185Y2803D01*
X185Y2804D01*
X186Y2805D01*
X186Y2806D01*
X187Y2807D01*
X187Y2808D01*
X188Y2809D01*
X188Y2810D01*
X189Y2811D01*
X189Y2812D01*
X190Y2813D01*
X190Y2814D01*
X191Y2815D01*
X191Y2816D01*
X192Y2817D01*
X192Y2818D01*
X193Y2819D01*
X193Y2820D01*
X194Y2821D01*
X194Y2823D01*
X195Y2824D01*
X195Y2825D01*
X196Y2826D01*
X196Y2827D01*
X197Y2828D01*
X197Y2829D01*
X198Y2830D01*
X198Y2831D01*
X199Y2832D01*
X199Y2833D01*
X200Y2834D01*
X200Y2835D01*
X201Y2836D01*
X201Y2837D01*
X202Y2838D01*
X202Y2839D01*
X203Y2840D01*
X203Y2841D01*
X204Y2842D01*
X204Y2843D01*
X205Y2844D01*
X205Y2845D01*
X206Y2846D01*
X206Y2847D01*
X207Y2848D01*
X207Y2849D01*
X208Y2850D01*
X208Y2851D01*
X209Y2852D01*
X209Y2853D01*
X210Y2854D01*
X210Y2855D01*
X211Y2856D01*
X211Y2857D01*
X212Y2858D01*
X212Y2859D01*
X213Y2860D01*
X213Y2861D01*
X214Y2862D01*
X214Y2863D01*
X215Y2864D01*
X215Y2865D01*
X216Y2866D01*
X216Y2867D01*
X217Y2868D01*
X217Y2869D01*
X218Y2870D01*
X218Y2871D01*
X219Y2872D01*
X220Y2873D01*
X220Y2874D01*
X221Y2875D01*
X221Y2876D01*
X222Y2877D01*
X222Y2878D01*
X223Y2879D01*
X223Y2880D01*
X224Y2881D01*
X224Y2882D01*
X225Y2883D01*
X225Y2884D01*
X226Y2885D01*
X226Y2886D01*
X227Y2887D01*
X227Y2888D01*
X228Y2889D01*
X228Y2890D01*
X229Y2891D01*
X229Y2892D01*
X230Y2893D01*
X231Y2894D01*
X231Y2895D01*
X232Y2896D01*
X232Y2897D01*
X233Y2898D01*
X233Y2899D01*
X234Y2900D01*
X234Y2901D01*
X235Y2902D01*
X235Y2903D01*
X236Y2904D01*
X236Y2905D01*
X237Y2906D01*
X237Y2907D01*
X238Y2908D01*
X239Y2909D01*
X239Y2910D01*
X240Y2911D01*
X240Y2912D01*
X241Y2913D01*
X241Y2914D01*
X242Y2915D01*
X242Y2916D01*
X243Y2917D01*
X244Y2918D01*
X244Y2919D01*
X245Y2920D01*
X245Y2921D01*
X246Y2922D01*
X246Y2923D01*
X247Y2924D01*
X247Y2925D01*
X248Y2926D01*
X249Y2927D01*
X249Y2928D01*
X250Y2929D01*
X250Y2930D01*
X251Y2931D01*
X251Y2932D01*
X252Y2933D01*
X252Y2934D01*
X253Y2935D01*
X254Y2936D01*
X254Y2937D01*
X255Y2938D01*
X255Y2939D01*
X256Y2940D01*
X256Y2941D01*
X257Y2942D01*
X258Y2943D01*
X258Y2944D01*
X259Y2945D01*
X259Y2946D01*
X260Y2947D01*
X260Y2948D01*
X261Y2949D01*
X262Y2950D01*
X262Y2951D01*
X263Y2952D01*
X263Y2953D01*
X264Y2954D01*
X264Y2955D01*
X265Y2956D01*
X266Y2957D01*
X266Y2958D01*
X267Y2959D01*
X267Y2960D01*
X268Y2961D01*
X269Y2962D01*
X269Y2963D01*
X270Y2964D01*
X270Y2965D01*
X271Y2966D01*
X271Y2967D01*
X272Y2968D01*
X273Y2969D01*
X273Y2970D01*
X274Y2971D01*
X274Y2972D01*
X275Y2973D01*
X276Y2974D01*
X276Y2975D01*
X277Y2976D01*
X277Y2977D01*
X278Y2978D01*
X279Y2979D01*
X279Y2980D01*
X280Y2981D01*
X280Y2982D01*
X281Y2983D01*
X282Y2984D01*
X282Y2985D01*
X283Y2986D01*
X283Y2987D01*
X284Y2988D01*
X285Y2989D01*
X285Y2990D01*
X286Y2991D01*
X286Y2992D01*
X287Y2993D01*
X288Y2994D01*
X288Y2995D01*
X289Y2996D01*
X290Y2997D01*
X290Y2998D01*
X291Y2999D01*
X291Y3000D01*
X292Y3001D01*
X293Y3002D01*
X293Y3003D01*
X294Y3004D01*
X294Y3005D01*
X295Y3006D01*
X296Y3007D01*
X296Y3008D01*
X297Y3009D01*
X298Y3010D01*
X298Y3011D01*
X299Y3012D01*
X299Y3013D01*
X300Y3014D01*
X301Y3015D01*
X301Y3016D01*
X302Y3017D01*
X303Y3018D01*
X303Y3019D01*
X304Y3020D01*
X304Y3021D01*
X305Y3022D01*
X306Y3023D01*
X306Y3024D01*
X307Y3025D01*
X308Y3026D01*
X308Y3027D01*
X309Y3028D01*
X310Y3029D01*
X310Y3030D01*
X311Y3031D01*
X311Y3032D01*
X312Y3033D01*
X313Y3034D01*
X313Y3035D01*
X314Y3036D01*
X315Y3037D01*
X315Y3038D01*
X316Y3039D01*
X317Y3040D01*
X317Y3041D01*
X318Y3042D01*
X319Y3043D01*
X319Y3044D01*
X320Y3045D01*
X321Y3046D01*
X321Y3047D01*
X322Y3048D01*
X323Y3049D01*
X323Y3050D01*
X324Y3051D01*
X324Y3052D01*
X325Y3053D01*
X326Y3054D01*
X326Y3055D01*
X327Y3056D01*
X328Y3057D01*
X328Y3058D01*
X329Y3059D01*
X330Y3060D01*
X331Y3061D01*
X331Y3062D01*
X332Y3063D01*
X333Y3064D01*
X333Y3065D01*
X334Y3066D01*
X335Y3067D01*
X335Y3068D01*
X336Y3069D01*
X337Y3070D01*
X337Y3071D01*
X338Y3072D01*
X339Y3073D01*
X339Y3074D01*
X340Y3075D01*
X341Y3076D01*
X341Y3077D01*
X342Y3078D01*
X343Y3079D01*
X343Y3080D01*
X344Y3081D01*
X345Y3082D01*
X345Y3083D01*
X346Y3084D01*
X347Y3085D01*
X347Y3086D01*
X348Y3087D01*
X349Y3088D01*
X350Y3089D01*
X350Y3090D01*
X351Y3091D01*
X352Y3092D01*
X352Y3093D01*
X353Y3094D01*
X354Y3095D01*
X354Y3096D01*
X355Y3097D01*
X356Y3098D01*
X357Y3099D01*
X357Y3100D01*
X358Y3101D01*
X359Y3102D01*
X359Y3103D01*
X360Y3104D01*
X361Y3105D01*
X361Y3106D01*
X362Y3107D01*
X363Y3108D01*
X364Y3109D01*
X364Y3110D01*
X365Y3111D01*
X366Y3112D01*
X366Y3113D01*
X367Y3114D01*
X368Y3115D01*
X369Y3116D01*
X369Y3117D01*
X370Y3118D01*
X371Y3119D01*
X371Y3120D01*
X372Y3121D01*
X373Y3122D01*
X374Y3123D01*
X374Y3124D01*
X375Y3125D01*
X376Y3126D01*
X377Y3127D01*
X377Y3128D01*
X378Y3129D01*
X379Y3130D01*
X379Y3131D01*
X380Y3132D01*
X381Y3133D01*
X382Y3134D01*
X382Y3135D01*
X383Y3136D01*
X384Y3137D01*
X385Y3138D01*
X385Y3139D01*
X386Y3140D01*
X387Y3141D01*
X388Y3142D01*
X388Y3143D01*
X389Y3144D01*
X390Y3145D01*
X391Y3146D01*
X391Y3147D01*
X392Y3148D01*
X393Y3149D01*
X394Y3150D01*
X394Y3151D01*
X395Y3152D01*
X396Y3153D01*
X397Y3154D01*
X397Y3155D01*
X398Y3156D01*
X399Y3157D01*
X400Y3158D01*
X400Y3159D01*
X401Y3160D01*
X402Y3161D01*
X403Y3162D01*
X403Y3163D01*
X404Y3164D01*
X405Y3165D01*
X406Y3166D01*
X406Y3167D01*
X407Y3168D01*
X408Y3169D01*
X409Y3170D01*
X410Y3171D01*
X410Y3172D01*
X411Y3173D01*
X412Y3174D01*
X413Y3175D01*
X413Y3176D01*
X414Y3177D01*
X415Y3178D01*
X416Y3179D01*
X417Y3180D01*
X417Y3181D01*
X418Y3182D01*
X419Y3183D01*
X420Y3184D01*
X420Y3185D01*
X421Y3186D01*
X422Y3187D01*
X423Y3188D01*
X424Y3189D01*
X424Y3190D01*
X425Y3191D01*
X426Y3192D01*
X427Y3193D01*
X428Y3194D01*
X428Y3195D01*
X429Y3196D01*
X430Y3197D01*
X431Y3198D01*
X432Y3199D01*
X432Y3200D01*
X433Y3201D01*
X434Y3202D01*
X435Y3203D01*
X436Y3204D01*
X436Y3205D01*
X437Y3206D01*
X438Y3207D01*
X439Y3208D01*
X440Y3209D01*
X440Y3210D01*
X441Y3211D01*
X442Y3212D01*
X443Y3213D01*
X444Y3214D01*
X445Y3215D01*
X445Y3216D01*
X446Y3217D01*
X447Y3218D01*
X448Y3219D01*
X449Y3220D01*
X449Y3221D01*
X450Y3222D01*
X451Y3223D01*
X452Y3224D01*
X453Y3225D01*
X454Y3226D01*
X454Y3227D01*
X455Y3228D01*
X456Y3229D01*
X457Y3230D01*
X458Y3231D01*
X459Y3232D01*
X459Y3233D01*
X460Y3234D01*
X461Y3235D01*
X462Y3236D01*
X463Y3237D01*
X464Y3238D01*
X464Y3239D01*
X465Y3240D01*
X466Y3241D01*
X467Y3242D01*
X468Y3243D01*
X469Y3244D01*
X470Y3245D01*
X470Y3246D01*
X471Y3247D01*
X472Y3248D01*
X473Y3249D01*
X474Y3250D01*
X475Y3251D01*
X476Y3252D01*
X476Y3253D01*
X477Y3254D01*
X478Y3255D01*
X479Y3256D01*
X480Y3257D01*
X481Y3258D01*
X482Y3259D01*
X482Y3260D01*
X483Y3261D01*
X484Y3262D01*
X485Y3263D01*
X486Y3264D01*
X487Y3265D01*
X488Y3266D01*
X489Y3267D01*
X489Y3268D01*
X490Y3269D01*
X491Y3270D01*
X492Y3271D01*
X493Y3272D01*
X494Y3273D01*
X495Y3274D01*
X496Y3275D01*
X497Y3276D01*
X497Y3277D01*
X498Y3278D01*
X499Y3279D01*
X500Y3280D01*
X501Y3281D01*
X502Y3282D01*
X503Y3283D01*
X504Y3284D01*
X505Y3285D01*
X505Y3286D01*
X506Y3287D01*
X507Y3288D01*
X508Y3289D01*
X509Y3290D01*
X510Y3291D01*
X511Y3292D01*
X512Y3293D01*
X513Y3294D01*
X514Y3295D01*
X515Y3296D01*
X515Y3297D01*
X516Y3298D01*
X517Y3299D01*
X518Y3300D01*
X519Y3301D01*
X520Y3302D01*
X521Y3303D01*
X522Y3304D01*
X523Y3305D01*
X524Y3306D01*
X525Y3307D01*
X526Y3308D01*
X526Y3309D01*
X527Y3310D01*
X528Y3311D01*
X529Y3312D01*
X530Y3313D01*
X531Y3314D01*
X532Y3315D01*
X533Y3316D01*
X534Y3317D01*
X535Y3318D01*
X536Y3319D01*
X537Y3320D01*
X538Y3321D01*
X539Y3322D01*
X540Y3323D01*
X541Y3324D01*
X542Y3325D01*
X542Y3326D01*
X543Y3327D01*
X544Y3328D01*
X545Y3329D01*
X546Y3330D01*
X547Y3331D01*
X548Y3332D01*
X549Y3333D01*
X550Y3334D01*
X551Y3335D01*
X552Y3336D01*
X553Y3337D01*
X554Y3338D01*
X555Y3339D01*
X556Y3340D01*
X557Y3341D01*
X558Y3342D01*
X559Y3343D01*
X560Y3344D01*
X561Y3345D01*
X562Y3346D01*
X563Y3347D01*
X564Y3348D01*
X565Y3349D01*
X566Y3350D01*
X567Y3351D01*
X568Y3352D01*
X569Y3353D01*
X570Y3354D01*
X571Y3355D01*
X572Y3356D01*
X573Y3357D01*
X574Y3358D01*
X575Y3359D01*
X576Y3360D01*
X577Y3361D01*
X578Y3362D01*
X579Y3363D01*
X580Y3364D01*
X581Y3365D01*
X582Y3366D01*
X583Y3367D01*
X584Y3368D01*
X585Y3369D01*
X586Y3370D01*
X587Y3371D01*
X588Y3372D01*
X589Y3373D01*
X590Y3374D01*
X591Y3375D01*
X592Y3376D01*
X593Y3377D01*
X594Y3378D01*
X595Y3379D01*
X596Y3380D01*
X597Y3381D01*
X598Y3382D01*
X599Y3383D01*
X600Y3384D01*
X601Y3385D01*
X602Y3386D01*
X603Y3387D01*
X604Y3388D01*
X605Y3389D01*
X606Y3390D01*
X607Y3391D01*
X608Y3392D01*
X609Y3393D01*
X610Y3394D01*
X611Y3395D01*
X612Y3395D01*
X613Y3396D01*
X614Y3397D01*
X615Y3398D01*
X616Y3399D01*
X617Y3400D01*
X618Y3401D01*
X619Y3402D01*
X620Y3403D01*
X621Y3404D01*
X622Y3405D01*
X623Y3406D01*
X624Y3407D01*
X625Y3408D01*
X626Y3409D01*
X627Y3410D01*
X628Y3411D01*
X629Y3411D01*
X630Y3412D01*
X631Y3413D01*
X632Y3414D01*
X633Y3415D01*
X634Y3416D01*
X635Y3417D01*
X636Y3418D01*
X637Y3419D01*
X638Y3420D01*
X639Y3421D01*
X640Y3422D01*
X641Y3422D01*
X642Y3423D01*
X643Y3424D01*
X644Y3425D01*
X645Y3426D01*
X646Y3427D01*
X647Y3428D01*
X648Y3429D01*
X649Y3430D01*
X650Y3431D01*
X651Y3432D01*
X652Y3432D01*
X653Y3433D01*
X654Y3434D01*
X655Y3435D01*
X656Y3436D01*
X657Y3437D01*
X658Y3438D01*
X659Y3439D01*
X660Y3440D01*
X661Y3440D01*
X662Y3441D01*
X663Y3442D01*
X664Y3443D01*
X665Y3444D01*
X666Y3445D01*
X667Y3446D01*
X668Y3447D01*
X669Y3448D01*
X670Y3448D01*
X671Y3449D01*
X672Y3450D01*
X673Y3451D01*
X674Y3452D01*
X675Y3453D01*
X676Y3454D01*
X677Y3455D01*
X678Y3455D01*
X679Y3456D01*
X680Y3457D01*
X681Y3458D01*
X682Y3459D01*
X683Y3460D01*
X684Y3461D01*
X685Y3461D01*
X686Y3462D01*
X687Y3463D01*
X688Y3464D01*
X689Y3465D01*
X690Y3466D01*
X691Y3467D01*
X692Y3467D01*
X693Y3468D01*
X694Y3469D01*
X695Y3470D01*
X696Y3471D01*
X697Y3472D01*
X698Y3473D01*
X699Y3473D01*
X700Y3474D01*
X701Y3475D01*
X702Y3476D01*
X703Y3477D01*
X704Y3478D01*
X705Y3478D01*
X706Y3479D01*
X707Y3480D01*
X708Y3481D01*
X709Y3482D01*
X710Y3483D01*
X711Y3483D01*
X712Y3484D01*
X713Y3485D01*
X714Y3486D01*
X715Y3487D01*
X716Y3488D01*
X717Y3488D01*
X718Y3489D01*
X719Y3490D01*
X720Y3491D01*
X721Y3492D01*
X722Y3492D01*
X723Y3493D01*
X724Y3494D01*
X725Y3495D01*
X726Y3496D01*
X727Y3497D01*
X728Y3497D01*
X729Y3498D01*
X730Y3499D01*
X731Y3500D01*
X732Y3501D01*
X733Y3501D01*
X734Y3502D01*
X735Y3503D01*
X736Y3504D01*
X737Y3505D01*
X738Y3505D01*
X739Y3506D01*
X740Y3507D01*
X741Y3508D01*
X742Y3509D01*
X743Y3509D01*
X744Y3510D01*
X745Y3511D01*
X746Y3512D01*
X747Y3513D01*
X748Y3513D01*
X749Y3514D01*
X750Y3515D01*
X751Y3516D01*
X752Y3517D01*
X753Y3517D01*
X754Y3518D01*
X755Y3519D01*
X756Y3520D01*
X757Y3520D01*
X758Y3521D01*
X759Y3522D01*
X760Y3523D01*
X761Y3524D01*
X762Y3524D01*
X763Y3525D01*
X764Y3526D01*
X765Y3527D01*
X766Y3527D01*
X767Y3528D01*
X768Y3529D01*
X769Y3530D01*
X770Y3531D01*
X771Y3531D01*
X772Y3532D01*
X773Y3533D01*
X774Y3534D01*
X775Y3534D01*
X776Y3535D01*
X777Y3536D01*
X778Y3537D01*
X779Y3537D01*
X780Y3538D01*
X781Y3539D01*
X782Y3540D01*
X783Y3540D01*
X784Y3541D01*
X785Y3542D01*
X786Y3543D01*
X787Y3543D01*
X788Y3544D01*
X789Y3545D01*
X790Y3546D01*
X791Y3546D01*
X792Y3547D01*
X793Y3548D01*
X794Y3549D01*
X795Y3549D01*
X796Y3550D01*
X797Y3551D01*
X798Y3552D01*
X799Y3552D01*
X800Y3553D01*
X801Y3554D01*
X802Y3555D01*
X803Y3555D01*
X804Y3556D01*
X805Y3557D01*
X806Y3558D01*
X807Y3558D01*
X808Y3559D01*
X809Y3560D01*
X810Y3560D01*
X811Y3561D01*
X812Y3562D01*
X813Y3563D01*
X814Y3563D01*
X815Y3564D01*
X816Y3565D01*
X817Y3566D01*
X818Y3566D01*
X819Y3567D01*
X820Y3568D01*
X821Y3568D01*
X822Y3569D01*
X823Y3570D01*
X824Y3571D01*
X825Y3571D01*
X826Y3572D01*
X827Y3573D01*
X828Y3573D01*
X829Y3574D01*
X830Y3575D01*
X831Y3576D01*
X832Y3576D01*
X833Y3577D01*
X834Y3578D01*
X835Y3578D01*
X836Y3579D01*
X837Y3580D01*
X838Y3580D01*
X839Y3581D01*
X840Y3582D01*
X841Y3583D01*
X842Y3583D01*
X843Y3584D01*
X844Y3585D01*
X845Y3585D01*
X846Y3586D01*
X847Y3587D01*
X848Y3587D01*
X849Y3588D01*
X850Y3589D01*
X851Y3590D01*
X852Y3590D01*
X853Y3591D01*
X854Y3592D01*
X855Y3592D01*
X856Y3593D01*
X857Y3594D01*
X858Y3594D01*
X859Y3595D01*
X860Y3596D01*
X861Y3596D01*
X862Y3597D01*
X863Y3598D01*
X864Y3598D01*
X865Y3599D01*
X866Y3600D01*
X867Y3600D01*
X868Y3601D01*
X869Y3602D01*
X870Y3602D01*
X871Y3603D01*
X872Y3604D01*
X873Y3604D01*
X874Y3605D01*
X875Y3606D01*
X876Y3606D01*
X877Y3607D01*
X878Y3608D01*
X879Y3609D01*
X880Y3609D01*
X881Y3610D01*
X882Y3611D01*
X883Y3611D01*
X884Y3612D01*
X885Y3613D01*
X886Y3613D01*
X887Y3614D01*
X888Y3614D01*
X889Y3615D01*
X890Y3616D01*
X891Y3616D01*
X892Y3617D01*
X893Y3618D01*
X894Y3618D01*
X895Y3619D01*
X896Y3620D01*
X897Y3620D01*
X898Y3621D01*
X899Y3622D01*
X900Y3622D01*
X901Y3623D01*
X902Y3624D01*
X903Y3624D01*
X904Y3625D01*
X905Y3626D01*
X906Y3626D01*
X907Y3627D01*
X908Y3627D01*
X909Y3628D01*
X910Y3629D01*
X911Y3629D01*
X912Y3630D01*
X913Y3631D01*
X914Y3631D01*
X915Y3632D01*
X916Y3633D01*
X917Y3633D01*
X918Y3634D01*
X919Y3634D01*
X920Y3635D01*
X921Y3636D01*
X922Y3636D01*
X923Y3637D01*
X924Y3638D01*
X925Y3638D01*
X926Y3639D01*
X927Y3639D01*
X928Y3640D01*
X929Y3641D01*
X930Y3641D01*
X931Y3642D01*
X932Y3643D01*
X933Y3643D01*
X934Y3644D01*
X935Y3644D01*
X936Y3645D01*
X937Y3646D01*
X938Y3646D01*
X939Y3647D01*
X940Y3647D01*
X941Y3648D01*
X942Y3649D01*
X943Y3649D01*
X944Y3650D01*
X945Y3651D01*
X946Y3651D01*
X947Y3652D01*
X948Y3652D01*
X949Y3653D01*
X950Y3654D01*
X951Y3654D01*
X952Y3655D01*
X953Y3655D01*
X954Y3656D01*
X955Y3657D01*
X956Y3657D01*
X957Y3658D01*
X958Y3658D01*
X959Y3659D01*
X960Y3660D01*
X961Y3660D01*
X962Y3661D01*
X963Y3661D01*
X964Y3662D01*
X965Y3663D01*
X966Y3663D01*
X967Y3664D01*
X968Y3664D01*
X969Y3665D01*
X970Y3666D01*
X971Y3666D01*
X972Y3667D01*
X973Y3667D01*
X974Y3668D01*
X975Y3668D01*
X976Y3669D01*
X977Y3670D01*
X978Y3670D01*
X979Y3671D01*
X980Y3671D01*
X981Y3672D01*
X982Y3673D01*
X983Y3673D01*
X984Y3674D01*
X985Y3674D01*
X986Y3675D01*
X987Y3675D01*
X988Y3676D01*
X989Y3677D01*
X990Y3677D01*
X991Y3678D01*
X992Y3678D01*
X993Y3679D01*
X994Y3679D01*
X995Y3680D01*
X996Y3681D01*
X997Y3681D01*
X998Y3682D01*
X999Y3682D01*
X1000Y3683D01*
X1001Y3683D01*
X1002Y3684D01*
X1003Y3685D01*
X1004Y3685D01*
X1005Y3686D01*
X1006Y3685D01*
X1007Y3685D01*
X1008Y3686D01*
X1008Y3687D01*
X1007Y3687D01*
X1009Y3688D01*
X1010Y3688D01*
X1011Y3689D01*
X1012Y3690D01*
X1013Y3690D01*
X1014Y3691D01*
X1015Y3691D01*
X1016Y3692D01*
X1017Y3692D01*
X1018Y3693D01*
X1019Y3693D01*
X1020Y3694D01*
X1021Y3695D01*
X1022Y3695D01*
X1023Y3696D01*
X1024Y3696D01*
X1025Y3697D01*
X1026Y3697D01*
X1027Y3698D01*
X1028Y3698D01*
X1029Y3699D01*
X1030Y3700D01*
X1031Y3700D01*
X1032Y3701D01*
X1033Y3701D01*
X1034Y3702D01*
X1035Y3702D01*
X1036Y3703D01*
X1037Y3703D01*
X1038Y3704D01*
X1039Y3704D01*
X1040Y3705D01*
X1041Y3705D01*
X1042Y3706D01*
X1043Y3706D01*
X1044Y3707D01*
X1045Y3708D01*
X1046Y3708D01*
X1047Y3709D01*
X1048Y3709D01*
X1049Y3710D01*
X1050Y3710D01*
X1051Y3711D01*
X1052Y3711D01*
X1053Y3712D01*
X1054Y3712D01*
X1055Y3713D01*
X1056Y3713D01*
X1057Y3714D01*
X1058Y3714D01*
X1059Y3715D01*
X1060Y3715D01*
X1061Y3716D01*
X1062Y3716D01*
X1063Y3717D01*
X1064Y3717D01*
X1065Y3718D01*
X1066Y3719D01*
X1067Y3719D01*
X1068Y3720D01*
X1069Y3720D01*
X1070Y3721D01*
X1071Y3721D01*
X1072Y3722D01*
X1073Y3722D01*
X1074Y3723D01*
X1075Y3723D01*
X1076Y3724D01*
X1077Y3724D01*
X1078Y3725D01*
X1079Y3725D01*
X1080Y3726D01*
X1081Y3726D01*
X1082Y3727D01*
X1083Y3727D01*
X1084Y3728D01*
X1085Y3728D01*
X1086Y3729D01*
X1087Y3729D01*
X1088Y3730D01*
X1089Y3730D01*
X1090Y3731D01*
X1091Y3731D01*
X1092Y3732D01*
X1093Y3732D01*
X1094Y3733D01*
X1095Y3733D01*
X1096Y3734D01*
X1097Y3734D01*
X1098Y3735D01*
X1099Y3735D01*
X1100Y3736D01*
X1101Y3736D01*
X1102Y3737D01*
X1103Y3737D01*
X1104Y3738D01*
X1105Y3738D01*
X1106Y3739D01*
X1107Y3739D01*
X1108Y3740D01*
X1109Y3740D01*
X1110Y3741D01*
X1111Y3741D01*
X1112Y3742D01*
X1113Y3742D01*
X1114Y3743D01*
X1115Y3743D01*
X1116Y3743D01*
X1117Y3744D01*
X1118Y3744D01*
X1119Y3745D01*
X1120Y3745D01*
X1121Y3746D01*
X1122Y3746D01*
X1123Y3747D01*
X1124Y3747D01*
X1125Y3748D01*
X1126Y3748D01*
X1127Y3749D01*
X1128Y3749D01*
X1129Y3750D01*
X1130Y3750D01*
X1131Y3751D01*
X1132Y3751D01*
X1133Y3752D01*
X1134Y3752D01*
X1135Y3753D01*
X1136Y3753D01*
X1137Y3753D01*
X1138Y3754D01*
X1139Y3754D01*
X1140Y3755D01*
X1141Y3755D01*
X1142Y3756D01*
X1143Y3756D01*
X1144Y3757D01*
X1145Y3757D01*
X1146Y3758D01*
X1147Y3758D01*
X1148Y3758D01*
X1149Y3759D01*
X1150Y3759D01*
X1151Y3760D01*
X1152Y3760D01*
X1153Y3761D01*
X1154Y3761D01*
X1155Y3762D01*
X1156Y3762D01*
X1157Y3763D01*
X1158Y3763D01*
X1159Y3764D01*
X1160Y3764D01*
X1161Y3764D01*
X1162Y3765D01*
X1163Y3765D01*
X1164Y3766D01*
X1165Y3766D01*
X1166Y3767D01*
X1167Y3767D01*
X1168Y3768D01*
X1169Y3768D01*
X1170Y3768D01*
X1171Y3769D01*
X1172Y3769D01*
X1173Y3770D01*
X1174Y3770D01*
X1175Y3771D01*
X1176Y3771D01*
X1177Y3772D01*
X1178Y3772D01*
X1179Y3772D01*
X1180Y3773D01*
X1181Y3773D01*
X1182Y3774D01*
X1183Y3774D01*
X1184Y3775D01*
X1185Y3775D01*
X1186Y3775D01*
X1187Y3776D01*
X1188Y3776D01*
X1189Y3777D01*
X1190Y3777D01*
X1191Y3778D01*
X1192Y3778D01*
X1193Y3778D01*
X1194Y3779D01*
X1195Y3779D01*
X1196Y3780D01*
X1197Y3780D01*
X1198Y3781D01*
X1199Y3781D01*
X1200Y3781D01*
X1201Y3782D01*
X1202Y3782D01*
X1203Y3783D01*
X1204Y3783D01*
X1205Y3784D01*
X1206Y3784D01*
X1207Y3784D01*
X1208Y3785D01*
X1209Y3785D01*
X1210Y3786D01*
X1211Y3786D01*
X1212Y3786D01*
X1213Y3787D01*
X1214Y3787D01*
X1215Y3788D01*
X1216Y3788D01*
X1217Y3789D01*
X1218Y3789D01*
X1219Y3789D01*
X1220Y3790D01*
X1221Y3790D01*
X1222Y3791D01*
X1223Y3791D01*
X1224Y3791D01*
X1225Y3792D01*
X1226Y3792D01*
X1227Y3793D01*
X1228Y3793D01*
X1229Y3793D01*
X1230Y3794D01*
X1231Y3794D01*
X1232Y3795D01*
X1233Y3795D01*
X1234Y3795D01*
X1235Y3796D01*
X1236Y3796D01*
X1237Y3797D01*
X1238Y3797D01*
X1239Y3797D01*
X1240Y3798D01*
X1241Y3798D01*
X1242Y3799D01*
X1243Y3799D01*
X1244Y3800D01*
X1245Y3800D01*
X1246Y3800D01*
X1247Y3801D01*
X1248Y3801D01*
X1249Y3801D01*
X1250Y3802D01*
X1251Y3802D01*
X1252Y3803D01*
X1253Y3803D01*
X1254Y3803D01*
X1255Y3804D01*
X1256Y3804D01*
X1257Y3805D01*
X1258Y3805D01*
X1259Y3805D01*
X1260Y3806D01*
X1261Y3806D01*
X1262Y3807D01*
X1263Y3807D01*
X1264Y3807D01*
X1265Y3808D01*
X1266Y3808D01*
X1267Y3808D01*
X1268Y3809D01*
X1269Y3809D01*
X1270Y3810D01*
X1271Y3810D01*
X1272Y3810D01*
X1273Y3811D01*
X1274Y3811D01*
X1275Y3811D01*
X1276Y3812D01*
X1277Y3812D01*
X1278Y3813D01*
X1279Y3813D01*
X1280Y3813D01*
X1281Y3814D01*
X1282Y3814D01*
X1283Y3814D01*
X1284Y3815D01*
X1285Y3815D01*
X1286Y3816D01*
X1287Y3816D01*
X1288Y3816D01*
X1289Y3817D01*
X1290Y3817D01*
X1291Y3817D01*
X1292Y3818D01*
X1293Y3818D01*
X1294Y3818D01*
X1295Y3819D01*
X1296Y3819D01*
X1297Y3820D01*
X1298Y3820D01*
X1299Y3820D01*
X1300Y3821D01*
X1301Y3821D01*
X1302Y3821D01*
X1303Y3822D01*
X1304Y3822D01*
X1305Y3822D01*
X1306Y3823D01*
X1307Y3823D01*
X1308Y3824D01*
X1309Y3824D01*
X1310Y3824D01*
X1311Y3825D01*
X1312Y3825D01*
X1313Y3825D01*
X1314Y3826D01*
X1315Y3826D01*
X1316Y3826D01*
X1317Y3827D01*
X1318Y3827D01*
X1319Y3827D01*
X1320Y3828D01*
X1321Y3828D01*
X1322Y3828D01*
X1323Y3829D01*
X1324Y3829D01*
X1325Y3829D01*
X1326Y3830D01*
X1327Y3830D01*
X1328Y3831D01*
X1329Y3831D01*
X1330Y3831D01*
X1331Y3832D01*
X1332Y3832D01*
X1333Y3832D01*
X1334Y3833D01*
X1335Y3833D01*
X1336Y3833D01*
X1337Y3834D01*
X1338Y3834D01*
X1339Y3834D01*
X1340Y3835D01*
X1341Y3835D01*
X1342Y3835D01*
X1343Y3836D01*
X1344Y3836D01*
X1345Y3836D01*
X1346Y3837D01*
X1347Y3837D01*
X1348Y3837D01*
X1349Y3838D01*
X1350Y3838D01*
X1351Y3838D01*
X1352Y3839D01*
X1353Y3839D01*
X1354Y3839D01*
X1355Y3840D01*
X1356Y3840D01*
X1357Y3840D01*
X1358Y3841D01*
X1359Y3841D01*
X1360Y3841D01*
X1361Y3842D01*
X1362Y3842D01*
X1363Y3842D01*
X1364Y3843D01*
X1365Y3843D01*
X1366Y3843D01*
X1367Y3843D01*
X1368Y3844D01*
X1369Y3844D01*
X1370Y3844D01*
X1371Y3845D01*
X1372Y3845D01*
X1373Y3845D01*
X1374Y3846D01*
X1375Y3846D01*
X1376Y3846D01*
X1377Y3847D01*
X1378Y3847D01*
X1379Y3847D01*
X1380Y3848D01*
X1381Y3848D01*
X1382Y3848D01*
X1383Y3849D01*
X1384Y3849D01*
X1385Y3849D01*
X1386Y3849D01*
X1387Y3850D01*
X1388Y3850D01*
X1389Y3850D01*
X1390Y3851D01*
X1391Y3851D01*
X1392Y3851D01*
X1393Y3852D01*
X1394Y3852D01*
X1395Y3852D01*
X1396Y3853D01*
X1397Y3853D01*
X1398Y3853D01*
X1399Y3853D01*
X1400Y3854D01*
X1401Y3854D01*
X1402Y3854D01*
X1403Y3855D01*
X1404Y3855D01*
X1405Y3855D01*
X1406Y3856D01*
X1407Y3856D01*
X1408Y3856D01*
X1409Y3856D01*
X1410Y3857D01*
X1411Y3857D01*
X1412Y3857D01*
X1413Y3858D01*
X1414Y3858D01*
X1415Y3858D01*
X1416Y3858D01*
X1417Y3859D01*
X1418Y3859D01*
X1419Y3859D01*
X1420Y3860D01*
X1421Y3860D01*
X1422Y3860D01*
X1423Y3860D01*
X1424Y3861D01*
X1425Y3861D01*
X1426Y3861D01*
X1427Y3862D01*
X1428Y3862D01*
X1429Y3862D01*
X1430Y3863D01*
X1431Y3863D01*
X1432Y3863D01*
X1433Y3863D01*
X1434Y3864D01*
X1435Y3864D01*
X1436Y3864D01*
X1437Y3864D01*
X1438Y3865D01*
X1439Y3865D01*
X1440Y3865D01*
X1441Y3866D01*
X1442Y3866D01*
X1443Y3866D01*
X1444Y3866D01*
X1445Y3867D01*
X1446Y3867D01*
X1447Y3867D01*
X1448Y3868D01*
X1449Y3868D01*
X1450Y3868D01*
X1451Y3868D01*
X1452Y3869D01*
X1453Y3869D01*
X1454Y3869D01*
X1455Y3869D01*
X1456Y3870D01*
X1457Y3870D01*
X1458Y3870D01*
X1459Y3870D01*
X1460Y3871D01*
X1461Y3871D01*
X1462Y3871D01*
X1463Y3872D01*
X1464Y3872D01*
X1465Y3872D01*
X1466Y3872D01*
X1467Y3873D01*
X1468Y3873D01*
X1469Y3873D01*
X1470Y3873D01*
X1471Y3874D01*
X1472Y3874D01*
X1473Y3874D01*
X1474Y3874D01*
X1475Y3875D01*
X1476Y3875D01*
X1477Y3875D01*
X1478Y3875D01*
X1479Y3876D01*
X1480Y3876D01*
X1481Y3876D01*
X1482Y3876D01*
X1483Y3877D01*
X1484Y3877D01*
X1485Y3877D01*
X1486Y3877D01*
X1487Y3878D01*
X1488Y3878D01*
X1489Y3878D01*
X1490Y3878D01*
X1491Y3879D01*
X1492Y3879D01*
X1493Y3879D01*
X1494Y3879D01*
X1495Y3880D01*
X1496Y3880D01*
X1497Y3880D01*
X1498Y3880D01*
X1499Y3881D01*
X1500Y3881D01*
X1501Y3881D01*
X1502Y3881D01*
X1503Y3882D01*
X1504Y3882D01*
X1505Y3882D01*
X1506Y3882D01*
X1507Y3883D01*
X1508Y3883D01*
X1509Y3883D01*
X1510Y3883D01*
X1511Y3884D01*
X1512Y3884D01*
X1513Y3884D01*
X1514Y3884D01*
X1515Y3885D01*
X1516Y3885D01*
X1517Y3885D01*
X1518Y3885D01*
X1519Y3885D01*
X1520Y3886D01*
X1521Y3886D01*
X1522Y3886D01*
X1523Y3886D01*
X1524Y3887D01*
X1525Y3887D01*
X1526Y3887D01*
X1527Y3887D01*
X1528Y3888D01*
X1529Y3888D01*
X1530Y3888D01*
X1531Y3888D01*
X1532Y3888D01*
X1533Y3889D01*
X1534Y3889D01*
X1535Y3889D01*
X1536Y3889D01*
X1537Y3890D01*
X1538Y3890D01*
X1539Y3890D01*
X1540Y3890D01*
X1541Y3890D01*
X1542Y3891D01*
X1543Y3891D01*
X1544Y3891D01*
X1545Y3891D01*
X1546Y3892D01*
X1547Y3892D01*
X1548Y3892D01*
X1549Y3892D01*
X1550Y3892D01*
X1551Y3893D01*
X1552Y3893D01*
X1553Y3893D01*
X1554Y3893D01*
X1555Y3894D01*
X1556Y3894D01*
X1557Y3894D01*
X1558Y3894D01*
X1559Y3894D01*
X1560Y3895D01*
X1561Y3895D01*
X1562Y3895D01*
X1563Y3895D01*
X1564Y3895D01*
X1565Y3896D01*
X1566Y3896D01*
X1567Y3896D01*
X1568Y3896D01*
X1569Y3896D01*
X1570Y3897D01*
X1571Y3897D01*
X1572Y3897D01*
X1573Y3897D01*
X1574Y3898D01*
X1575Y3898D01*
X1576Y3898D01*
X1577Y3898D01*
X1578Y3898D01*
X1579Y3899D01*
X1580Y3899D01*
X1581Y3899D01*
X1582Y3899D01*
X1583Y3899D01*
X1584Y3899D01*
X1585Y3900D01*
X1586Y3900D01*
X1587Y3900D01*
X1588Y3900D01*
X1589Y3900D01*
X1590Y3901D01*
X1591Y3901D01*
X1592Y3901D01*
X1593Y3901D01*
X1594Y3901D01*
X1595Y3902D01*
X1596Y3902D01*
X1597Y3902D01*
X1598Y3902D01*
X1599Y3902D01*
X1600Y3903D01*
X1601Y3903D01*
X1602Y3903D01*
X1603Y3903D01*
X1604Y3903D01*
X1605Y3904D01*
X1606Y3904D01*
X1607Y3904D01*
X1608Y3904D01*
X1609Y3904D01*
X1610Y3904D01*
X1611Y3905D01*
X1612Y3905D01*
X1613Y3905D01*
X1614Y3905D01*
X1615Y3905D01*
X1616Y3906D01*
X1617Y3906D01*
X1618Y3906D01*
X1619Y3906D01*
X1620Y3906D01*
X1621Y3906D01*
X1622Y3907D01*
X1623Y3907D01*
X1624Y3907D01*
X1625Y3907D01*
X1626Y3907D01*
X1627Y3908D01*
X1628Y3908D01*
X1629Y3908D01*
X1630Y3908D01*
X1631Y3908D01*
X1632Y3908D01*
X1633Y3909D01*
X1634Y3909D01*
X1635Y3909D01*
X1636Y3909D01*
X1637Y3909D01*
X1638Y3909D01*
X1639Y3910D01*
X1640Y3910D01*
X1641Y3910D01*
X1642Y3910D01*
X1643Y3910D01*
X1644Y3910D01*
X1645Y3911D01*
X1646Y3911D01*
X1647Y3911D01*
X1648Y3911D01*
X1649Y3911D01*
X1650Y3911D01*
X1651Y3912D01*
X1652Y3912D01*
X1653Y3912D01*
X1654Y3912D01*
X1655Y3912D01*
X1656Y3912D01*
X1657Y3913D01*
X1658Y3913D01*
X1659Y3913D01*
X1660Y3913D01*
X1661Y3913D01*
X1662Y3913D01*
X1663Y3913D01*
X1664Y3914D01*
X1665Y3914D01*
X1666Y3914D01*
X1667Y3914D01*
X1668Y3914D01*
X1669Y3914D01*
X1670Y3915D01*
X1671Y3915D01*
X1672Y3915D01*
X1673Y3915D01*
X1674Y3915D01*
X1675Y3915D01*
X1676Y3915D01*
X1677Y3916D01*
X1678Y3916D01*
X1679Y3916D01*
X1680Y3916D01*
X1681Y3916D01*
X1682Y3916D01*
X1683Y3916D01*
X1684Y3917D01*
X1685Y3917D01*
X1686Y3917D01*
X1687Y3917D01*
X1688Y3917D01*
X1689Y3917D01*
X1690Y3917D01*
X1691Y3918D01*
X1692Y3918D01*
X1693Y3918D01*
X1694Y3918D01*
X1695Y3918D01*
X1696Y3918D01*
X1697Y3918D01*
X1698Y3919D01*
X1699Y3919D01*
X1700Y3919D01*
X1701Y3919D01*
X1702Y3919D01*
X1703Y3919D01*
X1704Y3919D01*
X1705Y3920D01*
X1706Y3920D01*
X1707Y3920D01*
X1708Y3920D01*
X1709Y3920D01*
X1710Y3920D01*
X1711Y3920D01*
X1712Y3920D01*
X1713Y3921D01*
X1714Y3921D01*
X1715Y3921D01*
X1716Y3921D01*
X1717Y3921D01*
X1718Y3921D01*
X1719Y3921D01*
X1720Y3921D01*
X1721Y3922D01*
X1722Y3922D01*
X1723Y3922D01*
X1724Y3922D01*
X1725Y3922D01*
X1726Y3922D01*
X1727Y3922D01*
X1728Y3922D01*
X1729Y3923D01*
X1730Y3923D01*
X1731Y3923D01*
X1732Y3923D01*
X1733Y3923D01*
X1734Y3923D01*
X1735Y3923D01*
X1736Y3923D01*
X1737Y3924D01*
X1738Y3924D01*
X1739Y3924D01*
X1740Y3924D01*
X1741Y3924D01*
X1742Y3924D01*
X1743Y3924D01*
X1744Y3924D01*
X1745Y3924D01*
X1746Y3925D01*
X1747Y3925D01*
X1748Y3925D01*
X1749Y3925D01*
X1750Y3925D01*
X1751Y3925D01*
X1752Y3925D01*
X1753Y3925D01*
X1754Y3925D01*
X1755Y3926D01*
X1756Y3926D01*
X1757Y3926D01*
X1758Y3926D01*
X1759Y3926D01*
X1760Y3926D01*
X1761Y3926D01*
X1762Y3926D01*
X1763Y3926D01*
X1764Y3927D01*
X1765Y3927D01*
X1766Y3927D01*
X1767Y3927D01*
X1768Y3927D01*
X1769Y3927D01*
X1770Y3927D01*
X1771Y3927D01*
X1772Y3927D01*
X1773Y3927D01*
X1774Y3928D01*
X1775Y3928D01*
X1776Y3928D01*
X1777Y3928D01*
X1778Y3928D01*
X1779Y3928D01*
X1780Y3928D01*
X1781Y3928D01*
X1782Y3928D01*
X1783Y3928D01*
X1784Y3928D01*
X1785Y3929D01*
X1786Y3929D01*
X1787Y3929D01*
X1788Y3929D01*
X1789Y3929D01*
X1790Y3929D01*
X1791Y3929D01*
X1792Y3929D01*
X1793Y3929D01*
X1794Y3929D01*
X1795Y3929D01*
X1796Y3930D01*
X1797Y3930D01*
X1798Y3930D01*
X1799Y3930D01*
X1800Y3930D01*
X1801Y3930D01*
X1802Y3930D01*
X1803Y3930D01*
X1804Y3930D01*
X1805Y3930D01*
X1806Y3930D01*
X1807Y3930D01*
X1808Y3931D01*
X1809Y3931D01*
X1810Y3931D01*
X1811Y3931D01*
X1812Y3931D01*
X1813Y3931D01*
X1814Y3931D01*
X1815Y3931D01*
X1816Y3931D01*
X1817Y3931D01*
X1818Y3931D01*
X1819Y3931D01*
X1820Y3931D01*
X1821Y3932D01*
X1822Y3932D01*
X1823Y3932D01*
X1824Y3932D01*
X1825Y3932D01*
X1826Y3932D01*
X1827Y3932D01*
X1828Y3932D01*
X1829Y3932D01*
X1830Y3932D01*
X1831Y3932D01*
X1832Y3932D01*
X1833Y3932D01*
X1834Y3932D01*
X1835Y3933D01*
X1836Y3933D01*
X1837Y3933D01*
X1838Y3933D01*
X1839Y3933D01*
X1840Y3933D01*
X1841Y3933D01*
X1842Y3933D01*
X1843Y3933D01*
X1844Y3933D01*
X1845Y3933D01*
X1846Y3933D01*
X1847Y3933D01*
X1848Y3933D01*
X1849Y3933D01*
X1850Y3933D01*
X1851Y3934D01*
X1852Y3934D01*
X1853Y3934D01*
X1854Y3934D01*
X1855Y3934D01*
X1856Y3934D01*
X1857Y3934D01*
X1858Y3934D01*
X1859Y3934D01*
X1860Y3934D01*
X1861Y3934D01*
X1862Y3934D01*
X1863Y3934D01*
X1864Y3934D01*
X1865Y3934D01*
X1866Y3934D01*
X1867Y3934D01*
X1868Y3934D01*
X1869Y3935D01*
X1870Y3935D01*
X1871Y3935D01*
X1872Y3935D01*
X1873Y3934D01*
X1874Y3934D01*
X1875Y3935D01*
X1876Y3935D01*
X1877Y3935D01*
X1878Y3935D01*
X1879Y3935D01*
X1880Y3935D01*
X1881Y3935D01*
X1882Y3935D01*
X1883Y3935D01*
X1884Y3935D01*
X1885Y3935D01*
X1886Y3935D01*
X1887Y3935D01*
X1888Y3935D01*
X1889Y3935D01*
X1890Y3935D01*
X1891Y3936D01*
X1892Y3936D01*
X1893Y3936D01*
X1894Y3936D01*
X1895Y3936D01*
X1896Y3936D01*
X1897Y3936D01*
X1898Y3936D01*
X1899Y3936D01*
X1900Y3936D01*
X1901Y3936D01*
X1902Y3936D01*
X1903Y3936D01*
X1904Y3936D01*
X1905Y3936D01*
X1906Y3936D01*
X1907Y3936D01*
X1908Y3936D01*
X1909Y3936D01*
X1910Y3936D01*
X1911Y3936D01*
X1912Y3936D01*
X1913Y3936D01*
X1914Y3936D01*
X1915Y3936D01*
X1916Y3936D01*
X1917Y3936D01*
X1918Y3936D01*
X1919Y3936D01*
X1920Y3936D01*
X1921Y3936D01*
X1922Y3936D01*
X1923Y3936D01*
X1924Y3936D01*
X1925Y3937D01*
D02*
G04 End of contour*
M02*