G04 MADE WITH FRITZING*
G04 WWW.FRITZING.ORG*
G04 DOUBLE SIDED*
G04 HOLES PLATED*
G04 CONTOUR ON CENTER OF CONTOUR VECTOR*
%ASAXBY*%
%FSLAX23Y23*%
%MOIN*%
%OFA0B0*%
%SFA1.0B1.0*%
%ADD10C,0.099055*%
%ADD11C,0.283464*%
%ADD12C,0.755905*%
%ADD13C,0.677165*%
%ADD14C,0.048000*%
%ADD15C,0.020000*%
%LNCOPPER1*%
G90*
G70*
G54D10*
X706Y1058D03*
X565Y1199D03*
G54D11*
X2647Y1568D03*
X1351Y1568D03*
G54D12*
X2670Y3053D03*
X2010Y1927D03*
G54D13*
X3329Y1966D03*
G54D12*
X692Y1927D03*
X1341Y3053D03*
X1351Y761D03*
X2670Y761D03*
G54D14*
X843Y825D02*
X1288Y769D01*
D02*
X721Y1033D02*
X843Y825D01*
D02*
X1113Y2480D02*
X884Y2480D01*
D02*
X1318Y2994D02*
X1113Y2480D01*
D02*
X884Y2480D02*
X712Y1986D01*
D02*
X3273Y1368D02*
X3323Y1903D01*
D02*
X2989Y1302D02*
X3273Y1368D01*
D02*
X2702Y815D02*
X2989Y1302D01*
D02*
X2607Y3057D02*
X2309Y3077D01*
D02*
X1889Y2706D02*
X1757Y2459D01*
D02*
X1757Y2459D02*
X1778Y2138D01*
D02*
X2080Y2966D02*
X1889Y2706D01*
D02*
X1778Y2138D02*
X1964Y1969D01*
D02*
X2309Y3077D02*
X2080Y2966D01*
D02*
X1351Y1505D02*
X1351Y824D01*
G54D15*
X706Y1002D02*
X650Y1058D01*
X706Y1114D01*
X762Y1058D01*
X706Y1002D01*
D02*
G04 End of Copper1*
M02*