M48
; DRILL file {KiCad 9.0.5} date 2025-11-21T15:21:10-0500
; FORMAT={-:-/ absolute / metric / decimal}
; #@! TF.CreationDate,2025-11-21T15:21:10-05:00
; #@! TF.GenerationSoftware,Kicad,Pcbnew,9.0.5
; #@! TF.FileFunction,Plated,1,2,PTH
FMAT,2
METRIC
; #@! TA.AperFunction,Plated,PTH,ViaDrill
T1C0.300
; #@! TA.AperFunction,Plated,PTH,ComponentDrill
T2C0.800
; #@! TA.AperFunction,Plated,PTH,ComponentDrill
T3C0.900
; #@! TA.AperFunction,Plated,PTH,ComponentDrill
T4C0.920
; #@! TA.AperFunction,Plated,PTH,ComponentDrill
T5C0.950
; #@! TA.AperFunction,Plated,PTH,ComponentDrill
T6C1.000
; #@! TA.AperFunction,Plated,PTH,ComponentDrill
T7C1.100
; #@! TA.AperFunction,Plated,PTH,ComponentDrill
T8C1.300
; #@! TA.AperFunction,Plated,PTH,ComponentDrill
T9C1.500
; #@! TA.AperFunction,Plated,PTH,ComponentDrill
T10C2.300
; #@! TA.AperFunction,Plated,PTH,ComponentDrill
T11C2.500
%
G90
G05
T1
X78.0Y-84.0
T2
X48.562Y-68.85
X48.562Y-70.85
X50.562Y-68.85
X50.562Y-70.85
X52.562Y-68.85
X52.562Y-70.85
T4
X95.01Y-106.5
X95.01Y-109.0
X95.01Y-111.0
X95.01Y-113.5
T5
X61.0Y-47.0
X61.0Y-49.5
X61.0Y-52.0
X66.0Y-70.0
X68.5Y-70.0
X70.5Y-46.0
X70.5Y-48.5
X70.5Y-51.0
X70.5Y-53.5
X71.0Y-70.0
X73.5Y-70.0
X76.5Y-88.0
X79.0Y-88.0
X81.5Y-88.0
T6
X66.0Y-61.0
X66.0Y-78.0
X66.0Y-88.0
X68.5Y-61.0
X68.5Y-78.0
X68.5Y-88.0
X79.5Y-78.0
X80.36Y-43.5
X80.36Y-61.28
X82.0Y-78.0
X95.26Y-70.49
X95.26Y-73.03
X95.26Y-75.57
X95.26Y-78.11
X95.26Y-80.65
X95.26Y-83.19
X109.23Y-75.04
X109.23Y-78.54
X118.0Y-82.5
X120.5Y-82.5
X121.0Y-43.5
X121.0Y-61.28
T7
X39.76Y-55.88
X39.76Y-58.42
X39.76Y-60.96
X39.76Y-63.5
X39.76Y-66.04
X39.76Y-68.58
X39.76Y-71.12
X39.76Y-73.66
X39.76Y-76.2
X39.76Y-78.74
X39.76Y-81.28
X39.76Y-83.82
X39.76Y-86.36
X39.76Y-88.9
X39.76Y-91.44
X39.76Y-93.98
X39.76Y-96.52
X39.76Y-99.06
X39.76Y-101.6
X39.76Y-104.14
X39.76Y-106.68
X39.76Y-109.22
X39.76Y-111.76
X39.76Y-114.3
X42.3Y-101.6
X42.811Y-62.179
X42.811Y-64.719
X42.811Y-67.259
X42.811Y-69.799
X42.811Y-72.339
X44.84Y-101.6
X47.38Y-101.6
X49.92Y-101.6
X52.46Y-58.42
X52.46Y-101.6
X55.0Y-55.88
X55.0Y-58.42
X55.0Y-60.96
X55.0Y-63.5
X55.0Y-66.04
X55.0Y-68.58
X55.0Y-71.12
X55.0Y-73.66
X55.0Y-76.2
X55.0Y-78.74
X55.0Y-81.28
X55.0Y-83.82
X55.0Y-86.36
X55.0Y-88.9
X55.0Y-91.44
X55.0Y-93.98
X55.0Y-96.52
X55.0Y-99.06
X55.0Y-101.6
X55.0Y-104.14
X55.0Y-106.68
X55.0Y-109.22
X55.0Y-111.76
X55.0Y-114.3
T8
X119.468Y-68.75
X119.468Y-73.75
X119.5Y-91.5
X119.5Y-96.5
T9
X62.5Y-106.0
X83.3Y-106.0
T10
X97.72Y-103.43
X97.72Y-116.57
T11
X85.44Y-44.135
X95.26Y-66.68
X95.26Y-87.0
X110.5Y-66.68
X110.5Y-87.0
X115.92Y-60.645
T3
G00X95.9Y-125.15
M15
G01X97.5Y-125.15
M16
G05
G00X95.9Y-136.85
M15
G01X97.5Y-136.85
M16
G05
M30
