; NON-PLATED HOLES START AT T1
; THROUGH (PLATED) HOLES START AT T100
M48
INCH
T1C0.125984
T100C0.015748
T101C0.035433
T102C0.040000
T103C0.043307
%
T1
X038184Y019800
X019680Y001297
X001176Y019800
X019680Y038304
T100
X021166Y023314
X019166Y030314
T101
X028166Y005621
X012812Y005621
X028166Y012314
X012812Y012314
T102
X029166Y028314
X027166Y028314
X032166Y018314
X030166Y018314
T103
X019158Y033322
X014150Y018314
X017166Y026314
X016166Y026314
X019150Y018314
X032166Y022314
X015166Y026314
X032166Y023298
X007470Y011618
X016166Y025314
X017166Y025314
X015135Y018314
X015166Y025314
X012182Y018314
X006182Y022314
X023166Y033314
X018166Y026314
X018174Y033322
X008150Y022314
X007166Y022314
X008862Y013010
X022182Y033314
X014166Y025314
X014158Y031322
X008166Y012314
X013166Y018314
X018166Y025314
X024150Y033314
X013174Y031322
X009558Y013706
X018166Y018314
X014166Y026314
X009135Y022314
T00
M30
